<?xml version="1.0" encoding="UTF-8" standalone="no"?><svg xmlns="http://www.w3.org/2000/svg" xmlns:xlink="http://www.w3.org/1999/xlink" contentStyleType="text/css" height="607px" preserveAspectRatio="none" style="width:1432px;height:607px;background:#FFFFFF;" version="1.1" viewBox="0 0 1432 607" width="1432px" zoomAndPan="magnify"><defs/><g><!--MD5=[76410cda49e5d7b75c5bd06aa47a685f]
class message--><g id="elem_message"><rect codeLine="6" fill="#F1F1F1" height="32" id="message" rx="2.5" ry="2.5" style="stroke:#181818;stroke-width:0.5;" width="213" x="498" y="7"/><ellipse cx="513" cy="23" fill="#ADD1B2" rx="11" ry="11" style="stroke:#181818;stroke-width:1.0;"/><path d="M515.7656,18.875 Q515.9219,18.6563 516.1094,18.5469 Q516.2969,18.4375 516.5156,18.4375 Q516.8906,18.4375 517.125,18.7031 Q517.3594,18.9531 517.3594,19.5625 L517.3594,21.0156 Q517.3594,21.625 517.125,21.8906 Q516.8906,22.1563 516.5156,22.1563 Q516.1719,22.1563 515.9688,21.9531 Q515.7656,21.7656 515.6563,21.25 Q515.6094,20.8906 515.4219,20.7031 Q515.0938,20.3281 514.4844,20.1094 Q513.875,19.8906 513.25,19.8906 Q512.4844,19.8906 511.8438,20.2188 Q511.2188,20.5469 510.7188,21.2969 Q510.2344,22.0469 510.2344,23.0781 L510.2344,24.1719 Q510.2344,25.4063 511.125,26.2344 Q512.0156,27.0469 513.6094,27.0469 Q514.5469,27.0469 515.2031,26.7969 Q515.5938,26.6406 516.0156,26.2031 Q516.2813,25.9375 516.4219,25.8594 Q516.5781,25.7813 516.7813,25.7813 Q517.1094,25.7813 517.3594,26.0469 Q517.625,26.2969 517.625,26.6406 Q517.625,26.9844 517.2813,27.3906 Q516.7813,27.9688 515.9844,28.2969 Q514.9063,28.75 513.6094,28.75 Q512.0938,28.75 510.8906,28.125 Q509.9063,27.625 509.2188,26.5625 Q508.5313,25.4844 508.5313,24.2031 L508.5313,23.0469 Q508.5313,21.7188 509.1406,20.5781 Q509.7656,19.4219 510.8594,18.8125 Q511.9531,18.1875 513.1875,18.1875 Q513.9219,18.1875 514.5625,18.3594 Q515.2188,18.5156 515.7656,18.875 Z " fill="#000000"/><text fill="#000000" font-family="sans-serif" font-size="14" lengthAdjust="spacing" textLength="181" x="527" y="28.7285">MedComMessagingMessage</text></g><!--MD5=[8450471b43f9def5175bba9f4f9f2aaf]
class messageheader--><g id="elem_messageheader"><rect codeLine="7" fill="#F1F1F1" height="32" id="messageheader" rx="2.5" ry="2.5" style="stroke:#181818;stroke-width:0.5;" width="259" x="384" y="227"/><ellipse cx="399" cy="243" fill="#ADD1B2" rx="11" ry="11" style="stroke:#181818;stroke-width:1.0;"/><path d="M401.7656,238.875 Q401.9219,238.6563 402.1094,238.5469 Q402.2969,238.4375 402.5156,238.4375 Q402.8906,238.4375 403.125,238.7031 Q403.3594,238.9531 403.3594,239.5625 L403.3594,241.0156 Q403.3594,241.625 403.125,241.8906 Q402.8906,242.1563 402.5156,242.1563 Q402.1719,242.1563 401.9688,241.9531 Q401.7656,241.7656 401.6563,241.25 Q401.6094,240.8906 401.4219,240.7031 Q401.0938,240.3281 400.4844,240.1094 Q399.875,239.8906 399.25,239.8906 Q398.4844,239.8906 397.8438,240.2188 Q397.2188,240.5469 396.7188,241.2969 Q396.2344,242.0469 396.2344,243.0781 L396.2344,244.1719 Q396.2344,245.4063 397.125,246.2344 Q398.0156,247.0469 399.6094,247.0469 Q400.5469,247.0469 401.2031,246.7969 Q401.5938,246.6406 402.0156,246.2031 Q402.2813,245.9375 402.4219,245.8594 Q402.5781,245.7813 402.7813,245.7813 Q403.1094,245.7813 403.3594,246.0469 Q403.625,246.2969 403.625,246.6406 Q403.625,246.9844 403.2813,247.3906 Q402.7813,247.9688 401.9844,248.2969 Q400.9063,248.75 399.6094,248.75 Q398.0938,248.75 396.8906,248.125 Q395.9063,247.625 395.2188,246.5625 Q394.5313,245.4844 394.5313,244.2031 L394.5313,243.0469 Q394.5313,241.7188 395.1406,240.5781 Q395.7656,239.4219 396.8594,238.8125 Q397.9531,238.1875 399.1875,238.1875 Q399.9219,238.1875 400.5625,238.3594 Q401.2188,238.5156 401.7656,238.875 Z " fill="#000000"/><text fill="#000000" font-family="sans-serif" font-size="14" lengthAdjust="spacing" textLength="227" x="413" y="248.7285">MedComMessagingMessageHeader</text></g><!--MD5=[134450525739527685064faa304c6b67]
class provenance--><g id="elem_provenance"><rect codeLine="8" fill="#F1F1F1" height="32" id="provenance" rx="2.5" ry="2.5" style="stroke:#181818;stroke-width:0.5;" width="232" x="579.5" y="117"/><ellipse cx="594.5" cy="133" fill="#ADD1B2" rx="11" ry="11" style="stroke:#181818;stroke-width:1.0;"/><path d="M597.2656,128.875 Q597.4219,128.6563 597.6094,128.5469 Q597.7969,128.4375 598.0156,128.4375 Q598.3906,128.4375 598.625,128.7031 Q598.8594,128.9531 598.8594,129.5625 L598.8594,131.0156 Q598.8594,131.625 598.625,131.8906 Q598.3906,132.1563 598.0156,132.1563 Q597.6719,132.1563 597.4688,131.9531 Q597.2656,131.7656 597.1563,131.25 Q597.1094,130.8906 596.9219,130.7031 Q596.5938,130.3281 595.9844,130.1094 Q595.375,129.8906 594.75,129.8906 Q593.9844,129.8906 593.3438,130.2188 Q592.7188,130.5469 592.2188,131.2969 Q591.7344,132.0469 591.7344,133.0781 L591.7344,134.1719 Q591.7344,135.4063 592.625,136.2344 Q593.5156,137.0469 595.1094,137.0469 Q596.0469,137.0469 596.7031,136.7969 Q597.0938,136.6406 597.5156,136.2031 Q597.7813,135.9375 597.9219,135.8594 Q598.0781,135.7813 598.2813,135.7813 Q598.6094,135.7813 598.8594,136.0469 Q599.125,136.2969 599.125,136.6406 Q599.125,136.9844 598.7813,137.3906 Q598.2813,137.9688 597.4844,138.2969 Q596.4063,138.75 595.1094,138.75 Q593.5938,138.75 592.3906,138.125 Q591.4063,137.625 590.7188,136.5625 Q590.0313,135.4844 590.0313,134.2031 L590.0313,133.0469 Q590.0313,131.7188 590.6406,130.5781 Q591.2656,129.4219 592.3594,128.8125 Q593.4531,128.1875 594.6875,128.1875 Q595.4219,128.1875 596.0625,128.3594 Q596.7188,128.5156 597.2656,128.875 Z " fill="#000000"/><text fill="#000000" font-family="sans-serif" font-size="14" lengthAdjust="spacing" textLength="200" x="608.5" y="138.7285">MedComMessagingProvenance</text></g><!--MD5=[5495acc25b34ab1dab9fd35d8e775d03]
class messagingOrganization--><g id="elem_messagingOrganization"><rect codeLine="9" fill="#F1F1F1" height="42.7031" id="messagingOrganization" rx="2.5" ry="2.5" style="stroke:#181818;stroke-width:0.5;" width="236" x="558.5" y="337"/><ellipse cx="573.5" cy="358.3516" fill="#ADD1B2" rx="11" ry="11" style="stroke:#181818;stroke-width:1.0;"/><path d="M576.2656,354.2266 Q576.4219,354.0078 576.6094,353.8984 Q576.7969,353.7891 577.0156,353.7891 Q577.3906,353.7891 577.625,354.0547 Q577.8594,354.3047 577.8594,354.9141 L577.8594,356.3672 Q577.8594,356.9766 577.625,357.2422 Q577.3906,357.5078 577.0156,357.5078 Q576.6719,357.5078 576.4688,357.3047 Q576.2656,357.1172 576.1563,356.6016 Q576.1094,356.2422 575.9219,356.0547 Q575.5938,355.6797 574.9844,355.4609 Q574.375,355.2422 573.75,355.2422 Q572.9844,355.2422 572.3438,355.5703 Q571.7188,355.8984 571.2188,356.6484 Q570.7344,357.3984 570.7344,358.4297 L570.7344,359.5234 Q570.7344,360.7578 571.625,361.5859 Q572.5156,362.3984 574.1094,362.3984 Q575.0469,362.3984 575.7031,362.1484 Q576.0938,361.9922 576.5156,361.5547 Q576.7813,361.2891 576.9219,361.2109 Q577.0781,361.1328 577.2813,361.1328 Q577.6094,361.1328 577.8594,361.3984 Q578.125,361.6484 578.125,361.9922 Q578.125,362.3359 577.7813,362.7422 Q577.2813,363.3203 576.4844,363.6484 Q575.4063,364.1016 574.1094,364.1016 Q572.5938,364.1016 571.3906,363.4766 Q570.4063,362.9766 569.7188,361.9141 Q569.0313,360.8359 569.0313,359.5547 L569.0313,358.3984 Q569.0313,357.0703 569.6406,355.9297 Q570.2656,354.7734 571.3594,354.1641 Q572.4531,353.5391 573.6875,353.5391 Q574.4219,353.5391 575.0625,353.7109 Q575.7188,353.8672 576.2656,354.2266 Z " fill="#000000"/><text fill="#000000" font-family="sans-serif" font-size="12" font-style="italic" lengthAdjust="spacing" textLength="162" x="608.5" y="354.457">«MedComCoreOrganization»</text><text fill="#000000" font-family="sans-serif" font-size="14" lengthAdjust="spacing" textLength="204" x="587.5" y="371.627">MedComMessagingOrganization</text></g><!--MD5=[86fcfc7a3ddeef2443f03e9b03bcacd4]
class patient--><g id="elem_patient"><rect codeLine="10" fill="#F1F1F1" height="32" id="patient" rx="2.5" ry="2.5" style="stroke:#181818;stroke-width:0.5;" width="163" x="7" y="458"/><ellipse cx="22" cy="474" fill="#ADD1B2" rx="11" ry="11" style="stroke:#181818;stroke-width:1.0;"/><path d="M24.7656,469.875 Q24.9219,469.6563 25.1094,469.5469 Q25.2969,469.4375 25.5156,469.4375 Q25.8906,469.4375 26.125,469.7031 Q26.3594,469.9531 26.3594,470.5625 L26.3594,472.0156 Q26.3594,472.625 26.125,472.8906 Q25.8906,473.1563 25.5156,473.1563 Q25.1719,473.1563 24.9688,472.9531 Q24.7656,472.7656 24.6563,472.25 Q24.6094,471.8906 24.4219,471.7031 Q24.0938,471.3281 23.4844,471.1094 Q22.875,470.8906 22.25,470.8906 Q21.4844,470.8906 20.8438,471.2188 Q20.2188,471.5469 19.7188,472.2969 Q19.2344,473.0469 19.2344,474.0781 L19.2344,475.1719 Q19.2344,476.4063 20.125,477.2344 Q21.0156,478.0469 22.6094,478.0469 Q23.5469,478.0469 24.2031,477.7969 Q24.5938,477.6406 25.0156,477.2031 Q25.2813,476.9375 25.4219,476.8594 Q25.5781,476.7813 25.7813,476.7813 Q26.1094,476.7813 26.3594,477.0469 Q26.625,477.2969 26.625,477.6406 Q26.625,477.9844 26.2813,478.3906 Q25.7813,478.9688 24.9844,479.2969 Q23.9063,479.75 22.6094,479.75 Q21.0938,479.75 19.8906,479.125 Q18.9063,478.625 18.2188,477.5625 Q17.5313,476.4844 17.5313,475.2031 L17.5313,474.0469 Q17.5313,472.7188 18.1406,471.5781 Q18.7656,470.4219 19.8594,469.8125 Q20.9531,469.1875 22.1875,469.1875 Q22.9219,469.1875 23.5625,469.3594 Q24.2188,469.5156 24.7656,469.875 Z " fill="#000000"/><text fill="#000000" font-family="sans-serif" font-size="14" lengthAdjust="spacing" textLength="131" x="36" y="479.7285">MedComCorePatient</text></g><!--MD5=[7f6a6782ff085de027a43e4e291de663]
class author--><g id="elem_author"><rect codeLine="11" fill="#F1F1F1" height="32" id="author" rx="2.5" ry="2.5" style="stroke:#181818;stroke-width:0.5;" width="191" x="746" y="7"/><ellipse cx="761" cy="23" fill="#ADD1B2" rx="11" ry="11" style="stroke:#181818;stroke-width:1.0;"/><path d="M763.7656,18.875 Q763.9219,18.6563 764.1094,18.5469 Q764.2969,18.4375 764.5156,18.4375 Q764.8906,18.4375 765.125,18.7031 Q765.3594,18.9531 765.3594,19.5625 L765.3594,21.0156 Q765.3594,21.625 765.125,21.8906 Q764.8906,22.1563 764.5156,22.1563 Q764.1719,22.1563 763.9688,21.9531 Q763.7656,21.7656 763.6563,21.25 Q763.6094,20.8906 763.4219,20.7031 Q763.0938,20.3281 762.4844,20.1094 Q761.875,19.8906 761.25,19.8906 Q760.4844,19.8906 759.8438,20.2188 Q759.2188,20.5469 758.7188,21.2969 Q758.2344,22.0469 758.2344,23.0781 L758.2344,24.1719 Q758.2344,25.4063 759.125,26.2344 Q760.0156,27.0469 761.6094,27.0469 Q762.5469,27.0469 763.2031,26.7969 Q763.5938,26.6406 764.0156,26.2031 Q764.2813,25.9375 764.4219,25.8594 Q764.5781,25.7813 764.7813,25.7813 Q765.1094,25.7813 765.3594,26.0469 Q765.625,26.2969 765.625,26.6406 Q765.625,26.9844 765.2813,27.3906 Q764.7813,27.9688 763.9844,28.2969 Q762.9063,28.75 761.6094,28.75 Q760.0938,28.75 758.8906,28.125 Q757.9063,27.625 757.2188,26.5625 Q756.5313,25.4844 756.5313,24.2031 L756.5313,23.0469 Q756.5313,21.7188 757.1406,20.5781 Q757.7656,19.4219 758.8594,18.8125 Q759.9531,18.1875 761.1875,18.1875 Q761.9219,18.1875 762.5625,18.3594 Q763.2188,18.5156 763.7656,18.875 Z " fill="#000000"/><text fill="#000000" font-family="sans-serif" font-size="14" lengthAdjust="spacing" textLength="159" x="775" y="28.7285">MedComCorePractitioner</text></g><!--MD5=[c3fd6fd70c1f956c0aa70d5a42fdf9cf]
class encounter--><g id="elem_encounter"><rect codeLine="12" fill="#F1F1F1" height="32" id="encounter" rx="2.5" ry="2.5" style="stroke:#181818;stroke-width:0.5;" width="184" x="205.5" y="458"/><ellipse cx="220.5" cy="474" fill="#ADD1B2" rx="11" ry="11" style="stroke:#181818;stroke-width:1.0;"/><path d="M223.2656,469.875 Q223.4219,469.6563 223.6094,469.5469 Q223.7969,469.4375 224.0156,469.4375 Q224.3906,469.4375 224.625,469.7031 Q224.8594,469.9531 224.8594,470.5625 L224.8594,472.0156 Q224.8594,472.625 224.625,472.8906 Q224.3906,473.1563 224.0156,473.1563 Q223.6719,473.1563 223.4688,472.9531 Q223.2656,472.7656 223.1563,472.25 Q223.1094,471.8906 222.9219,471.7031 Q222.5938,471.3281 221.9844,471.1094 Q221.375,470.8906 220.75,470.8906 Q219.9844,470.8906 219.3438,471.2188 Q218.7188,471.5469 218.2188,472.2969 Q217.7344,473.0469 217.7344,474.0781 L217.7344,475.1719 Q217.7344,476.4063 218.625,477.2344 Q219.5156,478.0469 221.1094,478.0469 Q222.0469,478.0469 222.7031,477.7969 Q223.0938,477.6406 223.5156,477.2031 Q223.7813,476.9375 223.9219,476.8594 Q224.0781,476.7813 224.2813,476.7813 Q224.6094,476.7813 224.8594,477.0469 Q225.125,477.2969 225.125,477.6406 Q225.125,477.9844 224.7813,478.3906 Q224.2813,478.9688 223.4844,479.2969 Q222.4063,479.75 221.1094,479.75 Q219.5938,479.75 218.3906,479.125 Q217.4063,478.625 216.7188,477.5625 Q216.0313,476.4844 216.0313,475.2031 L216.0313,474.0469 Q216.0313,472.7188 216.6406,471.5781 Q217.2656,470.4219 218.3594,469.8125 Q219.4531,469.1875 220.6875,469.1875 Q221.4219,469.1875 222.0625,469.3594 Q222.7188,469.5156 223.2656,469.875 Z " fill="#000000"/><text fill="#000000" font-family="sans-serif" font-size="14" lengthAdjust="spacing" textLength="152" x="234.5" y="479.7285">MedComCoreEncounter</text></g><!--MD5=[d64d5c7357c79f774106f79272da7625]
class organization--><g id="elem_organization"><rect codeLine="13" fill="#F1F1F1" height="32" id="organization" rx="2.5" ry="2.5" style="stroke:#181818;stroke-width:0.5;" width="199" x="972" y="7"/><ellipse cx="987" cy="23" fill="#ADD1B2" rx="11" ry="11" style="stroke:#181818;stroke-width:1.0;"/><path d="M989.7656,18.875 Q989.9219,18.6563 990.1094,18.5469 Q990.2969,18.4375 990.5156,18.4375 Q990.8906,18.4375 991.125,18.7031 Q991.3594,18.9531 991.3594,19.5625 L991.3594,21.0156 Q991.3594,21.625 991.125,21.8906 Q990.8906,22.1563 990.5156,22.1563 Q990.1719,22.1563 989.9688,21.9531 Q989.7656,21.7656 989.6563,21.25 Q989.6094,20.8906 989.4219,20.7031 Q989.0938,20.3281 988.4844,20.1094 Q987.875,19.8906 987.25,19.8906 Q986.4844,19.8906 985.8438,20.2188 Q985.2188,20.5469 984.7188,21.2969 Q984.2344,22.0469 984.2344,23.0781 L984.2344,24.1719 Q984.2344,25.4063 985.125,26.2344 Q986.0156,27.0469 987.6094,27.0469 Q988.5469,27.0469 989.2031,26.7969 Q989.5938,26.6406 990.0156,26.2031 Q990.2813,25.9375 990.4219,25.8594 Q990.5781,25.7813 990.7813,25.7813 Q991.1094,25.7813 991.3594,26.0469 Q991.625,26.2969 991.625,26.6406 Q991.625,26.9844 991.2813,27.3906 Q990.7813,27.9688 989.9844,28.2969 Q988.9063,28.75 987.6094,28.75 Q986.0938,28.75 984.8906,28.125 Q983.9063,27.625 983.2188,26.5625 Q982.5313,25.4844 982.5313,24.2031 L982.5313,23.0469 Q982.5313,21.7188 983.1406,20.5781 Q983.7656,19.4219 984.8594,18.8125 Q985.9531,18.1875 987.1875,18.1875 Q987.9219,18.1875 988.5625,18.3594 Q989.2188,18.5156 989.7656,18.875 Z " fill="#000000"/><text fill="#000000" font-family="sans-serif" font-size="14" lengthAdjust="spacing" textLength="167" x="1001" y="28.7285">MedComCoreOrganization</text></g><!--MD5=[e983e22c3f4ba1480d19570c62e75e9c]
class diagnosticReport--><g id="elem_diagnosticReport"><rect codeLine="14" fill="#F1F1F1" height="32" id="diagnosticReport" rx="2.5" ry="2.5" style="stroke:#181818;stroke-width:0.5;" width="228" x="295.5" y="342.5"/><ellipse cx="310.5" cy="358.5" fill="#ADD1B2" rx="11" ry="11" style="stroke:#181818;stroke-width:1.0;"/><path d="M313.2656,354.375 Q313.4219,354.1563 313.6094,354.0469 Q313.7969,353.9375 314.0156,353.9375 Q314.3906,353.9375 314.625,354.2031 Q314.8594,354.4531 314.8594,355.0625 L314.8594,356.5156 Q314.8594,357.125 314.625,357.3906 Q314.3906,357.6563 314.0156,357.6563 Q313.6719,357.6563 313.4688,357.4531 Q313.2656,357.2656 313.1563,356.75 Q313.1094,356.3906 312.9219,356.2031 Q312.5938,355.8281 311.9844,355.6094 Q311.375,355.3906 310.75,355.3906 Q309.9844,355.3906 309.3438,355.7188 Q308.7188,356.0469 308.2188,356.7969 Q307.7344,357.5469 307.7344,358.5781 L307.7344,359.6719 Q307.7344,360.9063 308.625,361.7344 Q309.5156,362.5469 311.1094,362.5469 Q312.0469,362.5469 312.7031,362.2969 Q313.0938,362.1406 313.5156,361.7031 Q313.7813,361.4375 313.9219,361.3594 Q314.0781,361.2813 314.2813,361.2813 Q314.6094,361.2813 314.8594,361.5469 Q315.125,361.7969 315.125,362.1406 Q315.125,362.4844 314.7813,362.8906 Q314.2813,363.4688 313.4844,363.7969 Q312.4063,364.25 311.1094,364.25 Q309.5938,364.25 308.3906,363.625 Q307.4063,363.125 306.7188,362.0625 Q306.0313,360.9844 306.0313,359.7031 L306.0313,358.5469 Q306.0313,357.2188 306.6406,356.0781 Q307.2656,354.9219 308.3594,354.3125 Q309.4531,353.6875 310.6875,353.6875 Q311.4219,353.6875 312.0625,353.8594 Q312.7188,354.0156 313.2656,354.375 Z " fill="#000000"/><text fill="#000000" font-family="sans-serif" font-size="14" lengthAdjust="spacing" textLength="196" x="324.5" y="364.2285">MedComCoreDiagnosticReport</text></g><!--MD5=[c05ff5df3fb3713f28ed4bc47e190b7b]
class observation--><g id="elem_observation"><rect codeLine="15" fill="#F1F1F1" height="32" id="observation" rx="2.5" ry="2.5" style="stroke:#181818;stroke-width:0.5;" width="196" x="424.5" y="458"/><ellipse cx="439.5" cy="474" fill="#ADD1B2" rx="11" ry="11" style="stroke:#181818;stroke-width:1.0;"/><path d="M442.2656,469.875 Q442.4219,469.6563 442.6094,469.5469 Q442.7969,469.4375 443.0156,469.4375 Q443.3906,469.4375 443.625,469.7031 Q443.8594,469.9531 443.8594,470.5625 L443.8594,472.0156 Q443.8594,472.625 443.625,472.8906 Q443.3906,473.1563 443.0156,473.1563 Q442.6719,473.1563 442.4688,472.9531 Q442.2656,472.7656 442.1563,472.25 Q442.1094,471.8906 441.9219,471.7031 Q441.5938,471.3281 440.9844,471.1094 Q440.375,470.8906 439.75,470.8906 Q438.9844,470.8906 438.3438,471.2188 Q437.7188,471.5469 437.2188,472.2969 Q436.7344,473.0469 436.7344,474.0781 L436.7344,475.1719 Q436.7344,476.4063 437.625,477.2344 Q438.5156,478.0469 440.1094,478.0469 Q441.0469,478.0469 441.7031,477.7969 Q442.0938,477.6406 442.5156,477.2031 Q442.7813,476.9375 442.9219,476.8594 Q443.0781,476.7813 443.2813,476.7813 Q443.6094,476.7813 443.8594,477.0469 Q444.125,477.2969 444.125,477.6406 Q444.125,477.9844 443.7813,478.3906 Q443.2813,478.9688 442.4844,479.2969 Q441.4063,479.75 440.1094,479.75 Q438.5938,479.75 437.3906,479.125 Q436.4063,478.625 435.7188,477.5625 Q435.0313,476.4844 435.0313,475.2031 L435.0313,474.0469 Q435.0313,472.7188 435.6406,471.5781 Q436.2656,470.4219 437.3594,469.8125 Q438.4531,469.1875 439.6875,469.1875 Q440.4219,469.1875 441.0625,469.3594 Q441.7188,469.5156 442.2656,469.875 Z " fill="#000000"/><text fill="#000000" font-family="sans-serif" font-size="14" lengthAdjust="spacing" textLength="164" x="453.5" y="479.7285">MedComCoreObservation</text></g><!--MD5=[c91ebbe0b2d41735a0ed4adc68e69b10]
class specimen--><g id="elem_specimen"><rect codeLine="16" fill="#F1F1F1" height="32" id="specimen" rx="2.5" ry="2.5" style="stroke:#181818;stroke-width:0.5;" width="181" x="516" y="568"/><ellipse cx="531" cy="584" fill="#ADD1B2" rx="11" ry="11" style="stroke:#181818;stroke-width:1.0;"/><path d="M533.7656,579.875 Q533.9219,579.6563 534.1094,579.5469 Q534.2969,579.4375 534.5156,579.4375 Q534.8906,579.4375 535.125,579.7031 Q535.3594,579.9531 535.3594,580.5625 L535.3594,582.0156 Q535.3594,582.625 535.125,582.8906 Q534.8906,583.1563 534.5156,583.1563 Q534.1719,583.1563 533.9688,582.9531 Q533.7656,582.7656 533.6563,582.25 Q533.6094,581.8906 533.4219,581.7031 Q533.0938,581.3281 532.4844,581.1094 Q531.875,580.8906 531.25,580.8906 Q530.4844,580.8906 529.8438,581.2188 Q529.2188,581.5469 528.7188,582.2969 Q528.2344,583.0469 528.2344,584.0781 L528.2344,585.1719 Q528.2344,586.4063 529.125,587.2344 Q530.0156,588.0469 531.6094,588.0469 Q532.5469,588.0469 533.2031,587.7969 Q533.5938,587.6406 534.0156,587.2031 Q534.2813,586.9375 534.4219,586.8594 Q534.5781,586.7813 534.7813,586.7813 Q535.1094,586.7813 535.3594,587.0469 Q535.625,587.2969 535.625,587.6406 Q535.625,587.9844 535.2813,588.3906 Q534.7813,588.9688 533.9844,589.2969 Q532.9063,589.75 531.6094,589.75 Q530.0938,589.75 528.8906,589.125 Q527.9063,588.625 527.2188,587.5625 Q526.5313,586.4844 526.5313,585.2031 L526.5313,584.0469 Q526.5313,582.7188 527.1406,581.5781 Q527.7656,580.4219 528.8594,579.8125 Q529.9531,579.1875 531.1875,579.1875 Q531.9219,579.1875 532.5625,579.3594 Q533.2188,579.5156 533.7656,579.875 Z " fill="#000000"/><text fill="#000000" font-family="sans-serif" font-size="14" lengthAdjust="spacing" textLength="149" x="545" y="589.7285">MedComCoreSpecimen</text></g><!--MD5=[0dbbe5e9e04a32a61f4c8be5c884f575]
class request--><g id="elem_request"><rect codeLine="17" fill="#F1F1F1" height="32" id="request" rx="2.5" ry="2.5" style="stroke:#181818;stroke-width:0.5;" width="219" x="1206" y="7"/><ellipse cx="1221" cy="23" fill="#ADD1B2" rx="11" ry="11" style="stroke:#181818;stroke-width:1.0;"/><path d="M1223.7656,18.875 Q1223.9219,18.6563 1224.1094,18.5469 Q1224.2969,18.4375 1224.5156,18.4375 Q1224.8906,18.4375 1225.125,18.7031 Q1225.3594,18.9531 1225.3594,19.5625 L1225.3594,21.0156 Q1225.3594,21.625 1225.125,21.8906 Q1224.8906,22.1563 1224.5156,22.1563 Q1224.1719,22.1563 1223.9688,21.9531 Q1223.7656,21.7656 1223.6563,21.25 Q1223.6094,20.8906 1223.4219,20.7031 Q1223.0938,20.3281 1222.4844,20.1094 Q1221.875,19.8906 1221.25,19.8906 Q1220.4844,19.8906 1219.8438,20.2188 Q1219.2188,20.5469 1218.7188,21.2969 Q1218.2344,22.0469 1218.2344,23.0781 L1218.2344,24.1719 Q1218.2344,25.4063 1219.125,26.2344 Q1220.0156,27.0469 1221.6094,27.0469 Q1222.5469,27.0469 1223.2031,26.7969 Q1223.5938,26.6406 1224.0156,26.2031 Q1224.2813,25.9375 1224.4219,25.8594 Q1224.5781,25.7813 1224.7813,25.7813 Q1225.1094,25.7813 1225.3594,26.0469 Q1225.625,26.2969 1225.625,26.6406 Q1225.625,26.9844 1225.2813,27.3906 Q1224.7813,27.9688 1223.9844,28.2969 Q1222.9063,28.75 1221.6094,28.75 Q1220.0938,28.75 1218.8906,28.125 Q1217.9063,27.625 1217.2188,26.5625 Q1216.5313,25.4844 1216.5313,24.2031 L1216.5313,23.0469 Q1216.5313,21.7188 1217.1406,20.5781 Q1217.7656,19.4219 1218.8594,18.8125 Q1219.9531,18.1875 1221.1875,18.1875 Q1221.9219,18.1875 1222.5625,18.3594 Q1223.2188,18.5156 1223.7656,18.875 Z " fill="#000000"/><text fill="#000000" font-family="sans-serif" font-size="14" lengthAdjust="spacing" textLength="187" x="1235" y="28.7285">MedComCoreServiceRequest</text></g><!--MD5=[d4e62dae060c211c6f35346c155b3a50]
class iagnosticReport--><g id="elem_iagnosticReport"><rect fill="#F1F1F1" height="32" id="iagnosticReport" rx="2.5" ry="2.5" style="stroke:#181818;stroke-width:0.5;" width="131" x="1250" y="117"/><ellipse cx="1265" cy="133" fill="#ADD1B2" rx="11" ry="11" style="stroke:#181818;stroke-width:1.0;"/><path d="M1267.7656,128.875 Q1267.9219,128.6563 1268.1094,128.5469 Q1268.2969,128.4375 1268.5156,128.4375 Q1268.8906,128.4375 1269.125,128.7031 Q1269.3594,128.9531 1269.3594,129.5625 L1269.3594,131.0156 Q1269.3594,131.625 1269.125,131.8906 Q1268.8906,132.1563 1268.5156,132.1563 Q1268.1719,132.1563 1267.9688,131.9531 Q1267.7656,131.7656 1267.6563,131.25 Q1267.6094,130.8906 1267.4219,130.7031 Q1267.0938,130.3281 1266.4844,130.1094 Q1265.875,129.8906 1265.25,129.8906 Q1264.4844,129.8906 1263.8438,130.2188 Q1263.2188,130.5469 1262.7188,131.2969 Q1262.2344,132.0469 1262.2344,133.0781 L1262.2344,134.1719 Q1262.2344,135.4063 1263.125,136.2344 Q1264.0156,137.0469 1265.6094,137.0469 Q1266.5469,137.0469 1267.2031,136.7969 Q1267.5938,136.6406 1268.0156,136.2031 Q1268.2813,135.9375 1268.4219,135.8594 Q1268.5781,135.7813 1268.7813,135.7813 Q1269.1094,135.7813 1269.3594,136.0469 Q1269.625,136.2969 1269.625,136.6406 Q1269.625,136.9844 1269.2813,137.3906 Q1268.7813,137.9688 1267.9844,138.2969 Q1266.9063,138.75 1265.6094,138.75 Q1264.0938,138.75 1262.8906,138.125 Q1261.9063,137.625 1261.2188,136.5625 Q1260.5313,135.4844 1260.5313,134.2031 L1260.5313,133.0469 Q1260.5313,131.7188 1261.1406,130.5781 Q1261.7656,129.4219 1262.8594,128.8125 Q1263.9531,128.1875 1265.1875,128.1875 Q1265.9219,128.1875 1266.5625,128.3594 Q1267.2188,128.5156 1267.7656,128.875 Z " fill="#000000"/><text fill="#000000" font-family="sans-serif" font-size="14" lengthAdjust="spacing" textLength="99" x="1279" y="138.7285">iagnosticReport</text></g><!--MD5=[81a74f5327845c2ce954842e4f46c391]
link message to messageheader--><g id="link_message_messageheader"><path codeLine="20" d="M588.17,39.03 C570.75,56.11 543.87,85.69 530.5,117 C514.67,154.06 512.81,202.42 513.02,226.69 " fill="none" id="message-messageheader" style="stroke:#181818;stroke-width:1.0;"/><text fill="#000000" font-family="sans-serif" font-size="13" lengthAdjust="spacing" textLength="29" x="531.5" y="138.4951">entry</text></g><!--MD5=[e1e9985a6f350ec0650597362e14de10]
link messageheader to diagnosticReport--><g id="link_messageheader_diagnosticReport"><path codeLine="21" d="M499.06,259.36 C490.93,268.03 480.61,279.09 471.5,289 C454.68,307.31 435.5,328.56 422.98,342.47 " fill="none" id="messageheader-diagnosticReport" style="stroke:#181818;stroke-width:1.0;"/><text fill="#000000" font-family="sans-serif" font-size="13" lengthAdjust="spacing" textLength="31" x="472.5" y="303.4951">focus</text></g><!--MD5=[3693126f5e4882afa6398591cd5ccdc9]
link diagnosticReport to patient--><g id="link_diagnosticReport_patient"><path codeLine="22" d="M366.87,374.57 C305.39,396.31 192.48,436.23 131.05,457.96 " fill="none" id="diagnosticReport-patient" style="stroke:#181818;stroke-width:1.0;"/><text fill="#000000" font-family="sans-serif" font-size="13" lengthAdjust="spacing" textLength="42" x="260.5" y="424.4951">subject</text></g><!--MD5=[81f298224060e516a9ea14ff98c71ca4]
link message to provenance--><g id="link_message_provenance"><path codeLine="23" d="M617.15,39.02 C634.44,59.53 665.28,96.13 682.66,116.76 " fill="none" id="message-provenance" style="stroke:#181818;stroke-width:1.0;"/><text fill="#000000" font-family="sans-serif" font-size="13" lengthAdjust="spacing" textLength="29" x="656.5" y="83.4951">entry</text></g><!--MD5=[1aa5b919a36df47450e1a6a7cdb64b45]
link provenance to messageheader--><g id="link_provenance_messageheader"><path codeLine="24" d="M670.19,149.02 C635.52,169.59 573.6,206.34 538.88,226.94 " fill="none" id="provenance-messageheader" style="stroke:#181818;stroke-width:1.0;"/><text fill="#000000" font-family="sans-serif" font-size="13" lengthAdjust="spacing" textLength="33" x="616.5" y="193.4951">target</text></g><!--MD5=[f47a36da2de5ae8806a1be3932325292]
link provenance to messagingOrganization--><g id="link_provenance_messagingOrganization"><path codeLine="25" d="M694.22,149.01 C690.91,187.97 682.04,292.34 678.25,336.89 " fill="none" id="provenance-messagingOrganization" style="stroke:#181818;stroke-width:1.0;"/><text fill="#000000" font-family="sans-serif" font-size="13" lengthAdjust="spacing" textLength="59" x="689.5" y="248.4951">agent.who</text></g><!--MD5=[a1d042c6a7a1649c96d2671638a1b59b]
link request to iagnosticReport--><g id="link_request_iagnosticReport"><path codeLine="26" d="M1315.5,39.02 C1315.5,59.53 1315.5,96.13 1315.5,116.76 " fill="none" id="request-iagnosticReport" style="stroke:#181818;stroke-width:1.0;"/><text fill="#000000" font-family="sans-serif" font-size="13" lengthAdjust="spacing" textLength="36" x="1316.5" y="83.4951">reqest</text></g><!--MD5=[6b8f7a38384e46a974f5f1541fc4993c]
link diagnosticReport to encounter--><g id="link_diagnosticReport_encounter"><path codeLine="27" d="M394.4,374.81 C372.9,396.59 333.73,436.29 312.37,457.94 " fill="none" id="diagnosticReport-encounter" style="stroke:#181818;stroke-width:1.0;"/><text fill="#000000" font-family="sans-serif" font-size="13" lengthAdjust="spacing" textLength="57" x="358.5" y="424.4951">encounter</text></g><!--MD5=[3e74bcfe223db57f3ef2fc1f1a52bdc5]
link diagnosticReport to observation--><g id="link_diagnosticReport_observation"><path codeLine="28" d="M424.74,374.81 C446.43,396.59 485.95,436.29 507.5,457.94 " fill="none" id="diagnosticReport-observation" style="stroke:#181818;stroke-width:1.0;"/><text fill="#000000" font-family="sans-serif" font-size="13" lengthAdjust="spacing" textLength="32" x="477.5" y="424.4951">result</text></g><!--MD5=[487daa4d74fa9bdcc637c260641b3742]
link diagnosticReport to specimen--><g id="link_diagnosticReport_specimen"><path codeLine="29" d="M464.83,374.59 C513.82,389.88 585.41,417.16 637.5,458 C669.95,483.45 705.12,502.29 684.5,538 C676.84,551.27 663.61,560.97 650.2,567.9 " fill="none" id="diagnosticReport-specimen" style="stroke:#181818;stroke-width:1.0;"/><text fill="#000000" font-family="sans-serif" font-size="13" lengthAdjust="spacing" textLength="56" x="677.5" y="479.4951">specimen</text></g><!--MD5=[a36f3b5939822ad8555911fe4806c36d]
link observation to specimen--><g id="link_observation_specimen"><path codeLine="30" d="M511.27,490.02 C502.7,503.47 493.87,523.28 503.5,538 C512.48,551.72 526.65,561.28 541.65,567.93 " fill="none" id="observation-specimen" style="stroke:#181818;stroke-width:1.0;"/><text fill="#000000" font-family="sans-serif" font-size="13" lengthAdjust="spacing" textLength="175" x="504.5" y="534.4951">observation based on speimen</text></g><!--MD5=[7068c6a302bec6a421fbf6e526f1486a]
link messageheader to messagingOrganization--><g id="link_messageheader_messagingOrganization"><path codeLine="32" d="M545.16,259.17 C561.04,267.27 580.29,277.85 596.5,289 C617.59,303.51 639.54,322.63 655.1,336.99 " fill="none" id="messageheader-messagingOrganization" style="stroke:#181818;stroke-width:1.0;"/><text fill="#000000" font-family="sans-serif" font-size="13" lengthAdjust="spacing" textLength="44" x="621.5" y="303.4951">receiver</text></g><!--MD5=[7068c6a302bec6a421fbf6e526f1486a]
link messageheader to messagingOrganization--><g id="link_messageheader_messagingOrganization"><path codeLine="33" d="M518.27,259.18 C523.41,273.3 532.89,294.07 547.5,307 C562,319.83 580.13,329.59 598.19,336.93 " fill="none" id="messageheader-messagingOrganization-1" style="stroke:#181818;stroke-width:1.0;"/><text fill="#000000" font-family="sans-serif" font-size="13" lengthAdjust="spacing" textLength="39" x="548.5" y="303.4951">sender</text></g><!--MD5=[1a31a5b47c7932b6ff2fd8c76becad17]
@startuml HomeCareObservation

hide empty members

top to bottom direction

class "MedComMessagingMessage" as message
class "MedComMessagingMessageHeader" as messageheader
class "MedComMessagingProvenance" as provenance
class "MedComMessagingOrganization" as messagingOrganization <<MedComCoreOrganization>>
class "MedComCorePatient" as patient
class "MedComCorePractitioner" as author
class "MedComCoreEncounter" as encounter
class "MedComCoreOrganization" as organization
class "MedComCoreDiagnosticReport" as diagnosticReport
class "MedComCoreObservation" as observation
class "MedComCoreSpecimen" as specimen 
class "MedComCoreServiceRequest" as request


message - - messageheader : "entry"
messageheader - - diagnosticReport : "focus"
diagnosticReport - - patient : "subject"
message - - provenance : "entry"
provenance - - messageheader : "target" 
provenance - - messagingOrganization : "agent.who"
request- -diagnosticReport: "reqest"
diagnosticReport - - encounter : "encounter"
diagnosticReport- -observation : "result"
diagnosticReport- -specimen : "specimen"
observation- -specimen :"observation based on speimen"

messageheader - - messagingOrganization : "receiver"
messageheader - - messagingOrganization : "sender"



@enduml

PlantUML version 1.2022.7(Mon Aug 22 19:01:30 CEST 2022)
(GPL source distribution)
Java Runtime: Java(TM) SE Runtime Environment
JVM: Java HotSpot(TM) 64-Bit Server VM
Default Encoding: Cp1252
Language: da
Country: DK
--></g></svg>