<?xml version="1.0" encoding="UTF-8" standalone="no"?><svg xmlns="http://www.w3.org/2000/svg" xmlns:xlink="http://www.w3.org/1999/xlink" contentStyleType="text/css" height="810px" preserveAspectRatio="none" style="width:1042px;height:810px;background:#FFFFFF;" version="1.1" viewBox="0 0 1042 810" width="1042px" zoomAndPan="magnify"><defs/><g><!--MD5=[76410cda49e5d7b75c5bd06aa47a685f]
class message--><g id="elem_message"><rect codeLine="6" fill="#F1F1F1" height="32" id="message" rx="2.5" ry="2.5" style="stroke:#181818;stroke-width:0.5;" width="213" x="476" y="7"/><ellipse cx="491" cy="23" fill="#ADD1B2" rx="11" ry="11" style="stroke:#181818;stroke-width:1.0;"/><path d="M493.7656,18.875 Q493.9219,18.6563 494.1094,18.5469 Q494.2969,18.4375 494.5156,18.4375 Q494.8906,18.4375 495.125,18.7031 Q495.3594,18.9531 495.3594,19.5625 L495.3594,21.0156 Q495.3594,21.625 495.125,21.8906 Q494.8906,22.1563 494.5156,22.1563 Q494.1719,22.1563 493.9688,21.9531 Q493.7656,21.7656 493.6563,21.25 Q493.6094,20.8906 493.4219,20.7031 Q493.0938,20.3281 492.4844,20.1094 Q491.875,19.8906 491.25,19.8906 Q490.4844,19.8906 489.8438,20.2188 Q489.2188,20.5469 488.7188,21.2969 Q488.2344,22.0469 488.2344,23.0781 L488.2344,24.1719 Q488.2344,25.4063 489.125,26.2344 Q490.0156,27.0469 491.6094,27.0469 Q492.5469,27.0469 493.2031,26.7969 Q493.5938,26.6406 494.0156,26.2031 Q494.2813,25.9375 494.4219,25.8594 Q494.5781,25.7813 494.7813,25.7813 Q495.1094,25.7813 495.3594,26.0469 Q495.625,26.2969 495.625,26.6406 Q495.625,26.9844 495.2813,27.3906 Q494.7813,27.9688 493.9844,28.2969 Q492.9063,28.75 491.6094,28.75 Q490.0938,28.75 488.8906,28.125 Q487.9063,27.625 487.2188,26.5625 Q486.5313,25.4844 486.5313,24.2031 L486.5313,23.0469 Q486.5313,21.7188 487.1406,20.5781 Q487.7656,19.4219 488.8594,18.8125 Q489.9531,18.1875 491.1875,18.1875 Q491.9219,18.1875 492.5625,18.3594 Q493.2188,18.5156 493.7656,18.875 Z " fill="#000000"/><text fill="#000000" font-family="sans-serif" font-size="14" lengthAdjust="spacing" textLength="181" x="505" y="28.7285">MedComMessagingMessage</text></g><!--MD5=[8450471b43f9def5175bba9f4f9f2aaf]
class messageheader--><g id="elem_messageheader"><rect codeLine="7" fill="#F1F1F1" height="32" id="messageheader" rx="2.5" ry="2.5" style="stroke:#181818;stroke-width:0.5;" width="259" x="424" y="227"/><ellipse cx="439" cy="243" fill="#ADD1B2" rx="11" ry="11" style="stroke:#181818;stroke-width:1.0;"/><path d="M441.7656,238.875 Q441.9219,238.6563 442.1094,238.5469 Q442.2969,238.4375 442.5156,238.4375 Q442.8906,238.4375 443.125,238.7031 Q443.3594,238.9531 443.3594,239.5625 L443.3594,241.0156 Q443.3594,241.625 443.125,241.8906 Q442.8906,242.1563 442.5156,242.1563 Q442.1719,242.1563 441.9688,241.9531 Q441.7656,241.7656 441.6563,241.25 Q441.6094,240.8906 441.4219,240.7031 Q441.0938,240.3281 440.4844,240.1094 Q439.875,239.8906 439.25,239.8906 Q438.4844,239.8906 437.8438,240.2188 Q437.2188,240.5469 436.7188,241.2969 Q436.2344,242.0469 436.2344,243.0781 L436.2344,244.1719 Q436.2344,245.4063 437.125,246.2344 Q438.0156,247.0469 439.6094,247.0469 Q440.5469,247.0469 441.2031,246.7969 Q441.5938,246.6406 442.0156,246.2031 Q442.2813,245.9375 442.4219,245.8594 Q442.5781,245.7813 442.7813,245.7813 Q443.1094,245.7813 443.3594,246.0469 Q443.625,246.2969 443.625,246.6406 Q443.625,246.9844 443.2813,247.3906 Q442.7813,247.9688 441.9844,248.2969 Q440.9063,248.75 439.6094,248.75 Q438.0938,248.75 436.8906,248.125 Q435.9063,247.625 435.2188,246.5625 Q434.5313,245.4844 434.5313,244.2031 L434.5313,243.0469 Q434.5313,241.7188 435.1406,240.5781 Q435.7656,239.4219 436.8594,238.8125 Q437.9531,238.1875 439.1875,238.1875 Q439.9219,238.1875 440.5625,238.3594 Q441.2188,238.5156 441.7656,238.875 Z " fill="#000000"/><text fill="#000000" font-family="sans-serif" font-size="14" lengthAdjust="spacing" textLength="227" x="453" y="248.7285">MedComMessagingMessageHeader</text></g><!--MD5=[134450525739527685064faa304c6b67]
class provenance--><g id="elem_provenance"><rect codeLine="8" fill="#F1F1F1" height="32" id="provenance" rx="2.5" ry="2.5" style="stroke:#181818;stroke-width:0.5;" width="232" x="619.5" y="117"/><ellipse cx="634.5" cy="133" fill="#ADD1B2" rx="11" ry="11" style="stroke:#181818;stroke-width:1.0;"/><path d="M637.2656,128.875 Q637.4219,128.6563 637.6094,128.5469 Q637.7969,128.4375 638.0156,128.4375 Q638.3906,128.4375 638.625,128.7031 Q638.8594,128.9531 638.8594,129.5625 L638.8594,131.0156 Q638.8594,131.625 638.625,131.8906 Q638.3906,132.1563 638.0156,132.1563 Q637.6719,132.1563 637.4688,131.9531 Q637.2656,131.7656 637.1563,131.25 Q637.1094,130.8906 636.9219,130.7031 Q636.5938,130.3281 635.9844,130.1094 Q635.375,129.8906 634.75,129.8906 Q633.9844,129.8906 633.3438,130.2188 Q632.7188,130.5469 632.2188,131.2969 Q631.7344,132.0469 631.7344,133.0781 L631.7344,134.1719 Q631.7344,135.4063 632.625,136.2344 Q633.5156,137.0469 635.1094,137.0469 Q636.0469,137.0469 636.7031,136.7969 Q637.0938,136.6406 637.5156,136.2031 Q637.7813,135.9375 637.9219,135.8594 Q638.0781,135.7813 638.2813,135.7813 Q638.6094,135.7813 638.8594,136.0469 Q639.125,136.2969 639.125,136.6406 Q639.125,136.9844 638.7813,137.3906 Q638.2813,137.9688 637.4844,138.2969 Q636.4063,138.75 635.1094,138.75 Q633.5938,138.75 632.3906,138.125 Q631.4063,137.625 630.7188,136.5625 Q630.0313,135.4844 630.0313,134.2031 L630.0313,133.0469 Q630.0313,131.7188 630.6406,130.5781 Q631.2656,129.4219 632.3594,128.8125 Q633.4531,128.1875 634.6875,128.1875 Q635.4219,128.1875 636.0625,128.3594 Q636.7188,128.5156 637.2656,128.875 Z " fill="#000000"/><text fill="#000000" font-family="sans-serif" font-size="14" lengthAdjust="spacing" textLength="200" x="648.5" y="138.7285">MedComMessagingProvenance</text></g><!--MD5=[5495acc25b34ab1dab9fd35d8e775d03]
class messagingOrganization--><g id="elem_messagingOrganization"><rect codeLine="9" fill="#F1F1F1" height="42.7031" id="messagingOrganization" rx="2.5" ry="2.5" style="stroke:#181818;stroke-width:0.5;" width="236" x="598.5" y="337"/><ellipse cx="613.5" cy="358.3516" fill="#ADD1B2" rx="11" ry="11" style="stroke:#181818;stroke-width:1.0;"/><path d="M616.2656,354.2266 Q616.4219,354.0078 616.6094,353.8984 Q616.7969,353.7891 617.0156,353.7891 Q617.3906,353.7891 617.625,354.0547 Q617.8594,354.3047 617.8594,354.9141 L617.8594,356.3672 Q617.8594,356.9766 617.625,357.2422 Q617.3906,357.5078 617.0156,357.5078 Q616.6719,357.5078 616.4688,357.3047 Q616.2656,357.1172 616.1563,356.6016 Q616.1094,356.2422 615.9219,356.0547 Q615.5938,355.6797 614.9844,355.4609 Q614.375,355.2422 613.75,355.2422 Q612.9844,355.2422 612.3438,355.5703 Q611.7188,355.8984 611.2188,356.6484 Q610.7344,357.3984 610.7344,358.4297 L610.7344,359.5234 Q610.7344,360.7578 611.625,361.5859 Q612.5156,362.3984 614.1094,362.3984 Q615.0469,362.3984 615.7031,362.1484 Q616.0938,361.9922 616.5156,361.5547 Q616.7813,361.2891 616.9219,361.2109 Q617.0781,361.1328 617.2813,361.1328 Q617.6094,361.1328 617.8594,361.3984 Q618.125,361.6484 618.125,361.9922 Q618.125,362.3359 617.7813,362.7422 Q617.2813,363.3203 616.4844,363.6484 Q615.4063,364.1016 614.1094,364.1016 Q612.5938,364.1016 611.3906,363.4766 Q610.4063,362.9766 609.7188,361.9141 Q609.0313,360.8359 609.0313,359.5547 L609.0313,358.3984 Q609.0313,357.0703 609.6406,355.9297 Q610.2656,354.7734 611.3594,354.1641 Q612.4531,353.5391 613.6875,353.5391 Q614.4219,353.5391 615.0625,353.7109 Q615.7188,353.8672 616.2656,354.2266 Z " fill="#000000"/><text fill="#000000" font-family="sans-serif" font-size="12" font-style="italic" lengthAdjust="spacing" textLength="162" x="648.5" y="354.457">«MedComCoreOrganization»</text><text fill="#000000" font-family="sans-serif" font-size="14" lengthAdjust="spacing" textLength="204" x="627.5" y="371.627">MedComMessagingOrganization</text></g><!--MD5=[86fcfc7a3ddeef2443f03e9b03bcacd4]
class patient--><g id="elem_patient"><rect codeLine="10" fill="#F1F1F1" height="32" id="patient" rx="2.5" ry="2.5" style="stroke:#181818;stroke-width:0.5;" width="163" x="7" y="458"/><ellipse cx="22" cy="474" fill="#ADD1B2" rx="11" ry="11" style="stroke:#181818;stroke-width:1.0;"/><path d="M24.7656,469.875 Q24.9219,469.6563 25.1094,469.5469 Q25.2969,469.4375 25.5156,469.4375 Q25.8906,469.4375 26.125,469.7031 Q26.3594,469.9531 26.3594,470.5625 L26.3594,472.0156 Q26.3594,472.625 26.125,472.8906 Q25.8906,473.1563 25.5156,473.1563 Q25.1719,473.1563 24.9688,472.9531 Q24.7656,472.7656 24.6563,472.25 Q24.6094,471.8906 24.4219,471.7031 Q24.0938,471.3281 23.4844,471.1094 Q22.875,470.8906 22.25,470.8906 Q21.4844,470.8906 20.8438,471.2188 Q20.2188,471.5469 19.7188,472.2969 Q19.2344,473.0469 19.2344,474.0781 L19.2344,475.1719 Q19.2344,476.4063 20.125,477.2344 Q21.0156,478.0469 22.6094,478.0469 Q23.5469,478.0469 24.2031,477.7969 Q24.5938,477.6406 25.0156,477.2031 Q25.2813,476.9375 25.4219,476.8594 Q25.5781,476.7813 25.7813,476.7813 Q26.1094,476.7813 26.3594,477.0469 Q26.625,477.2969 26.625,477.6406 Q26.625,477.9844 26.2813,478.3906 Q25.7813,478.9688 24.9844,479.2969 Q23.9063,479.75 22.6094,479.75 Q21.0938,479.75 19.8906,479.125 Q18.9063,478.625 18.2188,477.5625 Q17.5313,476.4844 17.5313,475.2031 L17.5313,474.0469 Q17.5313,472.7188 18.1406,471.5781 Q18.7656,470.4219 19.8594,469.8125 Q20.9531,469.1875 22.1875,469.1875 Q22.9219,469.1875 23.5625,469.3594 Q24.2188,469.5156 24.7656,469.875 Z " fill="#000000"/><text fill="#000000" font-family="sans-serif" font-size="14" lengthAdjust="spacing" textLength="131" x="36" y="479.7285">MedComCorePatient</text></g><!--MD5=[7f6a6782ff085de027a43e4e291de663]
class author--><g id="elem_author"><rect codeLine="11" fill="#F1F1F1" height="32" id="author" rx="2.5" ry="2.5" style="stroke:#181818;stroke-width:0.5;" width="191" x="157" y="678"/><ellipse cx="172" cy="694" fill="#ADD1B2" rx="11" ry="11" style="stroke:#181818;stroke-width:1.0;"/><path d="M174.7656,689.875 Q174.9219,689.6563 175.1094,689.5469 Q175.2969,689.4375 175.5156,689.4375 Q175.8906,689.4375 176.125,689.7031 Q176.3594,689.9531 176.3594,690.5625 L176.3594,692.0156 Q176.3594,692.625 176.125,692.8906 Q175.8906,693.1563 175.5156,693.1563 Q175.1719,693.1563 174.9688,692.9531 Q174.7656,692.7656 174.6563,692.25 Q174.6094,691.8906 174.4219,691.7031 Q174.0938,691.3281 173.4844,691.1094 Q172.875,690.8906 172.25,690.8906 Q171.4844,690.8906 170.8438,691.2188 Q170.2188,691.5469 169.7188,692.2969 Q169.2344,693.0469 169.2344,694.0781 L169.2344,695.1719 Q169.2344,696.4063 170.125,697.2344 Q171.0156,698.0469 172.6094,698.0469 Q173.5469,698.0469 174.2031,697.7969 Q174.5938,697.6406 175.0156,697.2031 Q175.2813,696.9375 175.4219,696.8594 Q175.5781,696.7813 175.7813,696.7813 Q176.1094,696.7813 176.3594,697.0469 Q176.625,697.2969 176.625,697.6406 Q176.625,697.9844 176.2813,698.3906 Q175.7813,698.9688 174.9844,699.2969 Q173.9063,699.75 172.6094,699.75 Q171.0938,699.75 169.8906,699.125 Q168.9063,698.625 168.2188,697.5625 Q167.5313,696.4844 167.5313,695.2031 L167.5313,694.0469 Q167.5313,692.7188 168.1406,691.5781 Q168.7656,690.4219 169.8594,689.8125 Q170.9531,689.1875 172.1875,689.1875 Q172.9219,689.1875 173.5625,689.3594 Q174.2188,689.5156 174.7656,689.875 Z " fill="#000000"/><text fill="#000000" font-family="sans-serif" font-size="14" lengthAdjust="spacing" textLength="159" x="186" y="699.7285">MedComCorePractitioner</text></g><!--MD5=[c3fd6fd70c1f956c0aa70d5a42fdf9cf]
class encounter--><g id="elem_encounter"><rect codeLine="12" fill="#F1F1F1" height="32" id="encounter" rx="2.5" ry="2.5" style="stroke:#181818;stroke-width:0.5;" width="184" x="276.5" y="458"/><ellipse cx="291.5" cy="474" fill="#ADD1B2" rx="11" ry="11" style="stroke:#181818;stroke-width:1.0;"/><path d="M294.2656,469.875 Q294.4219,469.6563 294.6094,469.5469 Q294.7969,469.4375 295.0156,469.4375 Q295.3906,469.4375 295.625,469.7031 Q295.8594,469.9531 295.8594,470.5625 L295.8594,472.0156 Q295.8594,472.625 295.625,472.8906 Q295.3906,473.1563 295.0156,473.1563 Q294.6719,473.1563 294.4688,472.9531 Q294.2656,472.7656 294.1563,472.25 Q294.1094,471.8906 293.9219,471.7031 Q293.5938,471.3281 292.9844,471.1094 Q292.375,470.8906 291.75,470.8906 Q290.9844,470.8906 290.3438,471.2188 Q289.7188,471.5469 289.2188,472.2969 Q288.7344,473.0469 288.7344,474.0781 L288.7344,475.1719 Q288.7344,476.4063 289.625,477.2344 Q290.5156,478.0469 292.1094,478.0469 Q293.0469,478.0469 293.7031,477.7969 Q294.0938,477.6406 294.5156,477.2031 Q294.7813,476.9375 294.9219,476.8594 Q295.0781,476.7813 295.2813,476.7813 Q295.6094,476.7813 295.8594,477.0469 Q296.125,477.2969 296.125,477.6406 Q296.125,477.9844 295.7813,478.3906 Q295.2813,478.9688 294.4844,479.2969 Q293.4063,479.75 292.1094,479.75 Q290.5938,479.75 289.3906,479.125 Q288.4063,478.625 287.7188,477.5625 Q287.0313,476.4844 287.0313,475.2031 L287.0313,474.0469 Q287.0313,472.7188 287.6406,471.5781 Q288.2656,470.4219 289.3594,469.8125 Q290.4531,469.1875 291.6875,469.1875 Q292.4219,469.1875 293.0625,469.3594 Q293.7188,469.5156 294.2656,469.875 Z " fill="#000000"/><text fill="#000000" font-family="sans-serif" font-size="14" lengthAdjust="spacing" textLength="152" x="305.5" y="479.7285">MedComCoreEncounter</text></g><!--MD5=[d64d5c7357c79f774106f79272da7625]
class organization--><g id="elem_organization"><rect codeLine="13" fill="#F1F1F1" height="32" id="organization" rx="2.5" ry="2.5" style="stroke:#181818;stroke-width:0.5;" width="199" x="153" y="771"/><ellipse cx="168" cy="787" fill="#ADD1B2" rx="11" ry="11" style="stroke:#181818;stroke-width:1.0;"/><path d="M170.7656,782.875 Q170.9219,782.6563 171.1094,782.5469 Q171.2969,782.4375 171.5156,782.4375 Q171.8906,782.4375 172.125,782.7031 Q172.3594,782.9531 172.3594,783.5625 L172.3594,785.0156 Q172.3594,785.625 172.125,785.8906 Q171.8906,786.1563 171.5156,786.1563 Q171.1719,786.1563 170.9688,785.9531 Q170.7656,785.7656 170.6563,785.25 Q170.6094,784.8906 170.4219,784.7031 Q170.0938,784.3281 169.4844,784.1094 Q168.875,783.8906 168.25,783.8906 Q167.4844,783.8906 166.8438,784.2188 Q166.2188,784.5469 165.7188,785.2969 Q165.2344,786.0469 165.2344,787.0781 L165.2344,788.1719 Q165.2344,789.4063 166.125,790.2344 Q167.0156,791.0469 168.6094,791.0469 Q169.5469,791.0469 170.2031,790.7969 Q170.5938,790.6406 171.0156,790.2031 Q171.2813,789.9375 171.4219,789.8594 Q171.5781,789.7813 171.7813,789.7813 Q172.1094,789.7813 172.3594,790.0469 Q172.625,790.2969 172.625,790.6406 Q172.625,790.9844 172.2813,791.3906 Q171.7813,791.9688 170.9844,792.2969 Q169.9063,792.75 168.6094,792.75 Q167.0938,792.75 165.8906,792.125 Q164.9063,791.625 164.2188,790.5625 Q163.5313,789.4844 163.5313,788.2031 L163.5313,787.0469 Q163.5313,785.7188 164.1406,784.5781 Q164.7656,783.4219 165.8594,782.8125 Q166.9531,782.1875 168.1875,782.1875 Q168.9219,782.1875 169.5625,782.3594 Q170.2188,782.5156 170.7656,782.875 Z " fill="#000000"/><text fill="#000000" font-family="sans-serif" font-size="14" lengthAdjust="spacing" textLength="167" x="182" y="792.7285">MedComCoreOrganization</text></g><!--MD5=[e983e22c3f4ba1480d19570c62e75e9c]
class diagnosticReport--><g id="elem_diagnosticReport"><rect codeLine="14" fill="#F1F1F1" height="32" id="diagnosticReport" rx="2.5" ry="2.5" style="stroke:#181818;stroke-width:0.5;" width="228" x="335.5" y="342.5"/><ellipse cx="350.5" cy="358.5" fill="#ADD1B2" rx="11" ry="11" style="stroke:#181818;stroke-width:1.0;"/><path d="M353.2656,354.375 Q353.4219,354.1563 353.6094,354.0469 Q353.7969,353.9375 354.0156,353.9375 Q354.3906,353.9375 354.625,354.2031 Q354.8594,354.4531 354.8594,355.0625 L354.8594,356.5156 Q354.8594,357.125 354.625,357.3906 Q354.3906,357.6563 354.0156,357.6563 Q353.6719,357.6563 353.4688,357.4531 Q353.2656,357.2656 353.1563,356.75 Q353.1094,356.3906 352.9219,356.2031 Q352.5938,355.8281 351.9844,355.6094 Q351.375,355.3906 350.75,355.3906 Q349.9844,355.3906 349.3438,355.7188 Q348.7188,356.0469 348.2188,356.7969 Q347.7344,357.5469 347.7344,358.5781 L347.7344,359.6719 Q347.7344,360.9063 348.625,361.7344 Q349.5156,362.5469 351.1094,362.5469 Q352.0469,362.5469 352.7031,362.2969 Q353.0938,362.1406 353.5156,361.7031 Q353.7813,361.4375 353.9219,361.3594 Q354.0781,361.2813 354.2813,361.2813 Q354.6094,361.2813 354.8594,361.5469 Q355.125,361.7969 355.125,362.1406 Q355.125,362.4844 354.7813,362.8906 Q354.2813,363.4688 353.4844,363.7969 Q352.4063,364.25 351.1094,364.25 Q349.5938,364.25 348.3906,363.625 Q347.4063,363.125 346.7188,362.0625 Q346.0313,360.9844 346.0313,359.7031 L346.0313,358.5469 Q346.0313,357.2188 346.6406,356.0781 Q347.2656,354.9219 348.3594,354.3125 Q349.4531,353.6875 350.6875,353.6875 Q351.4219,353.6875 352.0625,353.8594 Q352.7188,354.0156 353.2656,354.375 Z " fill="#000000"/><text fill="#000000" font-family="sans-serif" font-size="14" lengthAdjust="spacing" textLength="196" x="364.5" y="364.2285">MedComCoreDiagnosticReport</text></g><!--MD5=[c05ff5df3fb3713f28ed4bc47e190b7b]
class observation--><g id="elem_observation"><rect codeLine="15" fill="#F1F1F1" height="32" id="observation" rx="2.5" ry="2.5" style="stroke:#181818;stroke-width:0.5;" width="196" x="399.5" y="568"/><ellipse cx="414.5" cy="584" fill="#ADD1B2" rx="11" ry="11" style="stroke:#181818;stroke-width:1.0;"/><path d="M417.2656,579.875 Q417.4219,579.6563 417.6094,579.5469 Q417.7969,579.4375 418.0156,579.4375 Q418.3906,579.4375 418.625,579.7031 Q418.8594,579.9531 418.8594,580.5625 L418.8594,582.0156 Q418.8594,582.625 418.625,582.8906 Q418.3906,583.1563 418.0156,583.1563 Q417.6719,583.1563 417.4688,582.9531 Q417.2656,582.7656 417.1563,582.25 Q417.1094,581.8906 416.9219,581.7031 Q416.5938,581.3281 415.9844,581.1094 Q415.375,580.8906 414.75,580.8906 Q413.9844,580.8906 413.3438,581.2188 Q412.7188,581.5469 412.2188,582.2969 Q411.7344,583.0469 411.7344,584.0781 L411.7344,585.1719 Q411.7344,586.4063 412.625,587.2344 Q413.5156,588.0469 415.1094,588.0469 Q416.0469,588.0469 416.7031,587.7969 Q417.0938,587.6406 417.5156,587.2031 Q417.7813,586.9375 417.9219,586.8594 Q418.0781,586.7813 418.2813,586.7813 Q418.6094,586.7813 418.8594,587.0469 Q419.125,587.2969 419.125,587.6406 Q419.125,587.9844 418.7813,588.3906 Q418.2813,588.9688 417.4844,589.2969 Q416.4063,589.75 415.1094,589.75 Q413.5938,589.75 412.3906,589.125 Q411.4063,588.625 410.7188,587.5625 Q410.0313,586.4844 410.0313,585.2031 L410.0313,584.0469 Q410.0313,582.7188 410.6406,581.5781 Q411.2656,580.4219 412.3594,579.8125 Q413.4531,579.1875 414.6875,579.1875 Q415.4219,579.1875 416.0625,579.3594 Q416.7188,579.5156 417.2656,579.875 Z " fill="#000000"/><text fill="#000000" font-family="sans-serif" font-size="14" lengthAdjust="spacing" textLength="164" x="428.5" y="589.7285">MedComCoreObservation</text></g><!--MD5=[c91ebbe0b2d41735a0ed4adc68e69b10]
class specimen--><g id="elem_specimen"><rect codeLine="16" fill="#F1F1F1" height="32" id="specimen" rx="2.5" ry="2.5" style="stroke:#181818;stroke-width:0.5;" width="181" x="600" y="458"/><ellipse cx="615" cy="474" fill="#ADD1B2" rx="11" ry="11" style="stroke:#181818;stroke-width:1.0;"/><path d="M617.7656,469.875 Q617.9219,469.6563 618.1094,469.5469 Q618.2969,469.4375 618.5156,469.4375 Q618.8906,469.4375 619.125,469.7031 Q619.3594,469.9531 619.3594,470.5625 L619.3594,472.0156 Q619.3594,472.625 619.125,472.8906 Q618.8906,473.1563 618.5156,473.1563 Q618.1719,473.1563 617.9688,472.9531 Q617.7656,472.7656 617.6563,472.25 Q617.6094,471.8906 617.4219,471.7031 Q617.0938,471.3281 616.4844,471.1094 Q615.875,470.8906 615.25,470.8906 Q614.4844,470.8906 613.8438,471.2188 Q613.2188,471.5469 612.7188,472.2969 Q612.2344,473.0469 612.2344,474.0781 L612.2344,475.1719 Q612.2344,476.4063 613.125,477.2344 Q614.0156,478.0469 615.6094,478.0469 Q616.5469,478.0469 617.2031,477.7969 Q617.5938,477.6406 618.0156,477.2031 Q618.2813,476.9375 618.4219,476.8594 Q618.5781,476.7813 618.7813,476.7813 Q619.1094,476.7813 619.3594,477.0469 Q619.625,477.2969 619.625,477.6406 Q619.625,477.9844 619.2813,478.3906 Q618.7813,478.9688 617.9844,479.2969 Q616.9063,479.75 615.6094,479.75 Q614.0938,479.75 612.8906,479.125 Q611.9063,478.625 611.2188,477.5625 Q610.5313,476.4844 610.5313,475.2031 L610.5313,474.0469 Q610.5313,472.7188 611.1406,471.5781 Q611.7656,470.4219 612.8594,469.8125 Q613.9531,469.1875 615.1875,469.1875 Q615.9219,469.1875 616.5625,469.3594 Q617.2188,469.5156 617.7656,469.875 Z " fill="#000000"/><text fill="#000000" font-family="sans-serif" font-size="14" lengthAdjust="spacing" textLength="149" x="629" y="479.7285">MedComCoreSpecimen</text></g><!--MD5=[a5a5f50e5baa082c6d6a6b9d08e9d243]
class substance--><g id="elem_substance"><rect codeLine="17" fill="#F1F1F1" height="32" id="substance" rx="2.5" ry="2.5" style="stroke:#181818;stroke-width:0.5;" width="183" x="631" y="568"/><ellipse cx="646" cy="584" fill="#ADD1B2" rx="11" ry="11" style="stroke:#181818;stroke-width:1.0;"/><path d="M648.7656,579.875 Q648.9219,579.6563 649.1094,579.5469 Q649.2969,579.4375 649.5156,579.4375 Q649.8906,579.4375 650.125,579.7031 Q650.3594,579.9531 650.3594,580.5625 L650.3594,582.0156 Q650.3594,582.625 650.125,582.8906 Q649.8906,583.1563 649.5156,583.1563 Q649.1719,583.1563 648.9688,582.9531 Q648.7656,582.7656 648.6563,582.25 Q648.6094,581.8906 648.4219,581.7031 Q648.0938,581.3281 647.4844,581.1094 Q646.875,580.8906 646.25,580.8906 Q645.4844,580.8906 644.8438,581.2188 Q644.2188,581.5469 643.7188,582.2969 Q643.2344,583.0469 643.2344,584.0781 L643.2344,585.1719 Q643.2344,586.4063 644.125,587.2344 Q645.0156,588.0469 646.6094,588.0469 Q647.5469,588.0469 648.2031,587.7969 Q648.5938,587.6406 649.0156,587.2031 Q649.2813,586.9375 649.4219,586.8594 Q649.5781,586.7813 649.7813,586.7813 Q650.1094,586.7813 650.3594,587.0469 Q650.625,587.2969 650.625,587.6406 Q650.625,587.9844 650.2813,588.3906 Q649.7813,588.9688 648.9844,589.2969 Q647.9063,589.75 646.6094,589.75 Q645.0938,589.75 643.8906,589.125 Q642.9063,588.625 642.2188,587.5625 Q641.5313,586.4844 641.5313,585.2031 L641.5313,584.0469 Q641.5313,582.7188 642.1406,581.5781 Q642.7656,580.4219 643.8594,579.8125 Q644.9531,579.1875 646.1875,579.1875 Q646.9219,579.1875 647.5625,579.3594 Q648.2188,579.5156 648.7656,579.875 Z " fill="#000000"/><text fill="#000000" font-family="sans-serif" font-size="14" lengthAdjust="spacing" textLength="151" x="660" y="589.7285">MedcomCoreSubstance</text></g><!--MD5=[0dbbe5e9e04a32a61f4c8be5c884f575]
class request--><g id="elem_request"><rect codeLine="18" fill="#F1F1F1" height="32" id="request" rx="2.5" ry="2.5" style="stroke:#181818;stroke-width:0.5;" width="219" x="816" y="458"/><ellipse cx="831" cy="474" fill="#ADD1B2" rx="11" ry="11" style="stroke:#181818;stroke-width:1.0;"/><path d="M833.7656,469.875 Q833.9219,469.6563 834.1094,469.5469 Q834.2969,469.4375 834.5156,469.4375 Q834.8906,469.4375 835.125,469.7031 Q835.3594,469.9531 835.3594,470.5625 L835.3594,472.0156 Q835.3594,472.625 835.125,472.8906 Q834.8906,473.1563 834.5156,473.1563 Q834.1719,473.1563 833.9688,472.9531 Q833.7656,472.7656 833.6563,472.25 Q833.6094,471.8906 833.4219,471.7031 Q833.0938,471.3281 832.4844,471.1094 Q831.875,470.8906 831.25,470.8906 Q830.4844,470.8906 829.8438,471.2188 Q829.2188,471.5469 828.7188,472.2969 Q828.2344,473.0469 828.2344,474.0781 L828.2344,475.1719 Q828.2344,476.4063 829.125,477.2344 Q830.0156,478.0469 831.6094,478.0469 Q832.5469,478.0469 833.2031,477.7969 Q833.5938,477.6406 834.0156,477.2031 Q834.2813,476.9375 834.4219,476.8594 Q834.5781,476.7813 834.7813,476.7813 Q835.1094,476.7813 835.3594,477.0469 Q835.625,477.2969 835.625,477.6406 Q835.625,477.9844 835.2813,478.3906 Q834.7813,478.9688 833.9844,479.2969 Q832.9063,479.75 831.6094,479.75 Q830.0938,479.75 828.8906,479.125 Q827.9063,478.625 827.2188,477.5625 Q826.5313,476.4844 826.5313,475.2031 L826.5313,474.0469 Q826.5313,472.7188 827.1406,471.5781 Q827.7656,470.4219 828.8594,469.8125 Q829.9531,469.1875 831.1875,469.1875 Q831.9219,469.1875 832.5625,469.3594 Q833.2188,469.5156 833.7656,469.875 Z " fill="#000000"/><text fill="#000000" font-family="sans-serif" font-size="14" lengthAdjust="spacing" textLength="187" x="845" y="479.7285">MedComCoreServiceRequest</text></g><!--MD5=[81a74f5327845c2ce954842e4f46c391]
link message to messageheader--><g id="link_message_messageheader"><path codeLine="21" d="M580.46,39.33 C575.12,79.45 560.79,187.2 555.5,226.98 " fill="none" id="message-messageheader" style="stroke:#181818;stroke-width:1.0;"/><text fill="#000000" font-family="sans-serif" font-size="13" lengthAdjust="spacing" textLength="29" x="571.5" y="138.4951">entry</text></g><!--MD5=[e1e9985a6f350ec0650597362e14de10]
link messageheader to diagnosticReport--><g id="link_messageheader_diagnosticReport"><path codeLine="22" d="M539.06,259.36 C530.93,268.03 520.61,279.09 511.5,289 C494.68,307.31 475.5,328.56 462.98,342.47 " fill="none" id="messageheader-diagnosticReport" style="stroke:#181818;stroke-width:1.0;"/><text fill="#000000" font-family="sans-serif" font-size="13" lengthAdjust="spacing" textLength="31" x="512.5" y="303.4951">focus</text></g><!--MD5=[3693126f5e4882afa6398591cd5ccdc9]
link diagnosticReport to patient--><g id="link_diagnosticReport_patient"><path codeLine="23" d="M335.24,363.12 C278.1,368.78 209.41,381.64 153.5,410 C131.07,421.37 111.29,443.14 99.61,457.86 " fill="none" id="diagnosticReport-patient" style="stroke:#181818;stroke-width:1.0;"/><text fill="#000000" font-family="sans-serif" font-size="13" lengthAdjust="spacing" textLength="42" x="154.5" y="424.4951">subject</text></g><!--MD5=[81f298224060e516a9ea14ff98c71ca4]
link message to provenance--><g id="link_message_provenance"><path codeLine="24" d="M603.77,39.02 C632.84,59.53 684.68,96.13 713.91,116.76 " fill="none" id="message-provenance" style="stroke:#181818;stroke-width:1.0;"/><text fill="#000000" font-family="sans-serif" font-size="13" lengthAdjust="spacing" textLength="29" x="669.5" y="83.4951">entry</text></g><!--MD5=[1aa5b919a36df47450e1a6a7cdb64b45]
link provenance to messageheader--><g id="link_provenance_messageheader"><path codeLine="25" d="M710.19,149.02 C675.52,169.59 613.6,206.34 578.88,226.94 " fill="none" id="provenance-messageheader" style="stroke:#181818;stroke-width:1.0;"/><text fill="#000000" font-family="sans-serif" font-size="13" lengthAdjust="spacing" textLength="33" x="656.5" y="193.4951">target</text></g><!--MD5=[f47a36da2de5ae8806a1be3932325292]
link provenance to messagingOrganization--><g id="link_provenance_messagingOrganization"><path codeLine="26" d="M734.22,149.01 C730.91,187.97 722.04,292.34 718.25,336.89 " fill="none" id="provenance-messagingOrganization" style="stroke:#181818;stroke-width:1.0;"/><text fill="#000000" font-family="sans-serif" font-size="13" lengthAdjust="spacing" textLength="59" x="728.5" y="248.4951">agent.who</text></g><!--MD5=[6b8f7a38384e46a974f5f1541fc4993c]
link diagnosticReport to encounter--><g id="link_diagnosticReport_encounter"><path codeLine="27" d="M438.58,374.81 C423.03,396.59 394.7,436.29 379.25,457.94 " fill="none" id="diagnosticReport-encounter" style="stroke:#181818;stroke-width:1.0;"/><text fill="#000000" font-family="sans-serif" font-size="13" lengthAdjust="spacing" textLength="57" x="412.5" y="424.4951">encounter</text></g><!--MD5=[b6606329a1406e175d982d3f1262b76d]
link diagnosticReport to request--><g id="link_diagnosticReport_request"><path codeLine="28" d="M512.71,374.57 C603.88,396.31 771.31,436.23 862.41,457.96 " fill="none" id="diagnosticReport-request" style="stroke:#181818;stroke-width:1.0;"/><text fill="#000000" font-family="sans-serif" font-size="13" lengthAdjust="spacing" textLength="43" x="730.5" y="424.4951">request</text></g><!--MD5=[3e74bcfe223db57f3ef2fc1f1a52bdc5]
link diagnosticReport to observation--><g id="link_diagnosticReport_observation"><path codeLine="29" d="M460.41,374.64 C466.78,384.28 474.36,397.31 478.5,410 C496.77,466.01 498.23,537.07 497.89,567.75 " fill="none" id="diagnosticReport-observation" style="stroke:#181818;stroke-width:1.0;"/><text fill="#000000" font-family="sans-serif" font-size="13" lengthAdjust="spacing" textLength="32" x="495.5" y="479.4951">result</text></g><!--MD5=[487daa4d74fa9bdcc637c260641b3742]
link diagnosticReport to specimen--><g id="link_diagnosticReport_specimen"><path codeLine="30" d="M481.5,374.57 C527.6,396.28 612.2,436.12 658.36,457.87 " fill="none" id="diagnosticReport-specimen" style="stroke:#181818;stroke-width:1.0;"/><text fill="#000000" font-family="sans-serif" font-size="13" lengthAdjust="spacing" textLength="56" x="593.5" y="424.4951">specimen</text></g><!--MD5=[160b29e8b549b3d753d6f83ecc2e6512]
link diagnosticReport to author--><g id="link_diagnosticReport_author"><path codeLine="31" d="M384.48,374.59 C340.77,388.44 286.25,413.75 258.5,458 C213.84,529.23 237.17,637.99 247.99,677.76 " fill="none" id="diagnosticReport-author" style="stroke:#181818;stroke-width:1.0;"/><text fill="#000000" font-family="sans-serif" font-size="13" lengthAdjust="spacing" textLength="54" x="237.5" y="534.4951">performer</text></g><!--MD5=[c098eccc47d3ad087c742d4fdca29be0]
link specimen to substance--><g id="link_specimen_substance"><path codeLine="32" d="M694.95,490.02 C701.03,510.53 711.87,547.13 717.99,567.76 " fill="none" id="specimen-substance" style="stroke:#181818;stroke-width:1.0;"/></g><!--MD5=[819c75aac08fb6c7b89deb8369687b5e]
link specimen to observation--><g id="link_specimen_observation"><path codeLine="33" d="M663.66,490.02 C626.89,510.59 561.23,547.34 524.42,567.94 " fill="none" id="specimen-observation" style="stroke:#181818;stroke-width:1.0;"/></g><!--MD5=[feac0396b03ded7753816d974a96aad9]
link observation to author--><g id="link_observation_author"><path codeLine="34" d="M463.43,600.02 C416.76,620.59 333.4,657.34 286.67,677.94 " fill="none" id="observation-author" style="stroke:#181818;stroke-width:1.0;"/><text fill="#000000" font-family="sans-serif" font-size="13" lengthAdjust="spacing" textLength="54" x="391.5" y="644.4951">performer</text></g><!--MD5=[5cdf05f3f77df2dea8a1670fe50d67cb]
link author to organization--><g id="link_author_organization"><path codeLine="35" d="M252.5,710.03 C252.5,726.89 252.5,754.08 252.5,770.95 " fill="none" id="author-organization" style="stroke:#181818;stroke-width:1.0;"/></g><!--MD5=[7068c6a302bec6a421fbf6e526f1486a]
link messageheader to messagingOrganization--><g id="link_messageheader_messagingOrganization"><path codeLine="36" d="M585.16,259.17 C601.04,267.27 620.29,277.85 636.5,289 C657.59,303.51 679.54,322.63 695.1,336.99 " fill="none" id="messageheader-messagingOrganization" style="stroke:#181818;stroke-width:1.0;"/><text fill="#000000" font-family="sans-serif" font-size="13" lengthAdjust="spacing" textLength="44" x="661.5" y="303.4951">receiver</text></g><!--MD5=[7068c6a302bec6a421fbf6e526f1486a]
link messageheader to messagingOrganization--><g id="link_messageheader_messagingOrganization"><path codeLine="37" d="M558.27,259.18 C563.41,273.3 572.89,294.07 587.5,307 C602,319.83 620.13,329.59 638.19,336.93 " fill="none" id="messageheader-messagingOrganization-1" style="stroke:#181818;stroke-width:1.0;"/><text fill="#000000" font-family="sans-serif" font-size="13" lengthAdjust="spacing" textLength="39" x="588.5" y="303.4951">sender</text></g><!--MD5=[949b2a8be9fecc8f50820c563f295a5b]
@startuml HomeCareObservation

hide empty members

top to bottom direction

class "MedComMessagingMessage" as message
class "MedComMessagingMessageHeader" as messageheader
class "MedComMessagingProvenance" as provenance
class "MedComMessagingOrganization" as messagingOrganization <<MedComCoreOrganization>>
class "MedComCorePatient" as patient
class "MedComCorePractitioner" as author
class "MedComCoreEncounter" as encounter
class "MedComCoreOrganization" as organization
class "MedComCoreDiagnosticReport" as diagnosticReport
class "MedComCoreObservation" as observation
class "MedComCoreSpecimen" as specimen 
class "MedcomCoreSubstance" as substance
class "MedComCoreServiceRequest" as request


message - - messageheader : "entry"
messageheader - - diagnosticReport : "focus"
diagnosticReport - - patient : "subject"
message - - provenance : "entry"
provenance - - messageheader : "target" 
provenance - - messagingOrganization : "agent.who"
diagnosticReport - - encounter : "encounter"
diagnosticReport - - request: "request"
diagnosticReport - - observation : "result"
diagnosticReport - - specimen : "specimen"
diagnosticReport - - author: "performer"
specimen - - substance
specimen - -observation
observation - - author:"performer"
author - - organization
messageheader - - messagingOrganization : "receiver"
messageheader - - messagingOrganization : "sender"

@enduml

PlantUML version 1.2022.7(Mon Aug 22 19:01:30 CEST 2022)
(GPL source distribution)
Java Runtime: Java(TM) SE Runtime Environment
JVM: Java HotSpot(TM) 64-Bit Server VM
Default Encoding: Cp1252
Language: da
Country: DK
--></g></svg>