<?xml version="1.0" encoding="UTF-8" standalone="no"?><svg xmlns="http://www.w3.org/2000/svg" xmlns:xlink="http://www.w3.org/1999/xlink" contentStyleType="text/css" height="359px" preserveAspectRatio="none" style="width:734px;height:359px;background:#FFFFFF;" version="1.1" viewBox="0 0 734 359" width="734px" zoomAndPan="magnify"><defs/><g><!--MD5=[86fcfc7a3ddeef2443f03e9b03bcacd4]
class patient--><g id="elem_patient"><rect codeLine="10" fill="#F1F1F1" height="32" id="patient" rx="2.5" ry="2.5" style="stroke:#181818;stroke-width:0.5;" width="163" x="7" y="117"/><ellipse cx="22" cy="133" fill="#ADD1B2" rx="11" ry="11" style="stroke:#181818;stroke-width:1.0;"/><path d="M24.7656,128.875 Q24.9219,128.6563 25.1094,128.5469 Q25.2969,128.4375 25.5156,128.4375 Q25.8906,128.4375 26.125,128.7031 Q26.3594,128.9531 26.3594,129.5625 L26.3594,131.0156 Q26.3594,131.625 26.125,131.8906 Q25.8906,132.1563 25.5156,132.1563 Q25.1719,132.1563 24.9688,131.9531 Q24.7656,131.7656 24.6563,131.25 Q24.6094,130.8906 24.4219,130.7031 Q24.0938,130.3281 23.4844,130.1094 Q22.875,129.8906 22.25,129.8906 Q21.4844,129.8906 20.8438,130.2188 Q20.2188,130.5469 19.7188,131.2969 Q19.2344,132.0469 19.2344,133.0781 L19.2344,134.1719 Q19.2344,135.4063 20.125,136.2344 Q21.0156,137.0469 22.6094,137.0469 Q23.5469,137.0469 24.2031,136.7969 Q24.5938,136.6406 25.0156,136.2031 Q25.2813,135.9375 25.4219,135.8594 Q25.5781,135.7813 25.7813,135.7813 Q26.1094,135.7813 26.3594,136.0469 Q26.625,136.2969 26.625,136.6406 Q26.625,136.9844 26.2813,137.3906 Q25.7813,137.9688 24.9844,138.2969 Q23.9063,138.75 22.6094,138.75 Q21.0938,138.75 19.8906,138.125 Q18.9063,137.625 18.2188,136.5625 Q17.5313,135.4844 17.5313,134.2031 L17.5313,133.0469 Q17.5313,131.7188 18.1406,130.5781 Q18.7656,129.4219 19.8594,128.8125 Q20.9531,128.1875 22.1875,128.1875 Q22.9219,128.1875 23.5625,128.3594 Q24.2188,128.5156 24.7656,128.875 Z " fill="#000000"/><text fill="#000000" font-family="sans-serif" font-size="14" lengthAdjust="spacing" textLength="131" x="36" y="138.7285">MedComCorePatient</text></g><!--MD5=[1e18ff59f8b0bab746d9afa6463e196b]
class performer--><g id="elem_performer"><rect codeLine="11" fill="#F1F1F1" height="32" id="performer" rx="2.5" ry="2.5" style="stroke:#181818;stroke-width:0.5;" width="191" x="425" y="7"/><ellipse cx="440" cy="23" fill="#ADD1B2" rx="11" ry="11" style="stroke:#181818;stroke-width:1.0;"/><path d="M442.7656,18.875 Q442.9219,18.6563 443.1094,18.5469 Q443.2969,18.4375 443.5156,18.4375 Q443.8906,18.4375 444.125,18.7031 Q444.3594,18.9531 444.3594,19.5625 L444.3594,21.0156 Q444.3594,21.625 444.125,21.8906 Q443.8906,22.1563 443.5156,22.1563 Q443.1719,22.1563 442.9688,21.9531 Q442.7656,21.7656 442.6563,21.25 Q442.6094,20.8906 442.4219,20.7031 Q442.0938,20.3281 441.4844,20.1094 Q440.875,19.8906 440.25,19.8906 Q439.4844,19.8906 438.8438,20.2188 Q438.2188,20.5469 437.7188,21.2969 Q437.2344,22.0469 437.2344,23.0781 L437.2344,24.1719 Q437.2344,25.4063 438.125,26.2344 Q439.0156,27.0469 440.6094,27.0469 Q441.5469,27.0469 442.2031,26.7969 Q442.5938,26.6406 443.0156,26.2031 Q443.2813,25.9375 443.4219,25.8594 Q443.5781,25.7813 443.7813,25.7813 Q444.1094,25.7813 444.3594,26.0469 Q444.625,26.2969 444.625,26.6406 Q444.625,26.9844 444.2813,27.3906 Q443.7813,27.9688 442.9844,28.2969 Q441.9063,28.75 440.6094,28.75 Q439.0938,28.75 437.8906,28.125 Q436.9063,27.625 436.2188,26.5625 Q435.5313,25.4844 435.5313,24.2031 L435.5313,23.0469 Q435.5313,21.7188 436.1406,20.5781 Q436.7656,19.4219 437.8594,18.8125 Q438.9531,18.1875 440.1875,18.1875 Q440.9219,18.1875 441.5625,18.3594 Q442.2188,18.5156 442.7656,18.875 Z " fill="#000000"/><text fill="#000000" font-family="sans-serif" font-size="14" lengthAdjust="spacing" textLength="159" x="454" y="28.7285">MedComCorePractitioner</text></g><!--MD5=[d64d5c7357c79f774106f79272da7625]
class organization--><g id="elem_organization"><rect codeLine="12" fill="#F1F1F1" height="32" id="organization" rx="2.5" ry="2.5" style="stroke:#181818;stroke-width:0.5;" width="199" x="144" y="320"/><ellipse cx="159" cy="336" fill="#ADD1B2" rx="11" ry="11" style="stroke:#181818;stroke-width:1.0;"/><path d="M161.7656,331.875 Q161.9219,331.6563 162.1094,331.5469 Q162.2969,331.4375 162.5156,331.4375 Q162.8906,331.4375 163.125,331.7031 Q163.3594,331.9531 163.3594,332.5625 L163.3594,334.0156 Q163.3594,334.625 163.125,334.8906 Q162.8906,335.1563 162.5156,335.1563 Q162.1719,335.1563 161.9688,334.9531 Q161.7656,334.7656 161.6563,334.25 Q161.6094,333.8906 161.4219,333.7031 Q161.0938,333.3281 160.4844,333.1094 Q159.875,332.8906 159.25,332.8906 Q158.4844,332.8906 157.8438,333.2188 Q157.2188,333.5469 156.7188,334.2969 Q156.2344,335.0469 156.2344,336.0781 L156.2344,337.1719 Q156.2344,338.4063 157.125,339.2344 Q158.0156,340.0469 159.6094,340.0469 Q160.5469,340.0469 161.2031,339.7969 Q161.5938,339.6406 162.0156,339.2031 Q162.2813,338.9375 162.4219,338.8594 Q162.5781,338.7813 162.7813,338.7813 Q163.1094,338.7813 163.3594,339.0469 Q163.625,339.2969 163.625,339.6406 Q163.625,339.9844 163.2813,340.3906 Q162.7813,340.9688 161.9844,341.2969 Q160.9063,341.75 159.6094,341.75 Q158.0938,341.75 156.8906,341.125 Q155.9063,340.625 155.2188,339.5625 Q154.5313,338.4844 154.5313,337.2031 L154.5313,336.0469 Q154.5313,334.7188 155.1406,333.5781 Q155.7656,332.4219 156.8594,331.8125 Q157.9531,331.1875 159.1875,331.1875 Q159.9219,331.1875 160.5625,331.3594 Q161.2188,331.5156 161.7656,331.875 Z " fill="#000000"/><text fill="#000000" font-family="sans-serif" font-size="14" lengthAdjust="spacing" textLength="167" x="173" y="341.7285">MedComCoreOrganization</text></g><!--MD5=[e983e22c3f4ba1480d19570c62e75e9c]
class diagnosticReport--><g id="elem_diagnosticReport"><rect codeLine="13" fill="#F1F1F1" height="32" id="diagnosticReport" rx="2.5" ry="2.5" style="stroke:#181818;stroke-width:0.5;" width="228" x="161.5" y="7"/><ellipse cx="176.5" cy="23" fill="#ADD1B2" rx="11" ry="11" style="stroke:#181818;stroke-width:1.0;"/><path d="M179.2656,18.875 Q179.4219,18.6563 179.6094,18.5469 Q179.7969,18.4375 180.0156,18.4375 Q180.3906,18.4375 180.625,18.7031 Q180.8594,18.9531 180.8594,19.5625 L180.8594,21.0156 Q180.8594,21.625 180.625,21.8906 Q180.3906,22.1563 180.0156,22.1563 Q179.6719,22.1563 179.4688,21.9531 Q179.2656,21.7656 179.1563,21.25 Q179.1094,20.8906 178.9219,20.7031 Q178.5938,20.3281 177.9844,20.1094 Q177.375,19.8906 176.75,19.8906 Q175.9844,19.8906 175.3438,20.2188 Q174.7188,20.5469 174.2188,21.2969 Q173.7344,22.0469 173.7344,23.0781 L173.7344,24.1719 Q173.7344,25.4063 174.625,26.2344 Q175.5156,27.0469 177.1094,27.0469 Q178.0469,27.0469 178.7031,26.7969 Q179.0938,26.6406 179.5156,26.2031 Q179.7813,25.9375 179.9219,25.8594 Q180.0781,25.7813 180.2813,25.7813 Q180.6094,25.7813 180.8594,26.0469 Q181.125,26.2969 181.125,26.6406 Q181.125,26.9844 180.7813,27.3906 Q180.2813,27.9688 179.4844,28.2969 Q178.4063,28.75 177.1094,28.75 Q175.5938,28.75 174.3906,28.125 Q173.4063,27.625 172.7188,26.5625 Q172.0313,25.4844 172.0313,24.2031 L172.0313,23.0469 Q172.0313,21.7188 172.6406,20.5781 Q173.2656,19.4219 174.3594,18.8125 Q175.4531,18.1875 176.6875,18.1875 Q177.4219,18.1875 178.0625,18.3594 Q178.7188,18.5156 179.2656,18.875 Z " fill="#000000"/><text fill="#000000" font-family="sans-serif" font-size="14" lengthAdjust="spacing" textLength="196" x="190.5" y="28.7285">MedComCoreDiagnosticReport</text></g><!--MD5=[c05ff5df3fb3713f28ed4bc47e190b7b]
class observation--><g id="elem_observation"><rect codeLine="14" fill="#F1F1F1" height="32" id="observation" rx="2.5" ry="2.5" style="stroke:#181818;stroke-width:0.5;" width="196" x="276.5" y="117"/><ellipse cx="291.5" cy="133" fill="#ADD1B2" rx="11" ry="11" style="stroke:#181818;stroke-width:1.0;"/><path d="M294.2656,128.875 Q294.4219,128.6563 294.6094,128.5469 Q294.7969,128.4375 295.0156,128.4375 Q295.3906,128.4375 295.625,128.7031 Q295.8594,128.9531 295.8594,129.5625 L295.8594,131.0156 Q295.8594,131.625 295.625,131.8906 Q295.3906,132.1563 295.0156,132.1563 Q294.6719,132.1563 294.4688,131.9531 Q294.2656,131.7656 294.1563,131.25 Q294.1094,130.8906 293.9219,130.7031 Q293.5938,130.3281 292.9844,130.1094 Q292.375,129.8906 291.75,129.8906 Q290.9844,129.8906 290.3438,130.2188 Q289.7188,130.5469 289.2188,131.2969 Q288.7344,132.0469 288.7344,133.0781 L288.7344,134.1719 Q288.7344,135.4063 289.625,136.2344 Q290.5156,137.0469 292.1094,137.0469 Q293.0469,137.0469 293.7031,136.7969 Q294.0938,136.6406 294.5156,136.2031 Q294.7813,135.9375 294.9219,135.8594 Q295.0781,135.7813 295.2813,135.7813 Q295.6094,135.7813 295.8594,136.0469 Q296.125,136.2969 296.125,136.6406 Q296.125,136.9844 295.7813,137.3906 Q295.2813,137.9688 294.4844,138.2969 Q293.4063,138.75 292.1094,138.75 Q290.5938,138.75 289.3906,138.125 Q288.4063,137.625 287.7188,136.5625 Q287.0313,135.4844 287.0313,134.2031 L287.0313,133.0469 Q287.0313,131.7188 287.6406,130.5781 Q288.2656,129.4219 289.3594,128.8125 Q290.4531,128.1875 291.6875,128.1875 Q292.4219,128.1875 293.0625,128.3594 Q293.7188,128.5156 294.2656,128.875 Z " fill="#000000"/><text fill="#000000" font-family="sans-serif" font-size="14" lengthAdjust="spacing" textLength="164" x="305.5" y="138.7285">MedComCoreObservation</text></g><!--MD5=[0dbbe5e9e04a32a61f4c8be5c884f575]
class request--><g id="elem_request"><rect codeLine="15" fill="#F1F1F1" height="32" id="request" rx="2.5" ry="2.5" style="stroke:#181818;stroke-width:0.5;" width="219" x="508" y="117"/><ellipse cx="523" cy="133" fill="#ADD1B2" rx="11" ry="11" style="stroke:#181818;stroke-width:1.0;"/><path d="M525.7656,128.875 Q525.9219,128.6563 526.1094,128.5469 Q526.2969,128.4375 526.5156,128.4375 Q526.8906,128.4375 527.125,128.7031 Q527.3594,128.9531 527.3594,129.5625 L527.3594,131.0156 Q527.3594,131.625 527.125,131.8906 Q526.8906,132.1563 526.5156,132.1563 Q526.1719,132.1563 525.9688,131.9531 Q525.7656,131.7656 525.6563,131.25 Q525.6094,130.8906 525.4219,130.7031 Q525.0938,130.3281 524.4844,130.1094 Q523.875,129.8906 523.25,129.8906 Q522.4844,129.8906 521.8438,130.2188 Q521.2188,130.5469 520.7188,131.2969 Q520.2344,132.0469 520.2344,133.0781 L520.2344,134.1719 Q520.2344,135.4063 521.125,136.2344 Q522.0156,137.0469 523.6094,137.0469 Q524.5469,137.0469 525.2031,136.7969 Q525.5938,136.6406 526.0156,136.2031 Q526.2813,135.9375 526.4219,135.8594 Q526.5781,135.7813 526.7813,135.7813 Q527.1094,135.7813 527.3594,136.0469 Q527.625,136.2969 527.625,136.6406 Q527.625,136.9844 527.2813,137.3906 Q526.7813,137.9688 525.9844,138.2969 Q524.9063,138.75 523.6094,138.75 Q522.0938,138.75 520.8906,138.125 Q519.9063,137.625 519.2188,136.5625 Q518.5313,135.4844 518.5313,134.2031 L518.5313,133.0469 Q518.5313,131.7188 519.1406,130.5781 Q519.7656,129.4219 520.8594,128.8125 Q521.9531,128.1875 523.1875,128.1875 Q523.9219,128.1875 524.5625,128.3594 Q525.2188,128.5156 525.7656,128.875 Z " fill="#000000"/><text fill="#000000" font-family="sans-serif" font-size="14" lengthAdjust="spacing" textLength="187" x="537" y="138.7285">MedComCoreServiceRequest</text></g><!--MD5=[7f6a6782ff085de027a43e4e291de663]
class author--><g id="elem_author"><rect fill="#F1F1F1" height="32" id="author" rx="2.5" ry="2.5" style="stroke:#181818;stroke-width:0.5;" width="73" x="293" y="227"/><ellipse cx="308" cy="243" fill="#ADD1B2" rx="11" ry="11" style="stroke:#181818;stroke-width:1.0;"/><path d="M310.7656,238.875 Q310.9219,238.6563 311.1094,238.5469 Q311.2969,238.4375 311.5156,238.4375 Q311.8906,238.4375 312.125,238.7031 Q312.3594,238.9531 312.3594,239.5625 L312.3594,241.0156 Q312.3594,241.625 312.125,241.8906 Q311.8906,242.1563 311.5156,242.1563 Q311.1719,242.1563 310.9688,241.9531 Q310.7656,241.7656 310.6563,241.25 Q310.6094,240.8906 310.4219,240.7031 Q310.0938,240.3281 309.4844,240.1094 Q308.875,239.8906 308.25,239.8906 Q307.4844,239.8906 306.8438,240.2188 Q306.2188,240.5469 305.7188,241.2969 Q305.2344,242.0469 305.2344,243.0781 L305.2344,244.1719 Q305.2344,245.4063 306.125,246.2344 Q307.0156,247.0469 308.6094,247.0469 Q309.5469,247.0469 310.2031,246.7969 Q310.5938,246.6406 311.0156,246.2031 Q311.2813,245.9375 311.4219,245.8594 Q311.5781,245.7813 311.7813,245.7813 Q312.1094,245.7813 312.3594,246.0469 Q312.625,246.2969 312.625,246.6406 Q312.625,246.9844 312.2813,247.3906 Q311.7813,247.9688 310.9844,248.2969 Q309.9063,248.75 308.6094,248.75 Q307.0938,248.75 305.8906,248.125 Q304.9063,247.625 304.2188,246.5625 Q303.5313,245.4844 303.5313,244.2031 L303.5313,243.0469 Q303.5313,241.7188 304.1406,240.5781 Q304.7656,239.4219 305.8594,238.8125 Q306.9531,238.1875 308.1875,238.1875 Q308.9219,238.1875 309.5625,238.3594 Q310.2188,238.5156 310.7656,238.875 Z " fill="#000000"/><text fill="#000000" font-family="sans-serif" font-size="14" lengthAdjust="spacing" textLength="41" x="322" y="248.7285">author</text></g><!--MD5=[b6606329a1406e175d982d3f1262b76d]
link diagnosticReport to request--><g id="link_diagnosticReport_request"><path codeLine="19" d="M323.05,39.02 C388.21,59.59 504.57,96.34 569.8,116.94 " fill="none" id="diagnosticReport-request" style="stroke:#181818;stroke-width:1.0;"/><text fill="#000000" font-family="sans-serif" font-size="13" lengthAdjust="spacing" textLength="43" x="468.5" y="83.4951">request</text></g><!--MD5=[3e74bcfe223db57f3ef2fc1f1a52bdc5]
link diagnosticReport to observation--><g id="link_diagnosticReport_observation"><path codeLine="20" d="M289.27,39.02 C308.07,59.53 341.62,96.13 360.53,116.76 " fill="none" id="diagnosticReport-observation" style="stroke:#181818;stroke-width:1.0;"/><text fill="#000000" font-family="sans-serif" font-size="13" lengthAdjust="spacing" textLength="32" x="332.5" y="83.4951">result</text></g><!--MD5=[47496e079e743b6704f8ffb47327a521]
link diagnosticReport to organization--><g id="link_diagnosticReport_organization"><path codeLine="21" d="M272.21,39.06 C268.33,57.39 261.97,89.31 258.5,117 C248.99,192.85 245.16,284.35 243.96,319.88 " fill="none" id="diagnosticReport-organization" style="stroke:#181818;stroke-width:1.0;"/><text fill="#000000" font-family="sans-serif" font-size="13" lengthAdjust="spacing" textLength="54" x="253.5" y="193.4951">performer</text></g><!--MD5=[3693126f5e4882afa6398591cd5ccdc9]
link diagnosticReport to patient--><g id="link_diagnosticReport_patient"><path codeLine="22" d="M220.1,39.02 C198.38,46.26 173.85,56.2 153.5,69 C132.62,82.14 112.9,102.86 100.77,116.92 " fill="none" id="diagnosticReport-patient" style="stroke:#181818;stroke-width:1.0;"/><text fill="#000000" font-family="sans-serif" font-size="13" lengthAdjust="spacing" textLength="42" x="154.5" y="83.4951">subject</text></g><!--MD5=[feac0396b03ded7753816d974a96aad9]
link observation to author--><g id="link_observation_author"><path codeLine="23" d="M368.24,149.02 C359.69,169.53 344.45,206.13 335.85,226.76 " fill="none" id="observation-author" style="stroke:#181818;stroke-width:1.0;"/><text fill="#000000" font-family="sans-serif" font-size="13" lengthAdjust="spacing" textLength="154" x="356.5" y="193.4951">performer/ practitioner rolle</text></g><!--MD5=[5cdf05f3f77df2dea8a1670fe50d67cb]
link author to organization--><g id="link_author_organization"><path codeLine="24" d="M315.3,259.03 C299.36,275.89 273.67,303.08 257.72,319.95 " fill="none" id="author-organization" style="stroke:#181818;stroke-width:1.0;"/></g><!--MD5=[07ddec2c9815426bf36edeb60320e3c7]
@startuml HomeCareObservations

hide empty members

top to bottom direction

' class "MedComMessagingMessage" as message
' class "MedComMessagingMessageHeader" as messageheader
' class "MedComMessagingProvenance" as provenance
' class "MedComMessagingOrganization" as messagingOrganization <<MedComCoreOrganization>>
class "MedComCorePatient" as patient
class "MedComCorePractitioner" as performer
class "MedComCoreOrganization" as organization
class "MedComCoreDiagnosticReport" as diagnosticReport
class "MedComCoreObservation" as observation
class "MedComCoreServiceRequest" as request



diagnosticReport - - request: "request"
diagnosticReport - - observation : "result"
diagnosticReport - - organization: "performer"
diagnosticReport - - patient: "subject"
observation - - author:"performer/ practitioner rolle"
author - - organization
@enduml

@startuml HomeCareObservations

hide empty members

top to bottom direction

class "MedComCorePatient" as patient
class "MedComCorePractitioner" as performer
class "MedComCoreOrganization" as organization
class "MedComCoreDiagnosticReport" as diagnosticReport
class "MedComCoreObservation" as observation
class "MedComCoreServiceRequest" as request



diagnosticReport - - request: "request"
diagnosticReport - - observation : "result"
diagnosticReport - - organization: "performer"
diagnosticReport - - patient: "subject"
observation - - author:"performer/ practitioner rolle"
author - - organization
@enduml

PlantUML version 1.2022.7(Mon Aug 22 19:01:30 CEST 2022)
(GPL source distribution)
Java Runtime: Java(TM) SE Runtime Environment
JVM: Java HotSpot(TM) 64-Bit Server VM
Default Encoding: Cp1252
Language: da
Country: DK
--></g></svg>