<?xml version="1.0" encoding="UTF-8" standalone="no"?><svg xmlns="http://www.w3.org/2000/svg" xmlns:xlink="http://www.w3.org/1999/xlink" contentStyleType="text/css" height="266px" preserveAspectRatio="none" style="width:789px;height:266px;background:#FFFFFF;" version="1.1" viewBox="0 0 789 266" width="789px" zoomAndPan="magnify"><defs/><g><!--MD5=[86fcfc7a3ddeef2443f03e9b03bcacd4]
class patient--><g id="elem_patient"><rect codeLine="10" fill="#F1F1F1" height="32" id="patient" rx="2.5" ry="2.5" style="stroke:#181818;stroke-width:0.5;" width="163" x="7" y="117"/><ellipse cx="22" cy="133" fill="#ADD1B2" rx="11" ry="11" style="stroke:#181818;stroke-width:1.0;"/><path d="M24.7656,128.875 Q24.9219,128.6563 25.1094,128.5469 Q25.2969,128.4375 25.5156,128.4375 Q25.8906,128.4375 26.125,128.7031 Q26.3594,128.9531 26.3594,129.5625 L26.3594,131.0156 Q26.3594,131.625 26.125,131.8906 Q25.8906,132.1563 25.5156,132.1563 Q25.1719,132.1563 24.9688,131.9531 Q24.7656,131.7656 24.6563,131.25 Q24.6094,130.8906 24.4219,130.7031 Q24.0938,130.3281 23.4844,130.1094 Q22.875,129.8906 22.25,129.8906 Q21.4844,129.8906 20.8438,130.2188 Q20.2188,130.5469 19.7188,131.2969 Q19.2344,132.0469 19.2344,133.0781 L19.2344,134.1719 Q19.2344,135.4063 20.125,136.2344 Q21.0156,137.0469 22.6094,137.0469 Q23.5469,137.0469 24.2031,136.7969 Q24.5938,136.6406 25.0156,136.2031 Q25.2813,135.9375 25.4219,135.8594 Q25.5781,135.7813 25.7813,135.7813 Q26.1094,135.7813 26.3594,136.0469 Q26.625,136.2969 26.625,136.6406 Q26.625,136.9844 26.2813,137.3906 Q25.7813,137.9688 24.9844,138.2969 Q23.9063,138.75 22.6094,138.75 Q21.0938,138.75 19.8906,138.125 Q18.9063,137.625 18.2188,136.5625 Q17.5313,135.4844 17.5313,134.2031 L17.5313,133.0469 Q17.5313,131.7188 18.1406,130.5781 Q18.7656,129.4219 19.8594,128.8125 Q20.9531,128.1875 22.1875,128.1875 Q22.9219,128.1875 23.5625,128.3594 Q24.2188,128.5156 24.7656,128.875 Z " fill="#000000"/><text fill="#000000" font-family="sans-serif" font-size="14" lengthAdjust="spacing" textLength="131" x="36" y="138.7285">MedComCorePatient</text></g><!--MD5=[bf550a175669db68ffababc17e1f6268]
class practitioner--><g id="elem_practitioner"><rect codeLine="11" fill="#F1F1F1" height="32" id="practitioner" rx="2.5" ry="2.5" style="stroke:#181818;stroke-width:0.5;" width="191" x="577" y="227"/><ellipse cx="592" cy="243" fill="#ADD1B2" rx="11" ry="11" style="stroke:#181818;stroke-width:1.0;"/><path d="M594.7656,238.875 Q594.9219,238.6563 595.1094,238.5469 Q595.2969,238.4375 595.5156,238.4375 Q595.8906,238.4375 596.125,238.7031 Q596.3594,238.9531 596.3594,239.5625 L596.3594,241.0156 Q596.3594,241.625 596.125,241.8906 Q595.8906,242.1563 595.5156,242.1563 Q595.1719,242.1563 594.9688,241.9531 Q594.7656,241.7656 594.6563,241.25 Q594.6094,240.8906 594.4219,240.7031 Q594.0938,240.3281 593.4844,240.1094 Q592.875,239.8906 592.25,239.8906 Q591.4844,239.8906 590.8438,240.2188 Q590.2188,240.5469 589.7188,241.2969 Q589.2344,242.0469 589.2344,243.0781 L589.2344,244.1719 Q589.2344,245.4063 590.125,246.2344 Q591.0156,247.0469 592.6094,247.0469 Q593.5469,247.0469 594.2031,246.7969 Q594.5938,246.6406 595.0156,246.2031 Q595.2813,245.9375 595.4219,245.8594 Q595.5781,245.7813 595.7813,245.7813 Q596.1094,245.7813 596.3594,246.0469 Q596.625,246.2969 596.625,246.6406 Q596.625,246.9844 596.2813,247.3906 Q595.7813,247.9688 594.9844,248.2969 Q593.9063,248.75 592.6094,248.75 Q591.0938,248.75 589.8906,248.125 Q588.9063,247.625 588.2188,246.5625 Q587.5313,245.4844 587.5313,244.2031 L587.5313,243.0469 Q587.5313,241.7188 588.1406,240.5781 Q588.7656,239.4219 589.8594,238.8125 Q590.9531,238.1875 592.1875,238.1875 Q592.9219,238.1875 593.5625,238.3594 Q594.2188,238.5156 594.7656,238.875 Z " fill="#000000"/><text fill="#000000" font-family="sans-serif" font-size="14" lengthAdjust="spacing" textLength="159" x="606" y="248.7285">MedComCorePractitioner</text></g><!--MD5=[d64d5c7357c79f774106f79272da7625]
class organization--><g id="elem_organization"><rect codeLine="12" fill="#F1F1F1" height="32" id="organization" rx="2.5" ry="2.5" style="stroke:#181818;stroke-width:0.5;" width="199" x="203" y="227"/><ellipse cx="218" cy="243" fill="#ADD1B2" rx="11" ry="11" style="stroke:#181818;stroke-width:1.0;"/><path d="M220.7656,238.875 Q220.9219,238.6563 221.1094,238.5469 Q221.2969,238.4375 221.5156,238.4375 Q221.8906,238.4375 222.125,238.7031 Q222.3594,238.9531 222.3594,239.5625 L222.3594,241.0156 Q222.3594,241.625 222.125,241.8906 Q221.8906,242.1563 221.5156,242.1563 Q221.1719,242.1563 220.9688,241.9531 Q220.7656,241.7656 220.6563,241.25 Q220.6094,240.8906 220.4219,240.7031 Q220.0938,240.3281 219.4844,240.1094 Q218.875,239.8906 218.25,239.8906 Q217.4844,239.8906 216.8438,240.2188 Q216.2188,240.5469 215.7188,241.2969 Q215.2344,242.0469 215.2344,243.0781 L215.2344,244.1719 Q215.2344,245.4063 216.125,246.2344 Q217.0156,247.0469 218.6094,247.0469 Q219.5469,247.0469 220.2031,246.7969 Q220.5938,246.6406 221.0156,246.2031 Q221.2813,245.9375 221.4219,245.8594 Q221.5781,245.7813 221.7813,245.7813 Q222.1094,245.7813 222.3594,246.0469 Q222.625,246.2969 222.625,246.6406 Q222.625,246.9844 222.2813,247.3906 Q221.7813,247.9688 220.9844,248.2969 Q219.9063,248.75 218.6094,248.75 Q217.0938,248.75 215.8906,248.125 Q214.9063,247.625 214.2188,246.5625 Q213.5313,245.4844 213.5313,244.2031 L213.5313,243.0469 Q213.5313,241.7188 214.1406,240.5781 Q214.7656,239.4219 215.8594,238.8125 Q216.9531,238.1875 218.1875,238.1875 Q218.9219,238.1875 219.5625,238.3594 Q220.2188,238.5156 220.7656,238.875 Z " fill="#000000"/><text fill="#000000" font-family="sans-serif" font-size="14" lengthAdjust="spacing" textLength="167" x="232" y="248.7285">MedComCoreOrganization</text></g><!--MD5=[e983e22c3f4ba1480d19570c62e75e9c]
class diagnosticReport--><g id="elem_diagnosticReport"><rect codeLine="13" fill="#F1F1F1" height="32" id="diagnosticReport" rx="2.5" ry="2.5" style="stroke:#181818;stroke-width:0.5;" width="228" x="187.5" y="7"/><ellipse cx="202.5" cy="23" fill="#ADD1B2" rx="11" ry="11" style="stroke:#181818;stroke-width:1.0;"/><path d="M205.2656,18.875 Q205.4219,18.6563 205.6094,18.5469 Q205.7969,18.4375 206.0156,18.4375 Q206.3906,18.4375 206.625,18.7031 Q206.8594,18.9531 206.8594,19.5625 L206.8594,21.0156 Q206.8594,21.625 206.625,21.8906 Q206.3906,22.1563 206.0156,22.1563 Q205.6719,22.1563 205.4688,21.9531 Q205.2656,21.7656 205.1563,21.25 Q205.1094,20.8906 204.9219,20.7031 Q204.5938,20.3281 203.9844,20.1094 Q203.375,19.8906 202.75,19.8906 Q201.9844,19.8906 201.3438,20.2188 Q200.7188,20.5469 200.2188,21.2969 Q199.7344,22.0469 199.7344,23.0781 L199.7344,24.1719 Q199.7344,25.4063 200.625,26.2344 Q201.5156,27.0469 203.1094,27.0469 Q204.0469,27.0469 204.7031,26.7969 Q205.0938,26.6406 205.5156,26.2031 Q205.7813,25.9375 205.9219,25.8594 Q206.0781,25.7813 206.2813,25.7813 Q206.6094,25.7813 206.8594,26.0469 Q207.125,26.2969 207.125,26.6406 Q207.125,26.9844 206.7813,27.3906 Q206.2813,27.9688 205.4844,28.2969 Q204.4063,28.75 203.1094,28.75 Q201.5938,28.75 200.3906,28.125 Q199.4063,27.625 198.7188,26.5625 Q198.0313,25.4844 198.0313,24.2031 L198.0313,23.0469 Q198.0313,21.7188 198.6406,20.5781 Q199.2656,19.4219 200.3594,18.8125 Q201.4531,18.1875 202.6875,18.1875 Q203.4219,18.1875 204.0625,18.3594 Q204.7188,18.5156 205.2656,18.875 Z " fill="#000000"/><text fill="#000000" font-family="sans-serif" font-size="14" lengthAdjust="spacing" textLength="196" x="216.5" y="28.7285">MedComCoreDiagnosticReport</text></g><!--MD5=[c05ff5df3fb3713f28ed4bc47e190b7b]
class observation--><g id="elem_observation"><rect codeLine="14" fill="#F1F1F1" height="32" id="observation" rx="2.5" ry="2.5" style="stroke:#181818;stroke-width:0.5;" width="196" x="331.5" y="117"/><ellipse cx="346.5" cy="133" fill="#ADD1B2" rx="11" ry="11" style="stroke:#181818;stroke-width:1.0;"/><path d="M349.2656,128.875 Q349.4219,128.6563 349.6094,128.5469 Q349.7969,128.4375 350.0156,128.4375 Q350.3906,128.4375 350.625,128.7031 Q350.8594,128.9531 350.8594,129.5625 L350.8594,131.0156 Q350.8594,131.625 350.625,131.8906 Q350.3906,132.1563 350.0156,132.1563 Q349.6719,132.1563 349.4688,131.9531 Q349.2656,131.7656 349.1563,131.25 Q349.1094,130.8906 348.9219,130.7031 Q348.5938,130.3281 347.9844,130.1094 Q347.375,129.8906 346.75,129.8906 Q345.9844,129.8906 345.3438,130.2188 Q344.7188,130.5469 344.2188,131.2969 Q343.7344,132.0469 343.7344,133.0781 L343.7344,134.1719 Q343.7344,135.4063 344.625,136.2344 Q345.5156,137.0469 347.1094,137.0469 Q348.0469,137.0469 348.7031,136.7969 Q349.0938,136.6406 349.5156,136.2031 Q349.7813,135.9375 349.9219,135.8594 Q350.0781,135.7813 350.2813,135.7813 Q350.6094,135.7813 350.8594,136.0469 Q351.125,136.2969 351.125,136.6406 Q351.125,136.9844 350.7813,137.3906 Q350.2813,137.9688 349.4844,138.2969 Q348.4063,138.75 347.1094,138.75 Q345.5938,138.75 344.3906,138.125 Q343.4063,137.625 342.7188,136.5625 Q342.0313,135.4844 342.0313,134.2031 L342.0313,133.0469 Q342.0313,131.7188 342.6406,130.5781 Q343.2656,129.4219 344.3594,128.8125 Q345.4531,128.1875 346.6875,128.1875 Q347.4219,128.1875 348.0625,128.3594 Q348.7188,128.5156 349.2656,128.875 Z " fill="#000000"/><text fill="#000000" font-family="sans-serif" font-size="14" lengthAdjust="spacing" textLength="164" x="360.5" y="138.7285">MedComCoreObservation</text></g><!--MD5=[0dbbe5e9e04a32a61f4c8be5c884f575]
class request--><g id="elem_request"><rect codeLine="15" fill="#F1F1F1" height="32" id="request" rx="2.5" ry="2.5" style="stroke:#181818;stroke-width:0.5;" width="219" x="563" y="117"/><ellipse cx="578" cy="133" fill="#ADD1B2" rx="11" ry="11" style="stroke:#181818;stroke-width:1.0;"/><path d="M580.7656,128.875 Q580.9219,128.6563 581.1094,128.5469 Q581.2969,128.4375 581.5156,128.4375 Q581.8906,128.4375 582.125,128.7031 Q582.3594,128.9531 582.3594,129.5625 L582.3594,131.0156 Q582.3594,131.625 582.125,131.8906 Q581.8906,132.1563 581.5156,132.1563 Q581.1719,132.1563 580.9688,131.9531 Q580.7656,131.7656 580.6563,131.25 Q580.6094,130.8906 580.4219,130.7031 Q580.0938,130.3281 579.4844,130.1094 Q578.875,129.8906 578.25,129.8906 Q577.4844,129.8906 576.8438,130.2188 Q576.2188,130.5469 575.7188,131.2969 Q575.2344,132.0469 575.2344,133.0781 L575.2344,134.1719 Q575.2344,135.4063 576.125,136.2344 Q577.0156,137.0469 578.6094,137.0469 Q579.5469,137.0469 580.2031,136.7969 Q580.5938,136.6406 581.0156,136.2031 Q581.2813,135.9375 581.4219,135.8594 Q581.5781,135.7813 581.7813,135.7813 Q582.1094,135.7813 582.3594,136.0469 Q582.625,136.2969 582.625,136.6406 Q582.625,136.9844 582.2813,137.3906 Q581.7813,137.9688 580.9844,138.2969 Q579.9063,138.75 578.6094,138.75 Q577.0938,138.75 575.8906,138.125 Q574.9063,137.625 574.2188,136.5625 Q573.5313,135.4844 573.5313,134.2031 L573.5313,133.0469 Q573.5313,131.7188 574.1406,130.5781 Q574.7656,129.4219 575.8594,128.8125 Q576.9531,128.1875 578.1875,128.1875 Q578.9219,128.1875 579.5625,128.3594 Q580.2188,128.5156 580.7656,128.875 Z " fill="#000000"/><text fill="#000000" font-family="sans-serif" font-size="14" lengthAdjust="spacing" textLength="187" x="592" y="138.7285">MedComCoreServiceRequest</text></g><!--MD5=[b6606329a1406e175d982d3f1262b76d]
link diagnosticReport to request--><g id="link_diagnosticReport_request"><path codeLine="19" d="M353.09,39.02 C423.77,59.59 549.99,96.34 620.76,116.94 " fill="none" id="diagnosticReport-request" style="stroke:#181818;stroke-width:1.0;"/><text fill="#000000" font-family="sans-serif" font-size="13" lengthAdjust="spacing" textLength="43" x="510.5" y="83.4951">request</text></g><!--MD5=[3e74bcfe223db57f3ef2fc1f1a52bdc5]
link diagnosticReport to observation--><g id="link_diagnosticReport_observation"><path codeLine="20" d="M319.3,39.02 C343.62,59.53 386.99,96.13 411.44,116.76 " fill="none" id="diagnosticReport-observation" style="stroke:#181818;stroke-width:1.0;"/><text fill="#000000" font-family="sans-serif" font-size="13" lengthAdjust="spacing" textLength="32" x="374.5" y="83.4951">result</text></g><!--MD5=[47496e079e743b6704f8ffb47327a521]
link diagnosticReport to organization--><g id="link_diagnosticReport_organization"><path codeLine="21" d="M290.25,39.06 C274.33,62.23 248.14,108.19 257.5,149 C264.23,178.37 281.51,209.24 292.59,227 " fill="none" id="diagnosticReport-organization" style="stroke:#181818;stroke-width:1.0;"/><text fill="#000000" font-family="sans-serif" font-size="13" lengthAdjust="spacing" textLength="54" x="258.5" y="138.4951">performer</text></g><!--MD5=[3693126f5e4882afa6398591cd5ccdc9]
link diagnosticReport to patient--><g id="link_diagnosticReport_patient"><path codeLine="22" d="M244.69,39.1 C221.02,46.5 193.7,56.54 170.5,69 C145.83,82.25 120.78,102.75 104.97,116.74 " fill="none" id="diagnosticReport-patient" style="stroke:#181818;stroke-width:1.0;"/><text fill="#000000" font-family="sans-serif" font-size="13" lengthAdjust="spacing" textLength="42" x="171.5" y="83.4951">subject</text></g><!--MD5=[b2a5aaa5e21b8028275012c30726e24c]
link observation to organization--><g id="link_observation_organization"><path codeLine="23" d="M411.84,149.02 C387.71,169.53 344.68,206.13 320.42,226.76 " fill="none" id="observation-organization" style="stroke:#181818;stroke-width:1.0;"/><text fill="#000000" font-family="sans-serif" font-size="13" lengthAdjust="spacing" textLength="154" x="375.5" y="193.4951">performer/ practitioner rolle</text></g><!--MD5=[8f3c6bb8ae594ed841ac437dfa3e07ba]
link request to practitioner--><g id="link_request_practitioner"><path codeLine="24" d="M672.5,149.02 C672.5,169.53 672.5,206.13 672.5,226.76 " fill="none" id="request-practitioner" style="stroke:#181818;stroke-width:1.0;"/></g><!--MD5=[b2f704800c11ffc1c1be028e751928cb]
@startuml HomeCareObservations repport 

hide empty members

top to bottom direction

' class "MedComMessagingMessage" as message
' class "MedComMessagingMessageHeader" as messageheader
' class "MedComMessagingProvenance" as provenance
' class "MedComMessagingOrganization" as messagingOrganization <<MedComCoreOrganization>>
class "MedComCorePatient" as patient
class "MedComCorePractitioner" as practitioner
class "MedComCoreOrganization" as organization
class "MedComCoreDiagnosticReport" as diagnosticReport
class "MedComCoreObservation" as observation
class "MedComCoreServiceRequest" as request



diagnosticReport - - request: "request"
diagnosticReport - - observation : "result"
diagnosticReport - - organization: "performer"
diagnosticReport - - patient: "subject"
observation - - organization:"performer/ practitioner rolle"
request- -practitioner

@enduml

@startuml HomeCareObservations repport 

hide empty members

top to bottom direction

class "MedComCorePatient" as patient
class "MedComCorePractitioner" as practitioner
class "MedComCoreOrganization" as organization
class "MedComCoreDiagnosticReport" as diagnosticReport
class "MedComCoreObservation" as observation
class "MedComCoreServiceRequest" as request



diagnosticReport - - request: "request"
diagnosticReport - - observation : "result"
diagnosticReport - - organization: "performer"
diagnosticReport - - patient: "subject"
observation - - organization:"performer/ practitioner rolle"
request- -practitioner

@enduml

PlantUML version 1.2022.7(Mon Aug 22 19:01:30 CEST 2022)
(GPL source distribution)
Java Runtime: Java(TM) SE Runtime Environment
JVM: Java HotSpot(TM) 64-Bit Server VM
Default Encoding: Cp1252
Language: da
Country: DK
--></g></svg>