<?xml version="1.0" encoding="UTF-8" standalone="no"?><svg xmlns="http://www.w3.org/2000/svg" xmlns:xlink="http://www.w3.org/1999/xlink" contentStyleType="text/css" height="288px" preserveAspectRatio="none" style="width:524px;height:288px;background:#FFFFFF;" version="1.1" viewBox="0 0 524 288" width="524px" zoomAndPan="magnify"><defs/><g><!--MD5=[86fcfc7a3ddeef2443f03e9b03bcacd4]
class patient--><g id="elem_patient"><rect codeLine="4" fill="#F1F1F1" height="32" id="patient" rx="2.5" ry="2.5" style="stroke:#181818;stroke-width:0.5;" width="163" x="7" y="133.5"/><ellipse cx="22" cy="149.5" fill="#ADD1B2" rx="11" ry="11" style="stroke:#181818;stroke-width:1.0;"/><path d="M24.7656,145.375 Q24.9219,145.1563 25.1094,145.0469 Q25.2969,144.9375 25.5156,144.9375 Q25.8906,144.9375 26.125,145.2031 Q26.3594,145.4531 26.3594,146.0625 L26.3594,147.5156 Q26.3594,148.125 26.125,148.3906 Q25.8906,148.6563 25.5156,148.6563 Q25.1719,148.6563 24.9688,148.4531 Q24.7656,148.2656 24.6563,147.75 Q24.6094,147.3906 24.4219,147.2031 Q24.0938,146.8281 23.4844,146.6094 Q22.875,146.3906 22.25,146.3906 Q21.4844,146.3906 20.8438,146.7188 Q20.2188,147.0469 19.7188,147.7969 Q19.2344,148.5469 19.2344,149.5781 L19.2344,150.6719 Q19.2344,151.9063 20.125,152.7344 Q21.0156,153.5469 22.6094,153.5469 Q23.5469,153.5469 24.2031,153.2969 Q24.5938,153.1406 25.0156,152.7031 Q25.2813,152.4375 25.4219,152.3594 Q25.5781,152.2813 25.7813,152.2813 Q26.1094,152.2813 26.3594,152.5469 Q26.625,152.7969 26.625,153.1406 Q26.625,153.4844 26.2813,153.8906 Q25.7813,154.4688 24.9844,154.7969 Q23.9063,155.25 22.6094,155.25 Q21.0938,155.25 19.8906,154.625 Q18.9063,154.125 18.2188,153.0625 Q17.5313,151.9844 17.5313,150.7031 L17.5313,149.5469 Q17.5313,148.2188 18.1406,147.0781 Q18.7656,145.9219 19.8594,145.3125 Q20.9531,144.6875 22.1875,144.6875 Q22.9219,144.6875 23.5625,144.8594 Q24.2188,145.0156 24.7656,145.375 Z " fill="#000000"/><text fill="#000000" font-family="sans-serif" font-size="14" lengthAdjust="spacing" textLength="131" x="36" y="155.2285">MedComCorePatient</text></g><!--MD5=[d64d5c7357c79f774106f79272da7625]
class organization--><g id="elem_organization"><rect codeLine="5" fill="#F1F1F1" height="32" id="organization" rx="2.5" ry="2.5" style="stroke:#181818;stroke-width:0.5;" width="303" x="118" y="249"/><ellipse cx="133" cy="265" fill="#ADD1B2" rx="11" ry="11" style="stroke:#181818;stroke-width:1.0;"/><path d="M135.7656,260.875 Q135.9219,260.6563 136.1094,260.5469 Q136.2969,260.4375 136.5156,260.4375 Q136.8906,260.4375 137.125,260.7031 Q137.3594,260.9531 137.3594,261.5625 L137.3594,263.0156 Q137.3594,263.625 137.125,263.8906 Q136.8906,264.1563 136.5156,264.1563 Q136.1719,264.1563 135.9688,263.9531 Q135.7656,263.7656 135.6563,263.25 Q135.6094,262.8906 135.4219,262.7031 Q135.0938,262.3281 134.4844,262.1094 Q133.875,261.8906 133.25,261.8906 Q132.4844,261.8906 131.8438,262.2188 Q131.2188,262.5469 130.7188,263.2969 Q130.2344,264.0469 130.2344,265.0781 L130.2344,266.1719 Q130.2344,267.4063 131.125,268.2344 Q132.0156,269.0469 133.6094,269.0469 Q134.5469,269.0469 135.2031,268.7969 Q135.5938,268.6406 136.0156,268.2031 Q136.2813,267.9375 136.4219,267.8594 Q136.5781,267.7813 136.7813,267.7813 Q137.1094,267.7813 137.3594,268.0469 Q137.625,268.2969 137.625,268.6406 Q137.625,268.9844 137.2813,269.3906 Q136.7813,269.9688 135.9844,270.2969 Q134.9063,270.75 133.6094,270.75 Q132.0938,270.75 130.8906,270.125 Q129.9063,269.625 129.2188,268.5625 Q128.5313,267.4844 128.5313,266.2031 L128.5313,265.0469 Q128.5313,263.7188 129.1406,262.5781 Q129.7656,261.4219 130.8594,260.8125 Q131.9531,260.1875 133.1875,260.1875 Q133.9219,260.1875 134.5625,260.3594 Q135.2188,260.5156 135.7656,260.875 Z " fill="#000000"/><text fill="#000000" font-family="sans-serif" font-size="14" lengthAdjust="spacing" textLength="271" x="147" y="270.7285">MedComObservationProducerOrganization</text></g><!--MD5=[e983e22c3f4ba1480d19570c62e75e9c]
class diagnosticReport--><g id="elem_diagnosticReport"><rect codeLine="6" fill="#F1F1F1" height="42.7031" id="diagnosticReport" rx="2.5" ry="2.5" style="stroke:#181818;stroke-width:0.5;" width="214" x="133.5" y="7"/><ellipse cx="148.5" cy="28.3516" fill="#ADD1B2" rx="11" ry="11" style="stroke:#181818;stroke-width:1.0;"/><path d="M151.2656,24.2266 Q151.4219,24.0078 151.6094,23.8984 Q151.7969,23.7891 152.0156,23.7891 Q152.3906,23.7891 152.625,24.0547 Q152.8594,24.3047 152.8594,24.9141 L152.8594,26.3672 Q152.8594,26.9766 152.625,27.2422 Q152.3906,27.5078 152.0156,27.5078 Q151.6719,27.5078 151.4688,27.3047 Q151.2656,27.1172 151.1563,26.6016 Q151.1094,26.2422 150.9219,26.0547 Q150.5938,25.6797 149.9844,25.4609 Q149.375,25.2422 148.75,25.2422 Q147.9844,25.2422 147.3438,25.5703 Q146.7188,25.8984 146.2188,26.6484 Q145.7344,27.3984 145.7344,28.4297 L145.7344,29.5234 Q145.7344,30.7578 146.625,31.5859 Q147.5156,32.3984 149.1094,32.3984 Q150.0469,32.3984 150.7031,32.1484 Q151.0938,31.9922 151.5156,31.5547 Q151.7813,31.2891 151.9219,31.2109 Q152.0781,31.1328 152.2813,31.1328 Q152.6094,31.1328 152.8594,31.3984 Q153.125,31.6484 153.125,31.9922 Q153.125,32.3359 152.7813,32.7422 Q152.2813,33.3203 151.4844,33.6484 Q150.4063,34.1016 149.1094,34.1016 Q147.5938,34.1016 146.3906,33.4766 Q145.4063,32.9766 144.7188,31.9141 Q144.0313,30.8359 144.0313,29.5547 L144.0313,28.3984 Q144.0313,27.0703 144.6406,25.9297 Q145.2656,24.7734 146.3594,24.1641 Q147.4531,23.5391 148.6875,23.5391 Q149.4219,23.5391 150.0625,23.7109 Q150.7188,23.8672 151.2656,24.2266 Z " fill="#000000"/><text fill="#000000" font-family="sans-serif" font-size="12" font-style="italic" lengthAdjust="spacing" textLength="186" x="160.5" y="24.457">«MedComCoreDiagnosticReport»</text><text fill="#000000" font-family="sans-serif" font-size="14" lengthAdjust="spacing" textLength="110" x="198.5" y="41.627">HomeCareReport</text></g><!--MD5=[a96585abe38044d07723f840ff465c16]
class coreobservation--><g id="elem_coreobservation"><rect codeLine="7" fill="#F1F1F1" height="42.7031" id="coreobservation" rx="2.5" ry="2.5" style="stroke:#181818;stroke-width:0.5;" width="186" x="331.5" y="128"/><ellipse cx="346.5" cy="149.3516" fill="#ADD1B2" rx="11" ry="11" style="stroke:#181818;stroke-width:1.0;"/><path d="M349.2656,145.2266 Q349.4219,145.0078 349.6094,144.8984 Q349.7969,144.7891 350.0156,144.7891 Q350.3906,144.7891 350.625,145.0547 Q350.8594,145.3047 350.8594,145.9141 L350.8594,147.3672 Q350.8594,147.9766 350.625,148.2422 Q350.3906,148.5078 350.0156,148.5078 Q349.6719,148.5078 349.4688,148.3047 Q349.2656,148.1172 349.1563,147.6016 Q349.1094,147.2422 348.9219,147.0547 Q348.5938,146.6797 347.9844,146.4609 Q347.375,146.2422 346.75,146.2422 Q345.9844,146.2422 345.3438,146.5703 Q344.7188,146.8984 344.2188,147.6484 Q343.7344,148.3984 343.7344,149.4297 L343.7344,150.5234 Q343.7344,151.7578 344.625,152.5859 Q345.5156,153.3984 347.1094,153.3984 Q348.0469,153.3984 348.7031,153.1484 Q349.0938,152.9922 349.5156,152.5547 Q349.7813,152.2891 349.9219,152.2109 Q350.0781,152.1328 350.2813,152.1328 Q350.6094,152.1328 350.8594,152.3984 Q351.125,152.6484 351.125,152.9922 Q351.125,153.3359 350.7813,153.7422 Q350.2813,154.3203 349.4844,154.6484 Q348.4063,155.1016 347.1094,155.1016 Q345.5938,155.1016 344.3906,154.4766 Q343.4063,153.9766 342.7188,152.9141 Q342.0313,151.8359 342.0313,150.5547 L342.0313,149.3984 Q342.0313,148.0703 342.6406,146.9297 Q343.2656,145.7734 344.3594,145.1641 Q345.4531,144.5391 346.6875,144.5391 Q347.4219,144.5391 348.0625,144.7109 Q348.7188,144.8672 349.2656,145.2266 Z " fill="#000000"/><text fill="#000000" font-family="sans-serif" font-size="12" font-style="italic" lengthAdjust="spacing" textLength="158" x="358.5" y="145.457">«MedComCoreObservation»</text><text fill="#000000" font-family="sans-serif" font-size="14" lengthAdjust="spacing" textLength="144" x="365.5" y="162.627">HomeCareObservation</text></g><!--MD5=[3693126f5e4882afa6398591cd5ccdc9]
link diagnosticReport to patient--><g id="link_diagnosticReport_patient"><path codeLine="9" d="M210.87,50.17 C198.27,59.14 183.52,69.89 170.5,80 C147.65,97.75 122.2,119.31 105.8,133.44 " fill="none" id="diagnosticReport-patient" style="stroke:#181818;stroke-width:1.0;"/><text fill="#000000" font-family="sans-serif" font-size="13" lengthAdjust="spacing" textLength="42" x="171.5" y="94.4951">subject</text></g><!--MD5=[47496e079e743b6704f8ffb47327a521]
link diagnosticReport to organization--><g id="link_diagnosticReport_organization"><path codeLine="10" d="M242.92,50.13 C246.17,77.69 252.15,128.03 257.5,171 C260.92,198.46 265.09,230.46 267.51,248.86 " fill="none" id="diagnosticReport-organization" style="stroke:#181818;stroke-width:1.0;"/><text fill="#000000" font-family="sans-serif" font-size="13" lengthAdjust="spacing" textLength="54" x="258.5" y="154.9951">performer</text></g><!--MD5=[1f197c178a815dc5a1dfbb48fdfadc47]
link diagnosticReport to coreobservation--><g id="link_diagnosticReport_coreobservation"><path codeLine="11" d="M272.55,50.23 C306.22,72 358.86,106.05 392.51,127.81 " fill="none" id="diagnosticReport-coreobservation" style="stroke:#181818;stroke-width:1.0;"/><text fill="#000000" font-family="sans-serif" font-size="13" lengthAdjust="spacing" textLength="32" x="345.5" y="94.4951">result</text></g><!--MD5=[c1b5b919a9c1cbeb103e231fc0557f2f]
link coreobservation to organization--><g id="link_coreobservation_organization"><path codeLine="12" d="M396.43,171.05 C365.9,193.41 317.79,228.64 290.41,248.69 " fill="none" id="coreobservation-organization" style="stroke:#181818;stroke-width:1.0;"/><text fill="#000000" font-family="sans-serif" font-size="13" lengthAdjust="spacing" textLength="54" x="353.5" y="215.4951">performer</text></g><!--MD5=[008f01c5b9d157563ebb5409f87c0f91]
@startuml HomeCareObsProfile
hide empty members
top to bottom direction

class "MedComCorePatient" as patient
class "MedComObservationProducerOrganization" as organization 
class "HomeCareReport" as diagnosticReport <<MedComCoreDiagnosticReport>>
class "HomeCareObservation" as coreobservation <<MedComCoreObservation>>

diagnosticReport - - patient : "subject"
diagnosticReport - - organization: "performer"
diagnosticReport - - coreobservation : "result"
coreobservation - - organization:"performer"



@enduml

PlantUML version 1.2022.7(Mon Aug 22 19:01:30 CEST 2022)
(GPL source distribution)
Java Runtime: Java(TM) SE Runtime Environment
JVM: Java HotSpot(TM) 64-Bit Server VM
Default Encoding: Cp1252
Language: da
Country: DK
--></g></svg>