<?xml version="1.0" encoding="UTF-8" standalone="no"?><svg xmlns="http://www.w3.org/2000/svg" xmlns:xlink="http://www.w3.org/1999/xlink" contentStyleType="text/css" height="640px" preserveAspectRatio="none" style="width:1093px;height:640px;background:#FFFFFF;" version="1.1" viewBox="0 0 1093 640" width="1093px" zoomAndPan="magnify"><defs/><g><!--MD5=[76410cda49e5d7b75c5bd06aa47a685f]
class message--><g id="elem_message"><rect codeLine="6" fill="#F1F1F1" height="42.7031" id="message" rx="2.5" ry="2.5" style="stroke:#181818;stroke-width:0.5;" width="289" x="305.5" y="7"/><ellipse cx="320.5" cy="28.3516" fill="#ADD1B2" rx="11" ry="11" style="stroke:#181818;stroke-width:1.0;"/><path d="M323.2656,24.2266 Q323.4219,24.0078 323.6094,23.8984 Q323.7969,23.7891 324.0156,23.7891 Q324.3906,23.7891 324.625,24.0547 Q324.8594,24.3047 324.8594,24.9141 L324.8594,26.3672 Q324.8594,26.9766 324.625,27.2422 Q324.3906,27.5078 324.0156,27.5078 Q323.6719,27.5078 323.4688,27.3047 Q323.2656,27.1172 323.1563,26.6016 Q323.1094,26.2422 322.9219,26.0547 Q322.5938,25.6797 321.9844,25.4609 Q321.375,25.2422 320.75,25.2422 Q319.9844,25.2422 319.3438,25.5703 Q318.7188,25.8984 318.2188,26.6484 Q317.7344,27.3984 317.7344,28.4297 L317.7344,29.5234 Q317.7344,30.7578 318.625,31.5859 Q319.5156,32.3984 321.1094,32.3984 Q322.0469,32.3984 322.7031,32.1484 Q323.0938,31.9922 323.5156,31.5547 Q323.7813,31.2891 323.9219,31.2109 Q324.0781,31.1328 324.2813,31.1328 Q324.6094,31.1328 324.8594,31.3984 Q325.125,31.6484 325.125,31.9922 Q325.125,32.3359 324.7813,32.7422 Q324.2813,33.3203 323.4844,33.6484 Q322.4063,34.1016 321.1094,34.1016 Q319.5938,34.1016 318.3906,33.4766 Q317.4063,32.9766 316.7188,31.9141 Q316.0313,30.8359 316.0313,29.5547 L316.0313,28.3984 Q316.0313,27.0703 316.6406,25.9297 Q317.2656,24.7734 318.3594,24.1641 Q319.4531,23.5391 320.6875,23.5391 Q321.4219,23.5391 322.0625,23.7109 Q322.7188,23.8672 323.2656,24.2266 Z " fill="#000000"/><text fill="#000000" font-family="sans-serif" font-size="12" font-style="italic" lengthAdjust="spacing" textLength="172" x="377" y="24.457">«MedComMessagingMessage»</text><text fill="#000000" font-family="sans-serif" font-size="14" lengthAdjust="spacing" textLength="257" x="334.5" y="41.627">MedComHomeCareObservationMessage</text></g><!--MD5=[8450471b43f9def5175bba9f4f9f2aaf]
class messageheader--><g id="elem_messageheader"><rect codeLine="7" fill="#F1F1F1" height="42.7031" id="messageheader" rx="2.5" ry="2.5" style="stroke:#181818;stroke-width:0.5;" width="335" x="253.5" y="238"/><ellipse cx="268.5" cy="259.3516" fill="#ADD1B2" rx="11" ry="11" style="stroke:#181818;stroke-width:1.0;"/><path d="M271.2656,255.2266 Q271.4219,255.0078 271.6094,254.8984 Q271.7969,254.7891 272.0156,254.7891 Q272.3906,254.7891 272.625,255.0547 Q272.8594,255.3047 272.8594,255.9141 L272.8594,257.3672 Q272.8594,257.9766 272.625,258.2422 Q272.3906,258.5078 272.0156,258.5078 Q271.6719,258.5078 271.4688,258.3047 Q271.2656,258.1172 271.1563,257.6016 Q271.1094,257.2422 270.9219,257.0547 Q270.5938,256.6797 269.9844,256.4609 Q269.375,256.2422 268.75,256.2422 Q267.9844,256.2422 267.3438,256.5703 Q266.7188,256.8984 266.2188,257.6484 Q265.7344,258.3984 265.7344,259.4297 L265.7344,260.5234 Q265.7344,261.7578 266.625,262.5859 Q267.5156,263.3984 269.1094,263.3984 Q270.0469,263.3984 270.7031,263.1484 Q271.0938,262.9922 271.5156,262.5547 Q271.7813,262.2891 271.9219,262.2109 Q272.0781,262.1328 272.2813,262.1328 Q272.6094,262.1328 272.8594,262.3984 Q273.125,262.6484 273.125,262.9922 Q273.125,263.3359 272.7813,263.7422 Q272.2813,264.3203 271.4844,264.6484 Q270.4063,265.1016 269.1094,265.1016 Q267.5938,265.1016 266.3906,264.4766 Q265.4063,263.9766 264.7188,262.9141 Q264.0313,261.8359 264.0313,260.5547 L264.0313,259.3984 Q264.0313,258.0703 264.6406,256.9297 Q265.2656,255.7734 266.3594,255.1641 Q267.4531,254.5391 268.6875,254.5391 Q269.4219,254.5391 270.0625,254.7109 Q270.7188,254.8672 271.2656,255.2266 Z " fill="#000000"/><text fill="#000000" font-family="sans-serif" font-size="12" font-style="italic" lengthAdjust="spacing" textLength="213" x="327.5" y="255.457">«MedComMessagingMessageHeader»</text><text fill="#000000" font-family="sans-serif" font-size="14" lengthAdjust="spacing" textLength="303" x="282.5" y="272.627">MedComHomeCareObservationMessageHeader</text></g><!--MD5=[134450525739527685064faa304c6b67]
class provenance--><g id="elem_provenance"><rect codeLine="8" fill="#F1F1F1" height="32" id="provenance" rx="2.5" ry="2.5" style="stroke:#181818;stroke-width:0.5;" width="232" x="487" y="128"/><ellipse cx="502" cy="144" fill="#ADD1B2" rx="11" ry="11" style="stroke:#181818;stroke-width:1.0;"/><path d="M504.7656,139.875 Q504.9219,139.6563 505.1094,139.5469 Q505.2969,139.4375 505.5156,139.4375 Q505.8906,139.4375 506.125,139.7031 Q506.3594,139.9531 506.3594,140.5625 L506.3594,142.0156 Q506.3594,142.625 506.125,142.8906 Q505.8906,143.1563 505.5156,143.1563 Q505.1719,143.1563 504.9688,142.9531 Q504.7656,142.7656 504.6563,142.25 Q504.6094,141.8906 504.4219,141.7031 Q504.0938,141.3281 503.4844,141.1094 Q502.875,140.8906 502.25,140.8906 Q501.4844,140.8906 500.8438,141.2188 Q500.2188,141.5469 499.7188,142.2969 Q499.2344,143.0469 499.2344,144.0781 L499.2344,145.1719 Q499.2344,146.4063 500.125,147.2344 Q501.0156,148.0469 502.6094,148.0469 Q503.5469,148.0469 504.2031,147.7969 Q504.5938,147.6406 505.0156,147.2031 Q505.2813,146.9375 505.4219,146.8594 Q505.5781,146.7813 505.7813,146.7813 Q506.1094,146.7813 506.3594,147.0469 Q506.625,147.2969 506.625,147.6406 Q506.625,147.9844 506.2813,148.3906 Q505.7813,148.9688 504.9844,149.2969 Q503.9063,149.75 502.6094,149.75 Q501.0938,149.75 499.8906,149.125 Q498.9063,148.625 498.2188,147.5625 Q497.5313,146.4844 497.5313,145.2031 L497.5313,144.0469 Q497.5313,142.7188 498.1406,141.5781 Q498.7656,140.4219 499.8594,139.8125 Q500.9531,139.1875 502.1875,139.1875 Q502.9219,139.1875 503.5625,139.3594 Q504.2188,139.5156 504.7656,139.875 Z " fill="#000000"/><text fill="#000000" font-family="sans-serif" font-size="14" lengthAdjust="spacing" textLength="200" x="516" y="149.7285">MedComMessagingProvenance</text></g><!--MD5=[d4169e35ccdaba65b2d0699c27e25023]
class observationRequester--><g id="elem_observationRequester"><rect codeLine="9" fill="#F1F1F1" height="42.7031" id="observationRequester" rx="2.5" ry="2.5" style="stroke:#181818;stroke-width:0.5;" width="302" x="7" y="359"/><ellipse cx="22" cy="380.3516" fill="#ADD1B2" rx="11" ry="11" style="stroke:#181818;stroke-width:1.0;"/><path d="M24.7656,376.2266 Q24.9219,376.0078 25.1094,375.8984 Q25.2969,375.7891 25.5156,375.7891 Q25.8906,375.7891 26.125,376.0547 Q26.3594,376.3047 26.3594,376.9141 L26.3594,378.3672 Q26.3594,378.9766 26.125,379.2422 Q25.8906,379.5078 25.5156,379.5078 Q25.1719,379.5078 24.9688,379.3047 Q24.7656,379.1172 24.6563,378.6016 Q24.6094,378.2422 24.4219,378.0547 Q24.0938,377.6797 23.4844,377.4609 Q22.875,377.2422 22.25,377.2422 Q21.4844,377.2422 20.8438,377.5703 Q20.2188,377.8984 19.7188,378.6484 Q19.2344,379.3984 19.2344,380.4297 L19.2344,381.5234 Q19.2344,382.7578 20.125,383.5859 Q21.0156,384.3984 22.6094,384.3984 Q23.5469,384.3984 24.2031,384.1484 Q24.5938,383.9922 25.0156,383.5547 Q25.2813,383.2891 25.4219,383.2109 Q25.5781,383.1328 25.7813,383.1328 Q26.1094,383.1328 26.3594,383.3984 Q26.625,383.6484 26.625,383.9922 Q26.625,384.3359 26.2813,384.7422 Q25.7813,385.3203 24.9844,385.6484 Q23.9063,386.1016 22.6094,386.1016 Q21.0938,386.1016 19.8906,385.4766 Q18.9063,384.9766 18.2188,383.9141 Q17.5313,382.8359 17.5313,381.5547 L17.5313,380.3984 Q17.5313,379.0703 18.1406,377.9297 Q18.7656,376.7734 19.8594,376.1641 Q20.9531,375.5391 22.1875,375.5391 Q22.9219,375.5391 23.5625,375.7109 Q24.2188,375.8672 24.7656,376.2266 Z " fill="#000000"/><text fill="#000000" font-family="sans-serif" font-size="12" font-style="italic" lengthAdjust="spacing" textLength="194" x="74" y="376.457">«MedComMessagingOrganization»</text><text fill="#000000" font-family="sans-serif" font-size="14" lengthAdjust="spacing" textLength="270" x="36" y="393.627">MedComMessagingRequesterOrganization</text></g><!--MD5=[86fcfc7a3ddeef2443f03e9b03bcacd4]
class patient--><g id="elem_patient"><rect codeLine="10" fill="#F1F1F1" height="32" id="patient" rx="2.5" ry="2.5" style="stroke:#181818;stroke-width:0.5;" width="163" x="415.5" y="485.5"/><ellipse cx="430.5" cy="501.5" fill="#ADD1B2" rx="11" ry="11" style="stroke:#181818;stroke-width:1.0;"/><path d="M433.2656,497.375 Q433.4219,497.1563 433.6094,497.0469 Q433.7969,496.9375 434.0156,496.9375 Q434.3906,496.9375 434.625,497.2031 Q434.8594,497.4531 434.8594,498.0625 L434.8594,499.5156 Q434.8594,500.125 434.625,500.3906 Q434.3906,500.6563 434.0156,500.6563 Q433.6719,500.6563 433.4688,500.4531 Q433.2656,500.2656 433.1563,499.75 Q433.1094,499.3906 432.9219,499.2031 Q432.5938,498.8281 431.9844,498.6094 Q431.375,498.3906 430.75,498.3906 Q429.9844,498.3906 429.3438,498.7188 Q428.7188,499.0469 428.2188,499.7969 Q427.7344,500.5469 427.7344,501.5781 L427.7344,502.6719 Q427.7344,503.9063 428.625,504.7344 Q429.5156,505.5469 431.1094,505.5469 Q432.0469,505.5469 432.7031,505.2969 Q433.0938,505.1406 433.5156,504.7031 Q433.7813,504.4375 433.9219,504.3594 Q434.0781,504.2813 434.2813,504.2813 Q434.6094,504.2813 434.8594,504.5469 Q435.125,504.7969 435.125,505.1406 Q435.125,505.4844 434.7813,505.8906 Q434.2813,506.4688 433.4844,506.7969 Q432.4063,507.25 431.1094,507.25 Q429.5938,507.25 428.3906,506.625 Q427.4063,506.125 426.7188,505.0625 Q426.0313,503.9844 426.0313,502.7031 L426.0313,501.5469 Q426.0313,500.2188 426.6406,499.0781 Q427.2656,497.9219 428.3594,497.3125 Q429.4531,496.6875 430.6875,496.6875 Q431.4219,496.6875 432.0625,496.8594 Q432.7188,497.0156 433.2656,497.375 Z " fill="#000000"/><text fill="#000000" font-family="sans-serif" font-size="14" lengthAdjust="spacing" textLength="131" x="444.5" y="507.2285">MedComCorePatient</text></g><!--MD5=[d64d5c7357c79f774106f79272da7625]
class organization--><g id="elem_organization"><rect codeLine="11" fill="#F1F1F1" height="32" id="organization" rx="2.5" ry="2.5" style="stroke:#181818;stroke-width:0.5;" width="257" x="586.5" y="601"/><ellipse cx="601.5" cy="617" fill="#ADD1B2" rx="11" ry="11" style="stroke:#181818;stroke-width:1.0;"/><path d="M604.2656,612.875 Q604.4219,612.6563 604.6094,612.5469 Q604.7969,612.4375 605.0156,612.4375 Q605.3906,612.4375 605.625,612.7031 Q605.8594,612.9531 605.8594,613.5625 L605.8594,615.0156 Q605.8594,615.625 605.625,615.8906 Q605.3906,616.1563 605.0156,616.1563 Q604.6719,616.1563 604.4688,615.9531 Q604.2656,615.7656 604.1563,615.25 Q604.1094,614.8906 603.9219,614.7031 Q603.5938,614.3281 602.9844,614.1094 Q602.375,613.8906 601.75,613.8906 Q600.9844,613.8906 600.3438,614.2188 Q599.7188,614.5469 599.2188,615.2969 Q598.7344,616.0469 598.7344,617.0781 L598.7344,618.1719 Q598.7344,619.4063 599.625,620.2344 Q600.5156,621.0469 602.1094,621.0469 Q603.0469,621.0469 603.7031,620.7969 Q604.0938,620.6406 604.5156,620.2031 Q604.7813,619.9375 604.9219,619.8594 Q605.0781,619.7813 605.2813,619.7813 Q605.6094,619.7813 605.8594,620.0469 Q606.125,620.2969 606.125,620.6406 Q606.125,620.9844 605.7813,621.3906 Q605.2813,621.9688 604.4844,622.2969 Q603.4063,622.75 602.1094,622.75 Q600.5938,622.75 599.3906,622.125 Q598.4063,621.625 597.7188,620.5625 Q597.0313,619.4844 597.0313,618.2031 L597.0313,617.0469 Q597.0313,615.7188 597.6406,614.5781 Q598.2656,613.4219 599.3594,612.8125 Q600.4531,612.1875 601.6875,612.1875 Q602.4219,612.1875 603.0625,612.3594 Q603.7188,612.5156 604.2656,612.875 Z " fill="#000000"/><text fill="#000000" font-family="sans-serif" font-size="14" lengthAdjust="spacing" textLength="225" x="615.5" y="622.7285">MedComCoreProducerOrganization</text></g><!--MD5=[e983e22c3f4ba1480d19570c62e75e9c]
class diagnosticReport--><g id="elem_diagnosticReport"><rect codeLine="12" fill="#F1F1F1" height="42.7031" id="diagnosticReport" rx="2.5" ry="2.5" style="stroke:#181818;stroke-width:0.5;" width="264" x="466" y="359"/><ellipse cx="481" cy="380.3516" fill="#ADD1B2" rx="11" ry="11" style="stroke:#181818;stroke-width:1.0;"/><path d="M483.7656,376.2266 Q483.9219,376.0078 484.1094,375.8984 Q484.2969,375.7891 484.5156,375.7891 Q484.8906,375.7891 485.125,376.0547 Q485.3594,376.3047 485.3594,376.9141 L485.3594,378.3672 Q485.3594,378.9766 485.125,379.2422 Q484.8906,379.5078 484.5156,379.5078 Q484.1719,379.5078 483.9688,379.3047 Q483.7656,379.1172 483.6563,378.6016 Q483.6094,378.2422 483.4219,378.0547 Q483.0938,377.6797 482.4844,377.4609 Q481.875,377.2422 481.25,377.2422 Q480.4844,377.2422 479.8438,377.5703 Q479.2188,377.8984 478.7188,378.6484 Q478.2344,379.3984 478.2344,380.4297 L478.2344,381.5234 Q478.2344,382.7578 479.125,383.5859 Q480.0156,384.3984 481.6094,384.3984 Q482.5469,384.3984 483.2031,384.1484 Q483.5938,383.9922 484.0156,383.5547 Q484.2813,383.2891 484.4219,383.2109 Q484.5781,383.1328 484.7813,383.1328 Q485.1094,383.1328 485.3594,383.3984 Q485.625,383.6484 485.625,383.9922 Q485.625,384.3359 485.2813,384.7422 Q484.7813,385.3203 483.9844,385.6484 Q482.9063,386.1016 481.6094,386.1016 Q480.0938,386.1016 478.8906,385.4766 Q477.9063,384.9766 477.2188,383.9141 Q476.5313,382.8359 476.5313,381.5547 L476.5313,380.3984 Q476.5313,379.0703 477.1406,377.9297 Q477.7656,376.7734 478.8594,376.1641 Q479.9531,375.5391 481.1875,375.5391 Q481.9219,375.5391 482.5625,375.7109 Q483.2188,375.8672 483.7656,376.2266 Z " fill="#000000"/><text fill="#000000" font-family="sans-serif" font-size="12" font-style="italic" lengthAdjust="spacing" textLength="186" x="518" y="376.457">«MedComCoreDiagnosticReport»</text><text fill="#000000" font-family="sans-serif" font-size="14" lengthAdjust="spacing" textLength="232" x="495" y="393.627">MedComHomeCareDiagnosticReport</text></g><!--MD5=[a96585abe38044d07723f840ff465c16]
class coreobservation--><g id="elem_coreobservation"><rect codeLine="13" fill="#F1F1F1" height="42.7031" id="coreobservation" rx="2.5" ry="2.5" style="stroke:#181818;stroke-width:0.5;" width="232" x="740" y="480"/><ellipse cx="755" cy="501.3516" fill="#ADD1B2" rx="11" ry="11" style="stroke:#181818;stroke-width:1.0;"/><path d="M757.7656,497.2266 Q757.9219,497.0078 758.1094,496.8984 Q758.2969,496.7891 758.5156,496.7891 Q758.8906,496.7891 759.125,497.0547 Q759.3594,497.3047 759.3594,497.9141 L759.3594,499.3672 Q759.3594,499.9766 759.125,500.2422 Q758.8906,500.5078 758.5156,500.5078 Q758.1719,500.5078 757.9688,500.3047 Q757.7656,500.1172 757.6563,499.6016 Q757.6094,499.2422 757.4219,499.0547 Q757.0938,498.6797 756.4844,498.4609 Q755.875,498.2422 755.25,498.2422 Q754.4844,498.2422 753.8438,498.5703 Q753.2188,498.8984 752.7188,499.6484 Q752.2344,500.3984 752.2344,501.4297 L752.2344,502.5234 Q752.2344,503.7578 753.125,504.5859 Q754.0156,505.3984 755.6094,505.3984 Q756.5469,505.3984 757.2031,505.1484 Q757.5938,504.9922 758.0156,504.5547 Q758.2813,504.2891 758.4219,504.2109 Q758.5781,504.1328 758.7813,504.1328 Q759.1094,504.1328 759.3594,504.3984 Q759.625,504.6484 759.625,504.9922 Q759.625,505.3359 759.2813,505.7422 Q758.7813,506.3203 757.9844,506.6484 Q756.9063,507.1016 755.6094,507.1016 Q754.0938,507.1016 752.8906,506.4766 Q751.9063,505.9766 751.2188,504.9141 Q750.5313,503.8359 750.5313,502.5547 L750.5313,501.3984 Q750.5313,500.0703 751.1406,498.9297 Q751.7656,497.7734 752.8594,497.1641 Q753.9531,496.5391 755.1875,496.5391 Q755.9219,496.5391 756.5625,496.7109 Q757.2188,496.8672 757.7656,497.2266 Z " fill="#000000"/><text fill="#000000" font-family="sans-serif" font-size="12" font-style="italic" lengthAdjust="spacing" textLength="158" x="790" y="497.457">«MedComCoreObservation»</text><text fill="#000000" font-family="sans-serif" font-size="14" lengthAdjust="spacing" textLength="200" x="769" y="514.627">MedComHomeCareObservation</text></g><!--MD5=[81a74f5327845c2ce954842e4f46c391]
link message to messageheader--><g id="link_message_messageheader"><path codeLine="15" d="M447.38,50.23 C442.06,92.21 430.03,187.17 424.24,232.92 " fill="none" id="message-to-messageheader" style="stroke:#181818;stroke-width:1.0;"/><polygon fill="#181818" points="423.6,237.99,428.7004,229.5647,424.229,233.0297,420.7639,228.5583,423.6,237.99" style="stroke:#181818;stroke-width:1.0;"/><text fill="#000000" font-family="sans-serif" font-size="13" lengthAdjust="spacing" textLength="29" x="439" y="149.4951">entry</text></g><!--MD5=[e1e9985a6f350ec0650597362e14de10]
link messageheader to diagnosticReport--><g id="link_messageheader_diagnosticReport"><path codeLine="16" d="M451.83,281.23 C482.83,302.07 530.54,334.15 562.96,355.94 " fill="none" id="messageheader-to-diagnosticReport" style="stroke:#181818;stroke-width:1.0;"/><polygon fill="#181818" points="567.23,358.81,561.9934,350.4687,563.0808,356.02,557.5294,357.1074,567.23,358.81" style="stroke:#181818;stroke-width:1.0;"/><text fill="#000000" font-family="sans-serif" font-size="13" lengthAdjust="spacing" textLength="31" x="522" y="325.4951">focus</text></g><!--MD5=[2c58979e8399b1ce29faa9d249424686]
link messageheader to organization--><g id="link_messageheader_organization"><path codeLine="17" d="M410.8,281.09 C388.72,328.95 342.75,449.21 398,523 C424.28,558.1 532.24,584.44 614.94,599.97 " fill="none" id="messageheader-to-organization" style="stroke:#181818;stroke-width:1.0;"/><polygon fill="#181818" points="620.35,600.98,612.2335,595.4013,615.4343,600.0655,610.7702,603.2663,620.35,600.98" style="stroke:#181818;stroke-width:1.0;"/><text fill="#000000" font-family="sans-serif" font-size="13" lengthAdjust="spacing" textLength="39" x="374" y="446.4951">sender</text></g><!--MD5=[81f298224060e516a9ea14ff98c71ca4]
link message to provenance--><g id="link_message_provenance"><path codeLine="18" d="M477.71,50.05 C506.32,71.28 550.55,104.09 578.09,124.52 " fill="none" id="message-to-provenance" style="stroke:#181818;stroke-width:1.0;"/><polygon fill="#181818" points="582.36,127.69,577.5257,119.1093,578.348,124.706,572.7513,125.5284,582.36,127.69" style="stroke:#181818;stroke-width:1.0;"/><text fill="#000000" font-family="sans-serif" font-size="13" lengthAdjust="spacing" textLength="29" x="542" y="94.4951">entry</text></g><!--MD5=[1aa5b919a36df47450e1a6a7cdb64b45]
link provenance to messageheader--><g id="link_provenance_messageheader"><path codeLine="19" d="M578.83,160.07 C547.98,179.31 494.3,212.79 458.21,235.29 " fill="none" id="provenance-to-messageheader" style="stroke:#181818;stroke-width:1.0;"/><polygon fill="#181818" points="453.9,237.98,463.6541,236.6168,458.144,235.3364,459.4243,229.8264,453.9,237.98" style="stroke:#181818;stroke-width:1.0;"/><text fill="#000000" font-family="sans-serif" font-size="13" lengthAdjust="spacing" textLength="33" x="530" y="204.4951">target</text></g><!--MD5=[df78789b268a0a149f5d23d4e89f3481]
link provenance to organization--><g id="link_provenance_organization"><path codeLine="20" d="M719.15,153.51 C844.07,165.94 1025,194.91 1025,258.5 C1025,258.5 1025,258.5 1025,502.5 C1025,548.77 901.7,581.82 810.63,599.92 " fill="none" id="provenance-to-organization" style="stroke:#181818;stroke-width:1.0;"/><polygon fill="#181818" points="805.5,600.93,815.0999,603.1304,810.4073,599.9714,813.5662,595.2788,805.5,600.93" style="stroke:#181818;stroke-width:1.0;"/><text fill="#000000" font-family="sans-serif" font-size="13" lengthAdjust="spacing" textLength="59" x="1026" y="385.9951">agent.who</text></g><!--MD5=[56c2f2cfb24c8eacf57cb1d46166a77b]
link messageheader to observationRequester--><g id="link_messageheader_observationRequester"><path codeLine="21" d="M363.69,281.02 C340.57,289.71 313.78,300.29 290,311 C259.2,324.88 225.4,342.47 199.71,356.35 " fill="none" id="messageheader-to-observationRequester" style="stroke:#181818;stroke-width:1.0;"/><polygon fill="#181818" points="195.01,358.89,204.8284,358.1165,199.4055,356.5067,201.0152,351.0838,195.01,358.89" style="stroke:#181818;stroke-width:1.0;"/><text fill="#000000" font-family="sans-serif" font-size="13" lengthAdjust="spacing" textLength="44" x="291" y="325.4951">receiver</text></g><!--MD5=[47496e079e743b6704f8ffb47327a521]
link diagnosticReport to organization--><g id="link_diagnosticReport_organization"><path codeLine="22" d="M607.91,402.19 C621.18,429.82 645.55,480.25 667,523 C679.77,548.45 694.89,577.59 704.7,596.37 " fill="none" id="diagnosticReport-to-organization" style="stroke:#181818;stroke-width:1.0;"/><polygon fill="#181818" points="707.08,600.91,706.4567,591.0809,704.7642,596.4786,699.3665,594.7861,707.08,600.91" style="stroke:#181818;stroke-width:1.0;"/><text fill="#000000" font-family="sans-serif" font-size="13" lengthAdjust="spacing" textLength="54" x="668" y="506.9951">performer</text></g><!--MD5=[3693126f5e4882afa6398591cd5ccdc9]
link diagnosticReport to patient--><g id="link_diagnosticReport_patient"><path codeLine="23" d="M580.41,402.23 C561.47,424.55 531.58,459.75 513.2,481.41 " fill="none" id="diagnosticReport-to-patient" style="stroke:#181818;stroke-width:1.0;"/><polygon fill="#181818" points="509.91,485.29,518.7777,481.0048,513.1404,481.4736,512.6715,475.8362,509.91,485.29" style="stroke:#181818;stroke-width:1.0;"/><text fill="#000000" font-family="sans-serif" font-size="13" lengthAdjust="spacing" textLength="42" x="555" y="446.4951">subject</text></g><!--MD5=[1f197c178a815dc5a1dfbb48fdfadc47]
link diagnosticReport to coreobservation--><g id="link_diagnosticReport_coreobservation"><path codeLine="24" d="M642.65,402.09 C688.38,423.19 759.31,455.9 806.67,477.75 " fill="none" id="diagnosticReport-to-coreobservation" style="stroke:#181818;stroke-width:1.0;"/><polygon fill="#181818" points="811.47,479.96,804.9598,472.5696,806.926,477.8738,801.6219,479.84,811.47,479.96" style="stroke:#181818;stroke-width:1.0;"/><text fill="#000000" font-family="sans-serif" font-size="13" lengthAdjust="spacing" textLength="32" x="743" y="446.4951">result</text></g><!--MD5=[c1b5b919a9c1cbeb103e231fc0557f2f]
link coreobservation to organization--><g id="link_coreobservation_organization"><path codeLine="25" d="M830.47,523.05 C804.1,544.28 763.33,577.09 737.96,597.52 " fill="none" id="coreobservation-to-organization" style="stroke:#181818;stroke-width:1.0;"/><polygon fill="#181818" points="734.02,600.69,743.5432,598.1785,737.9202,597.5613,738.5373,591.9382,734.02,600.69" style="stroke:#181818;stroke-width:1.0;"/><text fill="#000000" font-family="sans-serif" font-size="13" lengthAdjust="spacing" textLength="54" x="790" y="567.4951">performer</text></g><!--MD5=[d947dfb385014dbad26c85982d2ce0f4]
@startuml HomeCareObservationMessage

hide empty members

top to bottom direction

class "MedComHomeCareObservationMessage" as message <<MedComMessagingMessage>>
class "MedComHomeCareObservationMessageHeader" as messageheader <<MedComMessagingMessageHeader>>
class "MedComMessagingProvenance" as provenance
class "MedComMessagingRequesterOrganization" as observationRequester <<MedComMessagingOrganization>>
class "MedComCorePatient" as patient
class "MedComCoreProducerOrganization" as organization 
class "MedComHomeCareDiagnosticReport" as diagnosticReport <<MedComCoreDiagnosticReport>>
class "MedComHomeCareObservation" as coreobservation <<MedComCoreObservation>>

message - -> messageheader : "entry"
messageheader - -> diagnosticReport : "focus"
messageheader - -> organization : "sender"
message - -> provenance : "entry"
provenance - -> messageheader : "target" 
provenance - -> organization : "agent.who"
messageheader - -> observationRequester : "receiver"
diagnosticReport - -> organization: "performer"
diagnosticReport - -> patient : "subject"
diagnosticReport - -> coreobservation : "result"
coreobservation - -> organization:"performer"

@enduml

PlantUML version 1.2022.7(Mon Aug 22 19:01:30 CEST 2022)
(GPL source distribution)
Java Runtime: Java(TM) SE Runtime Environment
JVM: Java HotSpot(TM) 64-Bit Server VM
Default Encoding: Cp1252
Language: da
Country: DK
--></g></svg>