<?xml version="1.0" encoding="UTF-8" standalone="no"?><svg xmlns="http://www.w3.org/2000/svg" xmlns:xlink="http://www.w3.org/1999/xlink" contentStyleType="text/css" height="640px" preserveAspectRatio="none" style="width:1254px;height:640px;background:#FFFFFF;" version="1.1" viewBox="0 0 1254 640" width="1254px" zoomAndPan="magnify"><defs/><g><!--MD5=[76410cda49e5d7b75c5bd06aa47a685f]
class message--><g id="elem_message"><rect codeLine="6" fill="#F1F1F1" height="42.7031" id="message" rx="2.5" ry="2.5" style="stroke:#181818;stroke-width:0.5;" width="289" x="318.5" y="7"/><ellipse cx="333.5" cy="28.3516" fill="#ADD1B2" rx="11" ry="11" style="stroke:#181818;stroke-width:1.0;"/><path d="M336.2656,24.2266 Q336.4219,24.0078 336.6094,23.8984 Q336.7969,23.7891 337.0156,23.7891 Q337.3906,23.7891 337.625,24.0547 Q337.8594,24.3047 337.8594,24.9141 L337.8594,26.3672 Q337.8594,26.9766 337.625,27.2422 Q337.3906,27.5078 337.0156,27.5078 Q336.6719,27.5078 336.4688,27.3047 Q336.2656,27.1172 336.1563,26.6016 Q336.1094,26.2422 335.9219,26.0547 Q335.5938,25.6797 334.9844,25.4609 Q334.375,25.2422 333.75,25.2422 Q332.9844,25.2422 332.3438,25.5703 Q331.7188,25.8984 331.2188,26.6484 Q330.7344,27.3984 330.7344,28.4297 L330.7344,29.5234 Q330.7344,30.7578 331.625,31.5859 Q332.5156,32.3984 334.1094,32.3984 Q335.0469,32.3984 335.7031,32.1484 Q336.0938,31.9922 336.5156,31.5547 Q336.7813,31.2891 336.9219,31.2109 Q337.0781,31.1328 337.2813,31.1328 Q337.6094,31.1328 337.8594,31.3984 Q338.125,31.6484 338.125,31.9922 Q338.125,32.3359 337.7813,32.7422 Q337.2813,33.3203 336.4844,33.6484 Q335.4063,34.1016 334.1094,34.1016 Q332.5938,34.1016 331.3906,33.4766 Q330.4063,32.9766 329.7188,31.9141 Q329.0313,30.8359 329.0313,29.5547 L329.0313,28.3984 Q329.0313,27.0703 329.6406,25.9297 Q330.2656,24.7734 331.3594,24.1641 Q332.4531,23.5391 333.6875,23.5391 Q334.4219,23.5391 335.0625,23.7109 Q335.7188,23.8672 336.2656,24.2266 Z " fill="#000000"/><text fill="#000000" font-family="sans-serif" font-size="12" font-style="italic" lengthAdjust="spacing" textLength="172" x="390" y="24.457">«MedComMessagingMessage»</text><text fill="#000000" font-family="sans-serif" font-size="14" lengthAdjust="spacing" textLength="257" x="347.5" y="41.627">MedComHomeCareObservationMessage</text></g><!--MD5=[8450471b43f9def5175bba9f4f9f2aaf]
class messageheader--><g id="elem_messageheader"><rect codeLine="7" fill="#F1F1F1" height="42.7031" id="messageheader" rx="2.5" ry="2.5" style="stroke:#181818;stroke-width:0.5;" width="335" x="266.5" y="238"/><ellipse cx="281.5" cy="259.3516" fill="#ADD1B2" rx="11" ry="11" style="stroke:#181818;stroke-width:1.0;"/><path d="M284.2656,255.2266 Q284.4219,255.0078 284.6094,254.8984 Q284.7969,254.7891 285.0156,254.7891 Q285.3906,254.7891 285.625,255.0547 Q285.8594,255.3047 285.8594,255.9141 L285.8594,257.3672 Q285.8594,257.9766 285.625,258.2422 Q285.3906,258.5078 285.0156,258.5078 Q284.6719,258.5078 284.4688,258.3047 Q284.2656,258.1172 284.1563,257.6016 Q284.1094,257.2422 283.9219,257.0547 Q283.5938,256.6797 282.9844,256.4609 Q282.375,256.2422 281.75,256.2422 Q280.9844,256.2422 280.3438,256.5703 Q279.7188,256.8984 279.2188,257.6484 Q278.7344,258.3984 278.7344,259.4297 L278.7344,260.5234 Q278.7344,261.7578 279.625,262.5859 Q280.5156,263.3984 282.1094,263.3984 Q283.0469,263.3984 283.7031,263.1484 Q284.0938,262.9922 284.5156,262.5547 Q284.7813,262.2891 284.9219,262.2109 Q285.0781,262.1328 285.2813,262.1328 Q285.6094,262.1328 285.8594,262.3984 Q286.125,262.6484 286.125,262.9922 Q286.125,263.3359 285.7813,263.7422 Q285.2813,264.3203 284.4844,264.6484 Q283.4063,265.1016 282.1094,265.1016 Q280.5938,265.1016 279.3906,264.4766 Q278.4063,263.9766 277.7188,262.9141 Q277.0313,261.8359 277.0313,260.5547 L277.0313,259.3984 Q277.0313,258.0703 277.6406,256.9297 Q278.2656,255.7734 279.3594,255.1641 Q280.4531,254.5391 281.6875,254.5391 Q282.4219,254.5391 283.0625,254.7109 Q283.7188,254.8672 284.2656,255.2266 Z " fill="#000000"/><text fill="#000000" font-family="sans-serif" font-size="12" font-style="italic" lengthAdjust="spacing" textLength="213" x="340.5" y="255.457">«MedComMessagingMessageHeader»</text><text fill="#000000" font-family="sans-serif" font-size="14" lengthAdjust="spacing" textLength="303" x="295.5" y="272.627">MedComHomeCareObservationMessageHeader</text></g><!--MD5=[134450525739527685064faa304c6b67]
class provenance--><g id="elem_provenance"><rect codeLine="8" fill="#F1F1F1" height="32" id="provenance" rx="2.5" ry="2.5" style="stroke:#181818;stroke-width:0.5;" width="232" x="500" y="128"/><ellipse cx="515" cy="144" fill="#ADD1B2" rx="11" ry="11" style="stroke:#181818;stroke-width:1.0;"/><path d="M517.7656,139.875 Q517.9219,139.6563 518.1094,139.5469 Q518.2969,139.4375 518.5156,139.4375 Q518.8906,139.4375 519.125,139.7031 Q519.3594,139.9531 519.3594,140.5625 L519.3594,142.0156 Q519.3594,142.625 519.125,142.8906 Q518.8906,143.1563 518.5156,143.1563 Q518.1719,143.1563 517.9688,142.9531 Q517.7656,142.7656 517.6563,142.25 Q517.6094,141.8906 517.4219,141.7031 Q517.0938,141.3281 516.4844,141.1094 Q515.875,140.8906 515.25,140.8906 Q514.4844,140.8906 513.8438,141.2188 Q513.2188,141.5469 512.7188,142.2969 Q512.2344,143.0469 512.2344,144.0781 L512.2344,145.1719 Q512.2344,146.4063 513.125,147.2344 Q514.0156,148.0469 515.6094,148.0469 Q516.5469,148.0469 517.2031,147.7969 Q517.5938,147.6406 518.0156,147.2031 Q518.2813,146.9375 518.4219,146.8594 Q518.5781,146.7813 518.7813,146.7813 Q519.1094,146.7813 519.3594,147.0469 Q519.625,147.2969 519.625,147.6406 Q519.625,147.9844 519.2813,148.3906 Q518.7813,148.9688 517.9844,149.2969 Q516.9063,149.75 515.6094,149.75 Q514.0938,149.75 512.8906,149.125 Q511.9063,148.625 511.2188,147.5625 Q510.5313,146.4844 510.5313,145.2031 L510.5313,144.0469 Q510.5313,142.7188 511.1406,141.5781 Q511.7656,140.4219 512.8594,139.8125 Q513.9531,139.1875 515.1875,139.1875 Q515.9219,139.1875 516.5625,139.3594 Q517.2188,139.5156 517.7656,139.875 Z " fill="#000000"/><text fill="#000000" font-family="sans-serif" font-size="14" lengthAdjust="spacing" textLength="200" x="529" y="149.7285">MedComMessagingProvenance</text></g><!--MD5=[d4169e35ccdaba65b2d0699c27e25023]
class observationRequester--><g id="elem_observationRequester"><rect codeLine="9" fill="#F1F1F1" height="42.7031" id="observationRequester" rx="2.5" ry="2.5" style="stroke:#181818;stroke-width:0.5;" width="302" x="7" y="359"/><ellipse cx="22" cy="380.3516" fill="#ADD1B2" rx="11" ry="11" style="stroke:#181818;stroke-width:1.0;"/><path d="M24.7656,376.2266 Q24.9219,376.0078 25.1094,375.8984 Q25.2969,375.7891 25.5156,375.7891 Q25.8906,375.7891 26.125,376.0547 Q26.3594,376.3047 26.3594,376.9141 L26.3594,378.3672 Q26.3594,378.9766 26.125,379.2422 Q25.8906,379.5078 25.5156,379.5078 Q25.1719,379.5078 24.9688,379.3047 Q24.7656,379.1172 24.6563,378.6016 Q24.6094,378.2422 24.4219,378.0547 Q24.0938,377.6797 23.4844,377.4609 Q22.875,377.2422 22.25,377.2422 Q21.4844,377.2422 20.8438,377.5703 Q20.2188,377.8984 19.7188,378.6484 Q19.2344,379.3984 19.2344,380.4297 L19.2344,381.5234 Q19.2344,382.7578 20.125,383.5859 Q21.0156,384.3984 22.6094,384.3984 Q23.5469,384.3984 24.2031,384.1484 Q24.5938,383.9922 25.0156,383.5547 Q25.2813,383.2891 25.4219,383.2109 Q25.5781,383.1328 25.7813,383.1328 Q26.1094,383.1328 26.3594,383.3984 Q26.625,383.6484 26.625,383.9922 Q26.625,384.3359 26.2813,384.7422 Q25.7813,385.3203 24.9844,385.6484 Q23.9063,386.1016 22.6094,386.1016 Q21.0938,386.1016 19.8906,385.4766 Q18.9063,384.9766 18.2188,383.9141 Q17.5313,382.8359 17.5313,381.5547 L17.5313,380.3984 Q17.5313,379.0703 18.1406,377.9297 Q18.7656,376.7734 19.8594,376.1641 Q20.9531,375.5391 22.1875,375.5391 Q22.9219,375.5391 23.5625,375.7109 Q24.2188,375.8672 24.7656,376.2266 Z " fill="#000000"/><text fill="#000000" font-family="sans-serif" font-size="12" font-style="italic" lengthAdjust="spacing" textLength="194" x="74" y="376.457">«MedComMessagingOrganization»</text><text fill="#000000" font-family="sans-serif" font-size="14" lengthAdjust="spacing" textLength="270" x="36" y="393.627">MedComMessagingRequesterOrganization</text></g><!--MD5=[86fcfc7a3ddeef2443f03e9b03bcacd4]
class patient--><g id="elem_patient"><rect codeLine="10" fill="#F1F1F1" height="32" id="patient" rx="2.5" ry="2.5" style="stroke:#181818;stroke-width:0.5;" width="163" x="415.5" y="485.5"/><ellipse cx="430.5" cy="501.5" fill="#ADD1B2" rx="11" ry="11" style="stroke:#181818;stroke-width:1.0;"/><path d="M433.2656,497.375 Q433.4219,497.1563 433.6094,497.0469 Q433.7969,496.9375 434.0156,496.9375 Q434.3906,496.9375 434.625,497.2031 Q434.8594,497.4531 434.8594,498.0625 L434.8594,499.5156 Q434.8594,500.125 434.625,500.3906 Q434.3906,500.6563 434.0156,500.6563 Q433.6719,500.6563 433.4688,500.4531 Q433.2656,500.2656 433.1563,499.75 Q433.1094,499.3906 432.9219,499.2031 Q432.5938,498.8281 431.9844,498.6094 Q431.375,498.3906 430.75,498.3906 Q429.9844,498.3906 429.3438,498.7188 Q428.7188,499.0469 428.2188,499.7969 Q427.7344,500.5469 427.7344,501.5781 L427.7344,502.6719 Q427.7344,503.9063 428.625,504.7344 Q429.5156,505.5469 431.1094,505.5469 Q432.0469,505.5469 432.7031,505.2969 Q433.0938,505.1406 433.5156,504.7031 Q433.7813,504.4375 433.9219,504.3594 Q434.0781,504.2813 434.2813,504.2813 Q434.6094,504.2813 434.8594,504.5469 Q435.125,504.7969 435.125,505.1406 Q435.125,505.4844 434.7813,505.8906 Q434.2813,506.4688 433.4844,506.7969 Q432.4063,507.25 431.1094,507.25 Q429.5938,507.25 428.3906,506.625 Q427.4063,506.125 426.7188,505.0625 Q426.0313,503.9844 426.0313,502.7031 L426.0313,501.5469 Q426.0313,500.2188 426.6406,499.0781 Q427.2656,497.9219 428.3594,497.3125 Q429.4531,496.6875 430.6875,496.6875 Q431.4219,496.6875 432.0625,496.8594 Q432.7188,497.0156 433.2656,497.375 Z " fill="#000000"/><text fill="#000000" font-family="sans-serif" font-size="14" lengthAdjust="spacing" textLength="131" x="444.5" y="507.2285">MedComCorePatient</text></g><!--MD5=[d64d5c7357c79f774106f79272da7625]
class organization--><g id="elem_organization"><rect codeLine="11" fill="#F1F1F1" height="32" id="organization" rx="2.5" ry="2.5" style="stroke:#181818;stroke-width:0.5;" width="257" x="586.5" y="601"/><ellipse cx="601.5" cy="617" fill="#ADD1B2" rx="11" ry="11" style="stroke:#181818;stroke-width:1.0;"/><path d="M604.2656,612.875 Q604.4219,612.6563 604.6094,612.5469 Q604.7969,612.4375 605.0156,612.4375 Q605.3906,612.4375 605.625,612.7031 Q605.8594,612.9531 605.8594,613.5625 L605.8594,615.0156 Q605.8594,615.625 605.625,615.8906 Q605.3906,616.1563 605.0156,616.1563 Q604.6719,616.1563 604.4688,615.9531 Q604.2656,615.7656 604.1563,615.25 Q604.1094,614.8906 603.9219,614.7031 Q603.5938,614.3281 602.9844,614.1094 Q602.375,613.8906 601.75,613.8906 Q600.9844,613.8906 600.3438,614.2188 Q599.7188,614.5469 599.2188,615.2969 Q598.7344,616.0469 598.7344,617.0781 L598.7344,618.1719 Q598.7344,619.4063 599.625,620.2344 Q600.5156,621.0469 602.1094,621.0469 Q603.0469,621.0469 603.7031,620.7969 Q604.0938,620.6406 604.5156,620.2031 Q604.7813,619.9375 604.9219,619.8594 Q605.0781,619.7813 605.2813,619.7813 Q605.6094,619.7813 605.8594,620.0469 Q606.125,620.2969 606.125,620.6406 Q606.125,620.9844 605.7813,621.3906 Q605.2813,621.9688 604.4844,622.2969 Q603.4063,622.75 602.1094,622.75 Q600.5938,622.75 599.3906,622.125 Q598.4063,621.625 597.7188,620.5625 Q597.0313,619.4844 597.0313,618.2031 L597.0313,617.0469 Q597.0313,615.7188 597.6406,614.5781 Q598.2656,613.4219 599.3594,612.8125 Q600.4531,612.1875 601.6875,612.1875 Q602.4219,612.1875 603.0625,612.3594 Q603.7188,612.5156 604.2656,612.875 Z " fill="#000000"/><text fill="#000000" font-family="sans-serif" font-size="14" lengthAdjust="spacing" textLength="225" x="615.5" y="622.7285">MedComCoreProducerOrganization</text></g><!--MD5=[e983e22c3f4ba1480d19570c62e75e9c]
class diagnosticReport--><g id="elem_diagnosticReport"><rect codeLine="12" fill="#F1F1F1" height="42.7031" id="diagnosticReport" rx="2.5" ry="2.5" style="stroke:#181818;stroke-width:0.5;" width="264" x="517" y="359"/><ellipse cx="532" cy="380.3516" fill="#ADD1B2" rx="11" ry="11" style="stroke:#181818;stroke-width:1.0;"/><path d="M534.7656,376.2266 Q534.9219,376.0078 535.1094,375.8984 Q535.2969,375.7891 535.5156,375.7891 Q535.8906,375.7891 536.125,376.0547 Q536.3594,376.3047 536.3594,376.9141 L536.3594,378.3672 Q536.3594,378.9766 536.125,379.2422 Q535.8906,379.5078 535.5156,379.5078 Q535.1719,379.5078 534.9688,379.3047 Q534.7656,379.1172 534.6563,378.6016 Q534.6094,378.2422 534.4219,378.0547 Q534.0938,377.6797 533.4844,377.4609 Q532.875,377.2422 532.25,377.2422 Q531.4844,377.2422 530.8438,377.5703 Q530.2188,377.8984 529.7188,378.6484 Q529.2344,379.3984 529.2344,380.4297 L529.2344,381.5234 Q529.2344,382.7578 530.125,383.5859 Q531.0156,384.3984 532.6094,384.3984 Q533.5469,384.3984 534.2031,384.1484 Q534.5938,383.9922 535.0156,383.5547 Q535.2813,383.2891 535.4219,383.2109 Q535.5781,383.1328 535.7813,383.1328 Q536.1094,383.1328 536.3594,383.3984 Q536.625,383.6484 536.625,383.9922 Q536.625,384.3359 536.2813,384.7422 Q535.7813,385.3203 534.9844,385.6484 Q533.9063,386.1016 532.6094,386.1016 Q531.0938,386.1016 529.8906,385.4766 Q528.9063,384.9766 528.2188,383.9141 Q527.5313,382.8359 527.5313,381.5547 L527.5313,380.3984 Q527.5313,379.0703 528.1406,377.9297 Q528.7656,376.7734 529.8594,376.1641 Q530.9531,375.5391 532.1875,375.5391 Q532.9219,375.5391 533.5625,375.7109 Q534.2188,375.8672 534.7656,376.2266 Z " fill="#000000"/><text fill="#000000" font-family="sans-serif" font-size="12" font-style="italic" lengthAdjust="spacing" textLength="186" x="569" y="376.457">«MedComCoreDiagnosticReport»</text><text fill="#000000" font-family="sans-serif" font-size="14" lengthAdjust="spacing" textLength="232" x="546" y="393.627">MedComHomeCareDiagnosticReport</text></g><!--MD5=[a96585abe38044d07723f840ff465c16]
class coreobservation--><g id="elem_coreobservation"><rect codeLine="13" fill="#F1F1F1" height="42.7031" id="coreobservation" rx="2.5" ry="2.5" style="stroke:#181818;stroke-width:0.5;" width="232" x="740" y="480"/><ellipse cx="755" cy="501.3516" fill="#ADD1B2" rx="11" ry="11" style="stroke:#181818;stroke-width:1.0;"/><path d="M757.7656,497.2266 Q757.9219,497.0078 758.1094,496.8984 Q758.2969,496.7891 758.5156,496.7891 Q758.8906,496.7891 759.125,497.0547 Q759.3594,497.3047 759.3594,497.9141 L759.3594,499.3672 Q759.3594,499.9766 759.125,500.2422 Q758.8906,500.5078 758.5156,500.5078 Q758.1719,500.5078 757.9688,500.3047 Q757.7656,500.1172 757.6563,499.6016 Q757.6094,499.2422 757.4219,499.0547 Q757.0938,498.6797 756.4844,498.4609 Q755.875,498.2422 755.25,498.2422 Q754.4844,498.2422 753.8438,498.5703 Q753.2188,498.8984 752.7188,499.6484 Q752.2344,500.3984 752.2344,501.4297 L752.2344,502.5234 Q752.2344,503.7578 753.125,504.5859 Q754.0156,505.3984 755.6094,505.3984 Q756.5469,505.3984 757.2031,505.1484 Q757.5938,504.9922 758.0156,504.5547 Q758.2813,504.2891 758.4219,504.2109 Q758.5781,504.1328 758.7813,504.1328 Q759.1094,504.1328 759.3594,504.3984 Q759.625,504.6484 759.625,504.9922 Q759.625,505.3359 759.2813,505.7422 Q758.7813,506.3203 757.9844,506.6484 Q756.9063,507.1016 755.6094,507.1016 Q754.0938,507.1016 752.8906,506.4766 Q751.9063,505.9766 751.2188,504.9141 Q750.5313,503.8359 750.5313,502.5547 L750.5313,501.3984 Q750.5313,500.0703 751.1406,498.9297 Q751.7656,497.7734 752.8594,497.1641 Q753.9531,496.5391 755.1875,496.5391 Q755.9219,496.5391 756.5625,496.7109 Q757.2188,496.8672 757.7656,497.2266 Z " fill="#000000"/><text fill="#000000" font-family="sans-serif" font-size="12" font-style="italic" lengthAdjust="spacing" textLength="158" x="790" y="497.457">«MedComCoreObservation»</text><text fill="#000000" font-family="sans-serif" font-size="14" lengthAdjust="spacing" textLength="200" x="769" y="514.627">MedComHomeCareObservation</text></g><!--MD5=[aa898b20e385a7003938c33fd5d2e29b]
class media--><g id="elem_media"><rect codeLine="14" fill="#F1F1F1" height="32" id="media" rx="2.5" ry="2.5" style="stroke:#181818;stroke-width:0.5;" width="126" x="1007" y="485.5"/><ellipse cx="1022" cy="501.5" fill="#ADD1B2" rx="11" ry="11" style="stroke:#181818;stroke-width:1.0;"/><path d="M1024.7656,497.375 Q1024.9219,497.1563 1025.1094,497.0469 Q1025.2969,496.9375 1025.5156,496.9375 Q1025.8906,496.9375 1026.125,497.2031 Q1026.3594,497.4531 1026.3594,498.0625 L1026.3594,499.5156 Q1026.3594,500.125 1026.125,500.3906 Q1025.8906,500.6563 1025.5156,500.6563 Q1025.1719,500.6563 1024.9688,500.4531 Q1024.7656,500.2656 1024.6563,499.75 Q1024.6094,499.3906 1024.4219,499.2031 Q1024.0938,498.8281 1023.4844,498.6094 Q1022.875,498.3906 1022.25,498.3906 Q1021.4844,498.3906 1020.8438,498.7188 Q1020.2188,499.0469 1019.7188,499.7969 Q1019.2344,500.5469 1019.2344,501.5781 L1019.2344,502.6719 Q1019.2344,503.9063 1020.125,504.7344 Q1021.0156,505.5469 1022.6094,505.5469 Q1023.5469,505.5469 1024.2031,505.2969 Q1024.5938,505.1406 1025.0156,504.7031 Q1025.2813,504.4375 1025.4219,504.3594 Q1025.5781,504.2813 1025.7813,504.2813 Q1026.1094,504.2813 1026.3594,504.5469 Q1026.625,504.7969 1026.625,505.1406 Q1026.625,505.4844 1026.2813,505.8906 Q1025.7813,506.4688 1024.9844,506.7969 Q1023.9063,507.25 1022.6094,507.25 Q1021.0938,507.25 1019.8906,506.625 Q1018.9063,506.125 1018.2188,505.0625 Q1017.5313,503.9844 1017.5313,502.7031 L1017.5313,501.5469 Q1017.5313,500.2188 1018.1406,499.0781 Q1018.7656,497.9219 1019.8594,497.3125 Q1020.9531,496.6875 1022.1875,496.6875 Q1022.9219,496.6875 1023.5625,496.8594 Q1024.2188,497.0156 1024.7656,497.375 Z " fill="#000000"/><text fill="#000000" font-family="sans-serif" font-size="14" lengthAdjust="spacing" textLength="94" x="1036" y="507.2285">MedComMedia</text></g><!--MD5=[81a74f5327845c2ce954842e4f46c391]
link message to messageheader--><g id="link_message_messageheader"><path codeLine="16" d="M460.38,50.23 C455.06,92.21 443.03,187.17 437.24,232.92 " fill="none" id="message-to-messageheader" style="stroke:#181818;stroke-width:1.0;"/><polygon fill="#181818" points="436.6,237.99,441.7004,229.5647,437.229,233.0297,433.7639,228.5583,436.6,237.99" style="stroke:#181818;stroke-width:1.0;"/><text fill="#000000" font-family="sans-serif" font-size="13" lengthAdjust="spacing" textLength="29" x="452" y="149.4951">entry</text></g><!--MD5=[e1e9985a6f350ec0650597362e14de10]
link messageheader to diagnosticReport--><g id="link_messageheader_diagnosticReport"><path codeLine="17" d="M471.45,281.23 C509.25,302.15 567.53,334.41 606.91,356.21 " fill="none" id="messageheader-to-diagnosticReport" style="stroke:#181818;stroke-width:1.0;"/><polygon fill="#181818" points="611.62,358.81,605.6755,350.9574,607.2432,356.3927,601.8079,357.9604,611.62,358.81" style="stroke:#181818;stroke-width:1.0;"/><text fill="#000000" font-family="sans-serif" font-size="13" lengthAdjust="spacing" textLength="31" x="556" y="325.4951">focus</text></g><!--MD5=[2c58979e8399b1ce29faa9d249424686]
link messageheader to organization--><g id="link_messageheader_organization"><path codeLine="18" d="M422.25,281.04 C396.65,328.78 342.44,448.81 398,523 C424.28,558.1 532.24,584.44 614.94,599.97 " fill="none" id="messageheader-to-organization" style="stroke:#181818;stroke-width:1.0;"/><polygon fill="#181818" points="620.35,600.98,612.2335,595.4013,615.4343,600.0655,610.7702,603.2663,620.35,600.98" style="stroke:#181818;stroke-width:1.0;"/><text fill="#000000" font-family="sans-serif" font-size="13" lengthAdjust="spacing" textLength="39" x="376" y="446.4951">sender</text></g><!--MD5=[81f298224060e516a9ea14ff98c71ca4]
link message to provenance--><g id="link_message_provenance"><path codeLine="19" d="M490.71,50.05 C519.32,71.28 563.55,104.09 591.09,124.52 " fill="none" id="message-to-provenance" style="stroke:#181818;stroke-width:1.0;"/><polygon fill="#181818" points="595.36,127.69,590.5257,119.1093,591.348,124.706,585.7513,125.5284,595.36,127.69" style="stroke:#181818;stroke-width:1.0;"/><text fill="#000000" font-family="sans-serif" font-size="13" lengthAdjust="spacing" textLength="29" x="555" y="94.4951">entry</text></g><!--MD5=[1aa5b919a36df47450e1a6a7cdb64b45]
link provenance to messageheader--><g id="link_provenance_messageheader"><path codeLine="20" d="M591.83,160.07 C560.98,179.31 507.3,212.79 471.21,235.29 " fill="none" id="provenance-to-messageheader" style="stroke:#181818;stroke-width:1.0;"/><polygon fill="#181818" points="466.9,237.98,476.6541,236.6168,471.144,235.3364,472.4243,229.8264,466.9,237.98" style="stroke:#181818;stroke-width:1.0;"/><text fill="#000000" font-family="sans-serif" font-size="13" lengthAdjust="spacing" textLength="33" x="543" y="204.4951">target</text></g><!--MD5=[df78789b268a0a149f5d23d4e89f3481]
link provenance to organization--><g id="link_provenance_organization"><path codeLine="21" d="M732.04,144.96 C898.69,148.1 1186,166.81 1186,258.5 C1186,258.5 1186,258.5 1186,502.5 C1186,572.26 988.27,599.27 849.04,609.64 " fill="none" id="provenance-to-organization" style="stroke:#181818;stroke-width:1.0;"/><polygon fill="#181818" points="843.7,610.03,852.9723,613.3503,848.6862,609.6585,852.378,605.3724,843.7,610.03" style="stroke:#181818;stroke-width:1.0;"/><text fill="#000000" font-family="sans-serif" font-size="13" lengthAdjust="spacing" textLength="59" x="1187" y="385.9951">agent.who</text></g><!--MD5=[56c2f2cfb24c8eacf57cb1d46166a77b]
link messageheader to observationRequester--><g id="link_messageheader_observationRequester"><path codeLine="22" d="M369.09,281.08 C344.07,289.58 315.41,300.02 290,311 C258.76,324.5 224.7,342.26 199.01,356.31 " fill="none" id="messageheader-to-observationRequester" style="stroke:#181818;stroke-width:1.0;"/><polygon fill="#181818" points="194.31,358.89,204.1242,358.065,198.6929,356.4837,200.2742,351.0524,194.31,358.89" style="stroke:#181818;stroke-width:1.0;"/><text fill="#000000" font-family="sans-serif" font-size="13" lengthAdjust="spacing" textLength="44" x="291" y="325.4951">receiver</text></g><!--MD5=[47496e079e743b6704f8ffb47327a521]
link diagnosticReport to organization--><g id="link_diagnosticReport_organization"><path codeLine="23" d="M649.15,402.14 C649.86,430.14 653.04,481.43 666,523 C674.41,549.98 690.58,578.36 702.04,596.56 " fill="none" id="diagnosticReport-to-organization" style="stroke:#181818;stroke-width:1.0;"/><polygon fill="#181818" points="704.85,600.96,703.4013,591.2183,702.1693,596.7393,696.6482,595.5074,704.85,600.96" style="stroke:#181818;stroke-width:1.0;"/><text fill="#000000" font-family="sans-serif" font-size="13" lengthAdjust="spacing" textLength="54" x="667" y="506.9951">performer</text></g><!--MD5=[3693126f5e4882afa6398591cd5ccdc9]
link diagnosticReport to patient--><g id="link_diagnosticReport_patient"><path codeLine="24" d="M619.37,402.17 C606.77,411.14 592.02,421.89 579,432 C557.93,448.37 534.66,467.96 518.3,481.99 " fill="none" id="diagnosticReport-to-patient" style="stroke:#181818;stroke-width:1.0;"/><polygon fill="#181818" points="514.3,485.44,523.7312,482.6023,518.0902,482.179,518.5136,476.538,514.3,485.44" style="stroke:#181818;stroke-width:1.0;"/><text fill="#000000" font-family="sans-serif" font-size="13" lengthAdjust="spacing" textLength="42" x="580" y="446.4951">subject</text></g><!--MD5=[1f197c178a815dc5a1dfbb48fdfadc47]
link diagnosticReport to coreobservation--><g id="link_diagnosticReport_coreobservation"><path codeLine="25" d="M685.06,402.23 C721.45,423.15 777.56,455.41 815.48,477.21 " fill="none" id="diagnosticReport-to-coreobservation" style="stroke:#181818;stroke-width:1.0;"/><polygon fill="#181818" points="820.01,479.81,814.2057,471.8533,815.6767,477.3155,810.2145,478.7865,820.01,479.81" style="stroke:#181818;stroke-width:1.0;"/><text fill="#000000" font-family="sans-serif" font-size="13" lengthAdjust="spacing" textLength="32" x="766" y="446.4951">result</text></g><!--MD5=[4fa38e8dd9333e36d2da3b18b4be9862]
link diagnosticReport to media--><g id="link_diagnosticReport_media"><path codeLine="26" d="M721.85,402.09 C804.06,425.33 936.16,462.67 1011.8,484.05 " fill="none" id="diagnosticReport-to-media" style="stroke:#181818;stroke-width:1.0;"/><polygon fill="#181818" points="1016.7,485.43,1009.1229,479.1381,1011.8876,484.0734,1006.9523,486.838,1016.7,485.43" style="stroke:#181818;stroke-width:1.0;"/><text fill="#000000" font-family="sans-serif" font-size="13" lengthAdjust="spacing" textLength="65" x="886" y="446.4951">attachment</text></g><!--MD5=[c1b5b919a9c1cbeb103e231fc0557f2f]
link coreobservation to organization--><g id="link_coreobservation_organization"><path codeLine="27" d="M830.47,523.05 C804.1,544.28 763.33,577.09 737.96,597.52 " fill="none" id="coreobservation-to-organization" style="stroke:#181818;stroke-width:1.0;"/><polygon fill="#181818" points="734.02,600.69,743.5432,598.1785,737.9202,597.5613,738.5373,591.9382,734.02,600.69" style="stroke:#181818;stroke-width:1.0;"/><text fill="#000000" font-family="sans-serif" font-size="13" lengthAdjust="spacing" textLength="54" x="791" y="567.4951">performer</text></g><!--MD5=[49146ffeada68971768c8ec5d3198627]
@startuml HomeCareObservationMessage

hide empty members

top to bottom direction

class "MedComHomeCareObservationMessage" as message <<MedComMessagingMessage>>
class "MedComHomeCareObservationMessageHeader" as messageheader <<MedComMessagingMessageHeader>>
class "MedComMessagingProvenance" as provenance
class "MedComMessagingRequesterOrganization" as observationRequester <<MedComMessagingOrganization>>
class "MedComCorePatient" as patient
class "MedComCoreProducerOrganization" as organization 
class "MedComHomeCareDiagnosticReport" as diagnosticReport <<MedComCoreDiagnosticReport>>
class "MedComHomeCareObservation" as coreobservation <<MedComCoreObservation>>
class "MedComMedia" as media

message - -> messageheader : "entry"
messageheader - -> diagnosticReport : "focus"
messageheader - -> organization : "sender"
message - -> provenance : "entry"
provenance - -> messageheader : "target" 
provenance - -> organization : "agent.who"
messageheader - -> observationRequester : "receiver"
diagnosticReport - -> organization: "performer"
diagnosticReport - -> patient : "subject"
diagnosticReport - -> coreobservation : "result"
diagnosticReport- -> media : "attachment"
coreobservation - -> organization:"performer"

@enduml

PlantUML version 1.2022.7(Mon Aug 22 19:01:30 CEST 2022)
(GPL source distribution)
Java Runtime: Java(TM) SE Runtime Environment
JVM: Java HotSpot(TM) 64-Bit Server VM
Default Encoding: Cp1252
Language: da
Country: DK
--></g></svg>