<?xml version="1.0" encoding="UTF-8" standalone="no"?><svg xmlns="http://www.w3.org/2000/svg" xmlns:xlink="http://www.w3.org/1999/xlink" contentStyleType="text/css" height="640px" preserveAspectRatio="none" style="width:643px;height:640px;background:#FFFFFF;" version="1.1" viewBox="0 0 643 640" width="643px" zoomAndPan="magnify"><defs/><g><!--MD5=[76410cda49e5d7b75c5bd06aa47a685f]
class message--><g id="elem_message"><rect codeLine="6" fill="#F1F1F1" height="42.7031" id="message" rx="2.5" ry="2.5" style="stroke:#181818;stroke-width:0.5;" width="212" x="261.5" y="7"/><ellipse cx="276.5" cy="28.3516" fill="#ADD1B2" rx="11" ry="11" style="stroke:#181818;stroke-width:1.0;"/><path d="M279.2656,24.2266 Q279.4219,24.0078 279.6094,23.8984 Q279.7969,23.7891 280.0156,23.7891 Q280.3906,23.7891 280.625,24.0547 Q280.8594,24.3047 280.8594,24.9141 L280.8594,26.3672 Q280.8594,26.9766 280.625,27.2422 Q280.3906,27.5078 280.0156,27.5078 Q279.6719,27.5078 279.4688,27.3047 Q279.2656,27.1172 279.1563,26.6016 Q279.1094,26.2422 278.9219,26.0547 Q278.5938,25.6797 277.9844,25.4609 Q277.375,25.2422 276.75,25.2422 Q275.9844,25.2422 275.3438,25.5703 Q274.7188,25.8984 274.2188,26.6484 Q273.7344,27.3984 273.7344,28.4297 L273.7344,29.5234 Q273.7344,30.7578 274.625,31.5859 Q275.5156,32.3984 277.1094,32.3984 Q278.0469,32.3984 278.7031,32.1484 Q279.0938,31.9922 279.5156,31.5547 Q279.7813,31.2891 279.9219,31.2109 Q280.0781,31.1328 280.2813,31.1328 Q280.6094,31.1328 280.8594,31.3984 Q281.125,31.6484 281.125,31.9922 Q281.125,32.3359 280.7813,32.7422 Q280.2813,33.3203 279.4844,33.6484 Q278.4063,34.1016 277.1094,34.1016 Q275.5938,34.1016 274.3906,33.4766 Q273.4063,32.9766 272.7188,31.9141 Q272.0313,30.8359 272.0313,29.5547 L272.0313,28.3984 Q272.0313,27.0703 272.6406,25.9297 Q273.2656,24.7734 274.3594,24.1641 Q275.4531,23.5391 276.6875,23.5391 Q277.4219,23.5391 278.0625,23.7109 Q278.7188,23.8672 279.2656,24.2266 Z " fill="#000000"/><text fill="#000000" font-family="sans-serif" font-size="12" font-style="italic" lengthAdjust="spacing" textLength="172" x="294.5" y="24.457">«MedComMessagingMessage»</text><text fill="#000000" font-family="sans-serif" font-size="14" lengthAdjust="spacing" textLength="180" x="290.5" y="41.627">MedComHomeCareMessage</text></g><!--MD5=[8450471b43f9def5175bba9f4f9f2aaf]
class messageheader--><g id="elem_messageheader"><rect codeLine="7" fill="#F1F1F1" height="42.7031" id="messageheader" rx="2.5" ry="2.5" style="stroke:#181818;stroke-width:0.5;" width="258" x="209.5" y="238"/><ellipse cx="224.5" cy="259.3516" fill="#ADD1B2" rx="11" ry="11" style="stroke:#181818;stroke-width:1.0;"/><path d="M227.2656,255.2266 Q227.4219,255.0078 227.6094,254.8984 Q227.7969,254.7891 228.0156,254.7891 Q228.3906,254.7891 228.625,255.0547 Q228.8594,255.3047 228.8594,255.9141 L228.8594,257.3672 Q228.8594,257.9766 228.625,258.2422 Q228.3906,258.5078 228.0156,258.5078 Q227.6719,258.5078 227.4688,258.3047 Q227.2656,258.1172 227.1563,257.6016 Q227.1094,257.2422 226.9219,257.0547 Q226.5938,256.6797 225.9844,256.4609 Q225.375,256.2422 224.75,256.2422 Q223.9844,256.2422 223.3438,256.5703 Q222.7188,256.8984 222.2188,257.6484 Q221.7344,258.3984 221.7344,259.4297 L221.7344,260.5234 Q221.7344,261.7578 222.625,262.5859 Q223.5156,263.3984 225.1094,263.3984 Q226.0469,263.3984 226.7031,263.1484 Q227.0938,262.9922 227.5156,262.5547 Q227.7813,262.2891 227.9219,262.2109 Q228.0781,262.1328 228.2813,262.1328 Q228.6094,262.1328 228.8594,262.3984 Q229.125,262.6484 229.125,262.9922 Q229.125,263.3359 228.7813,263.7422 Q228.2813,264.3203 227.4844,264.6484 Q226.4063,265.1016 225.1094,265.1016 Q223.5938,265.1016 222.3906,264.4766 Q221.4063,263.9766 220.7188,262.9141 Q220.0313,261.8359 220.0313,260.5547 L220.0313,259.3984 Q220.0313,258.0703 220.6406,256.9297 Q221.2656,255.7734 222.3594,255.1641 Q223.4531,254.5391 224.6875,254.5391 Q225.4219,254.5391 226.0625,254.7109 Q226.7188,254.8672 227.2656,255.2266 Z " fill="#000000"/><text fill="#000000" font-family="sans-serif" font-size="12" font-style="italic" lengthAdjust="spacing" textLength="213" x="245" y="255.457">«MedComMessagingMessageHeader»</text><text fill="#000000" font-family="sans-serif" font-size="14" lengthAdjust="spacing" textLength="226" x="238.5" y="272.627">MedComHomeCareMessageHeader</text></g><!--MD5=[134450525739527685064faa304c6b67]
class provenance--><g id="elem_provenance"><rect codeLine="8" fill="#F1F1F1" height="32" id="provenance" rx="2.5" ry="2.5" style="stroke:#181818;stroke-width:0.5;" width="232" x="404.5" y="128"/><ellipse cx="419.5" cy="144" fill="#ADD1B2" rx="11" ry="11" style="stroke:#181818;stroke-width:1.0;"/><path d="M422.2656,139.875 Q422.4219,139.6563 422.6094,139.5469 Q422.7969,139.4375 423.0156,139.4375 Q423.3906,139.4375 423.625,139.7031 Q423.8594,139.9531 423.8594,140.5625 L423.8594,142.0156 Q423.8594,142.625 423.625,142.8906 Q423.3906,143.1563 423.0156,143.1563 Q422.6719,143.1563 422.4688,142.9531 Q422.2656,142.7656 422.1563,142.25 Q422.1094,141.8906 421.9219,141.7031 Q421.5938,141.3281 420.9844,141.1094 Q420.375,140.8906 419.75,140.8906 Q418.9844,140.8906 418.3438,141.2188 Q417.7188,141.5469 417.2188,142.2969 Q416.7344,143.0469 416.7344,144.0781 L416.7344,145.1719 Q416.7344,146.4063 417.625,147.2344 Q418.5156,148.0469 420.1094,148.0469 Q421.0469,148.0469 421.7031,147.7969 Q422.0938,147.6406 422.5156,147.2031 Q422.7813,146.9375 422.9219,146.8594 Q423.0781,146.7813 423.2813,146.7813 Q423.6094,146.7813 423.8594,147.0469 Q424.125,147.2969 424.125,147.6406 Q424.125,147.9844 423.7813,148.3906 Q423.2813,148.9688 422.4844,149.2969 Q421.4063,149.75 420.1094,149.75 Q418.5938,149.75 417.3906,149.125 Q416.4063,148.625 415.7188,147.5625 Q415.0313,146.4844 415.0313,145.2031 L415.0313,144.0469 Q415.0313,142.7188 415.6406,141.5781 Q416.2656,140.4219 417.3594,139.8125 Q418.4531,139.1875 419.6875,139.1875 Q420.4219,139.1875 421.0625,139.3594 Q421.7188,139.5156 422.2656,139.875 Z " fill="#000000"/><text fill="#000000" font-family="sans-serif" font-size="14" lengthAdjust="spacing" textLength="200" x="433.5" y="149.7285">MedComMessagingProvenance</text></g><!--MD5=[5495acc25b34ab1dab9fd35d8e775d03]
class messagingOrganization--><g id="elem_messagingOrganization"><rect codeLine="9" fill="#F1F1F1" height="42.7031" id="messagingOrganization" rx="2.5" ry="2.5" style="stroke:#181818;stroke-width:0.5;" width="236" x="382.5" y="359"/><ellipse cx="397.5" cy="380.3516" fill="#ADD1B2" rx="11" ry="11" style="stroke:#181818;stroke-width:1.0;"/><path d="M400.2656,376.2266 Q400.4219,376.0078 400.6094,375.8984 Q400.7969,375.7891 401.0156,375.7891 Q401.3906,375.7891 401.625,376.0547 Q401.8594,376.3047 401.8594,376.9141 L401.8594,378.3672 Q401.8594,378.9766 401.625,379.2422 Q401.3906,379.5078 401.0156,379.5078 Q400.6719,379.5078 400.4688,379.3047 Q400.2656,379.1172 400.1563,378.6016 Q400.1094,378.2422 399.9219,378.0547 Q399.5938,377.6797 398.9844,377.4609 Q398.375,377.2422 397.75,377.2422 Q396.9844,377.2422 396.3438,377.5703 Q395.7188,377.8984 395.2188,378.6484 Q394.7344,379.3984 394.7344,380.4297 L394.7344,381.5234 Q394.7344,382.7578 395.625,383.5859 Q396.5156,384.3984 398.1094,384.3984 Q399.0469,384.3984 399.7031,384.1484 Q400.0938,383.9922 400.5156,383.5547 Q400.7813,383.2891 400.9219,383.2109 Q401.0781,383.1328 401.2813,383.1328 Q401.6094,383.1328 401.8594,383.3984 Q402.125,383.6484 402.125,383.9922 Q402.125,384.3359 401.7813,384.7422 Q401.2813,385.3203 400.4844,385.6484 Q399.4063,386.1016 398.1094,386.1016 Q396.5938,386.1016 395.3906,385.4766 Q394.4063,384.9766 393.7188,383.9141 Q393.0313,382.8359 393.0313,381.5547 L393.0313,380.3984 Q393.0313,379.0703 393.6406,377.9297 Q394.2656,376.7734 395.3594,376.1641 Q396.4531,375.5391 397.6875,375.5391 Q398.4219,375.5391 399.0625,375.7109 Q399.7188,375.8672 400.2656,376.2266 Z " fill="#000000"/><text fill="#000000" font-family="sans-serif" font-size="12" font-style="italic" lengthAdjust="spacing" textLength="162" x="432.5" y="376.457">«MedComCoreOrganization»</text><text fill="#000000" font-family="sans-serif" font-size="14" lengthAdjust="spacing" textLength="204" x="411.5" y="393.627">MedComMessagingOrganization</text></g><!--MD5=[86fcfc7a3ddeef2443f03e9b03bcacd4]
class patient--><g id="elem_patient"><rect codeLine="10" fill="#F1F1F1" height="32" id="patient" rx="2.5" ry="2.5" style="stroke:#181818;stroke-width:0.5;" width="163" x="7" y="485.5"/><ellipse cx="22" cy="501.5" fill="#ADD1B2" rx="11" ry="11" style="stroke:#181818;stroke-width:1.0;"/><path d="M24.7656,497.375 Q24.9219,497.1563 25.1094,497.0469 Q25.2969,496.9375 25.5156,496.9375 Q25.8906,496.9375 26.125,497.2031 Q26.3594,497.4531 26.3594,498.0625 L26.3594,499.5156 Q26.3594,500.125 26.125,500.3906 Q25.8906,500.6563 25.5156,500.6563 Q25.1719,500.6563 24.9688,500.4531 Q24.7656,500.2656 24.6563,499.75 Q24.6094,499.3906 24.4219,499.2031 Q24.0938,498.8281 23.4844,498.6094 Q22.875,498.3906 22.25,498.3906 Q21.4844,498.3906 20.8438,498.7188 Q20.2188,499.0469 19.7188,499.7969 Q19.2344,500.5469 19.2344,501.5781 L19.2344,502.6719 Q19.2344,503.9063 20.125,504.7344 Q21.0156,505.5469 22.6094,505.5469 Q23.5469,505.5469 24.2031,505.2969 Q24.5938,505.1406 25.0156,504.7031 Q25.2813,504.4375 25.4219,504.3594 Q25.5781,504.2813 25.7813,504.2813 Q26.1094,504.2813 26.3594,504.5469 Q26.625,504.7969 26.625,505.1406 Q26.625,505.4844 26.2813,505.8906 Q25.7813,506.4688 24.9844,506.7969 Q23.9063,507.25 22.6094,507.25 Q21.0938,507.25 19.8906,506.625 Q18.9063,506.125 18.2188,505.0625 Q17.5313,503.9844 17.5313,502.7031 L17.5313,501.5469 Q17.5313,500.2188 18.1406,499.0781 Q18.7656,497.9219 19.8594,497.3125 Q20.9531,496.6875 22.1875,496.6875 Q22.9219,496.6875 23.5625,496.8594 Q24.2188,497.0156 24.7656,497.375 Z " fill="#000000"/><text fill="#000000" font-family="sans-serif" font-size="14" lengthAdjust="spacing" textLength="131" x="36" y="507.2285">MedComCorePatient</text></g><!--MD5=[d64d5c7357c79f774106f79272da7625]
class organization--><g id="elem_organization"><rect codeLine="11" fill="#F1F1F1" height="32" id="organization" rx="2.5" ry="2.5" style="stroke:#181818;stroke-width:0.5;" width="303" x="118" y="601"/><ellipse cx="133" cy="617" fill="#ADD1B2" rx="11" ry="11" style="stroke:#181818;stroke-width:1.0;"/><path d="M135.7656,612.875 Q135.9219,612.6563 136.1094,612.5469 Q136.2969,612.4375 136.5156,612.4375 Q136.8906,612.4375 137.125,612.7031 Q137.3594,612.9531 137.3594,613.5625 L137.3594,615.0156 Q137.3594,615.625 137.125,615.8906 Q136.8906,616.1563 136.5156,616.1563 Q136.1719,616.1563 135.9688,615.9531 Q135.7656,615.7656 135.6563,615.25 Q135.6094,614.8906 135.4219,614.7031 Q135.0938,614.3281 134.4844,614.1094 Q133.875,613.8906 133.25,613.8906 Q132.4844,613.8906 131.8438,614.2188 Q131.2188,614.5469 130.7188,615.2969 Q130.2344,616.0469 130.2344,617.0781 L130.2344,618.1719 Q130.2344,619.4063 131.125,620.2344 Q132.0156,621.0469 133.6094,621.0469 Q134.5469,621.0469 135.2031,620.7969 Q135.5938,620.6406 136.0156,620.2031 Q136.2813,619.9375 136.4219,619.8594 Q136.5781,619.7813 136.7813,619.7813 Q137.1094,619.7813 137.3594,620.0469 Q137.625,620.2969 137.625,620.6406 Q137.625,620.9844 137.2813,621.3906 Q136.7813,621.9688 135.9844,622.2969 Q134.9063,622.75 133.6094,622.75 Q132.0938,622.75 130.8906,622.125 Q129.9063,621.625 129.2188,620.5625 Q128.5313,619.4844 128.5313,618.2031 L128.5313,617.0469 Q128.5313,615.7188 129.1406,614.5781 Q129.7656,613.4219 130.8594,612.8125 Q131.9531,612.1875 133.1875,612.1875 Q133.9219,612.1875 134.5625,612.3594 Q135.2188,612.5156 135.7656,612.875 Z " fill="#000000"/><text fill="#000000" font-family="sans-serif" font-size="14" lengthAdjust="spacing" textLength="271" x="147" y="622.7285">MedComObservationProducerOrganization</text></g><!--MD5=[e983e22c3f4ba1480d19570c62e75e9c]
class diagnosticReport--><g id="elem_diagnosticReport"><rect codeLine="13" fill="#F1F1F1" height="42.7031" id="diagnosticReport" rx="2.5" ry="2.5" style="stroke:#181818;stroke-width:0.5;" width="214" x="133.5" y="359"/><ellipse cx="148.5" cy="380.3516" fill="#ADD1B2" rx="11" ry="11" style="stroke:#181818;stroke-width:1.0;"/><path d="M151.2656,376.2266 Q151.4219,376.0078 151.6094,375.8984 Q151.7969,375.7891 152.0156,375.7891 Q152.3906,375.7891 152.625,376.0547 Q152.8594,376.3047 152.8594,376.9141 L152.8594,378.3672 Q152.8594,378.9766 152.625,379.2422 Q152.3906,379.5078 152.0156,379.5078 Q151.6719,379.5078 151.4688,379.3047 Q151.2656,379.1172 151.1563,378.6016 Q151.1094,378.2422 150.9219,378.0547 Q150.5938,377.6797 149.9844,377.4609 Q149.375,377.2422 148.75,377.2422 Q147.9844,377.2422 147.3438,377.5703 Q146.7188,377.8984 146.2188,378.6484 Q145.7344,379.3984 145.7344,380.4297 L145.7344,381.5234 Q145.7344,382.7578 146.625,383.5859 Q147.5156,384.3984 149.1094,384.3984 Q150.0469,384.3984 150.7031,384.1484 Q151.0938,383.9922 151.5156,383.5547 Q151.7813,383.2891 151.9219,383.2109 Q152.0781,383.1328 152.2813,383.1328 Q152.6094,383.1328 152.8594,383.3984 Q153.125,383.6484 153.125,383.9922 Q153.125,384.3359 152.7813,384.7422 Q152.2813,385.3203 151.4844,385.6484 Q150.4063,386.1016 149.1094,386.1016 Q147.5938,386.1016 146.3906,385.4766 Q145.4063,384.9766 144.7188,383.9141 Q144.0313,382.8359 144.0313,381.5547 L144.0313,380.3984 Q144.0313,379.0703 144.6406,377.9297 Q145.2656,376.7734 146.3594,376.1641 Q147.4531,375.5391 148.6875,375.5391 Q149.4219,375.5391 150.0625,375.7109 Q150.7188,375.8672 151.2656,376.2266 Z " fill="#000000"/><text fill="#000000" font-family="sans-serif" font-size="12" font-style="italic" lengthAdjust="spacing" textLength="186" x="160.5" y="376.457">«MedComCoreDiagnosticReport»</text><text fill="#000000" font-family="sans-serif" font-size="14" lengthAdjust="spacing" textLength="110" x="198.5" y="393.627">HomeCareReport</text></g><!--MD5=[a96585abe38044d07723f840ff465c16]
class coreobservation--><g id="elem_coreobservation"><rect codeLine="14" fill="#F1F1F1" height="42.7031" id="coreobservation" rx="2.5" ry="2.5" style="stroke:#181818;stroke-width:0.5;" width="186" x="331.5" y="480"/><ellipse cx="346.5" cy="501.3516" fill="#ADD1B2" rx="11" ry="11" style="stroke:#181818;stroke-width:1.0;"/><path d="M349.2656,497.2266 Q349.4219,497.0078 349.6094,496.8984 Q349.7969,496.7891 350.0156,496.7891 Q350.3906,496.7891 350.625,497.0547 Q350.8594,497.3047 350.8594,497.9141 L350.8594,499.3672 Q350.8594,499.9766 350.625,500.2422 Q350.3906,500.5078 350.0156,500.5078 Q349.6719,500.5078 349.4688,500.3047 Q349.2656,500.1172 349.1563,499.6016 Q349.1094,499.2422 348.9219,499.0547 Q348.5938,498.6797 347.9844,498.4609 Q347.375,498.2422 346.75,498.2422 Q345.9844,498.2422 345.3438,498.5703 Q344.7188,498.8984 344.2188,499.6484 Q343.7344,500.3984 343.7344,501.4297 L343.7344,502.5234 Q343.7344,503.7578 344.625,504.5859 Q345.5156,505.3984 347.1094,505.3984 Q348.0469,505.3984 348.7031,505.1484 Q349.0938,504.9922 349.5156,504.5547 Q349.7813,504.2891 349.9219,504.2109 Q350.0781,504.1328 350.2813,504.1328 Q350.6094,504.1328 350.8594,504.3984 Q351.125,504.6484 351.125,504.9922 Q351.125,505.3359 350.7813,505.7422 Q350.2813,506.3203 349.4844,506.6484 Q348.4063,507.1016 347.1094,507.1016 Q345.5938,507.1016 344.3906,506.4766 Q343.4063,505.9766 342.7188,504.9141 Q342.0313,503.8359 342.0313,502.5547 L342.0313,501.3984 Q342.0313,500.0703 342.6406,498.9297 Q343.2656,497.7734 344.3594,497.1641 Q345.4531,496.5391 346.6875,496.5391 Q347.4219,496.5391 348.0625,496.7109 Q348.7188,496.8672 349.2656,497.2266 Z " fill="#000000"/><text fill="#000000" font-family="sans-serif" font-size="12" font-style="italic" lengthAdjust="spacing" textLength="158" x="358.5" y="497.457">«MedComCoreObservation»</text><text fill="#000000" font-family="sans-serif" font-size="14" lengthAdjust="spacing" textLength="144" x="365.5" y="514.627">HomeCareObservation</text></g><!--MD5=[81a74f5327845c2ce954842e4f46c391]
link message to messageheader--><g id="link_message_messageheader"><path codeLine="16" d="M364.88,50.23 C359.35,93.83 346.6,194.57 341.1,237.99 " fill="none" id="message-messageheader" style="stroke:#181818;stroke-width:1.0;"/><text fill="#000000" font-family="sans-serif" font-size="13" lengthAdjust="spacing" textLength="29" x="356.5" y="149.4951">entry</text></g><!--MD5=[e1e9985a6f350ec0650597362e14de10]
link messageheader to diagnosticReport--><g id="link_messageheader_diagnosticReport"><path codeLine="17" d="M321.43,281.23 C303.55,302.94 275.63,336.84 257.7,358.61 " fill="none" id="messageheader-diagnosticReport" style="stroke:#181818;stroke-width:1.0;"/><text fill="#000000" font-family="sans-serif" font-size="13" lengthAdjust="spacing" textLength="31" x="296.5" y="325.4951">focus</text></g><!--MD5=[81f298224060e516a9ea14ff98c71ca4]
link message to provenance--><g id="link_message_provenance"><path codeLine="18" d="M395.21,50.05 C425.35,72.41 472.83,107.64 499.86,127.69 " fill="none" id="message-provenance" style="stroke:#181818;stroke-width:1.0;"/><text fill="#000000" font-family="sans-serif" font-size="13" lengthAdjust="spacing" textLength="29" x="458.5" y="94.4951">entry</text></g><!--MD5=[1aa5b919a36df47450e1a6a7cdb64b45]
link provenance to messageheader--><g id="link_provenance_messageheader"><path codeLine="19" d="M496.33,160.07 C464.23,180.09 407.4,215.53 371.4,237.98 " fill="none" id="provenance-messageheader" style="stroke:#181818;stroke-width:1.0;"/><text fill="#000000" font-family="sans-serif" font-size="13" lengthAdjust="spacing" textLength="33" x="446.5" y="204.4951">target</text></g><!--MD5=[f47a36da2de5ae8806a1be3932325292]
link provenance to messagingOrganization--><g id="link_provenance_messagingOrganization"><path codeLine="20" d="M519.22,160.03 C515.76,200.56 506.24,312.23 502.27,358.74 " fill="none" id="provenance-messagingOrganization" style="stroke:#181818;stroke-width:1.0;"/><text fill="#000000" font-family="sans-serif" font-size="13" lengthAdjust="spacing" textLength="59" x="512.5" y="264.9951">agent.who</text></g><!--MD5=[3693126f5e4882afa6398591cd5ccdc9]
link diagnosticReport to patient--><g id="link_diagnosticReport_patient"><path codeLine="21" d="M210.87,402.17 C198.27,411.14 183.52,421.89 170.5,432 C147.65,449.75 122.2,471.31 105.8,485.44 " fill="none" id="diagnosticReport-patient" style="stroke:#181818;stroke-width:1.0;"/><text fill="#000000" font-family="sans-serif" font-size="13" lengthAdjust="spacing" textLength="42" x="171.5" y="446.4951">subject</text></g><!--MD5=[47496e079e743b6704f8ffb47327a521]
link diagnosticReport to organization--><g id="link_diagnosticReport_organization"><path codeLine="22" d="M242.92,402.13 C246.17,429.69 252.15,480.03 257.5,523 C260.92,550.46 265.09,582.46 267.51,600.86 " fill="none" id="diagnosticReport-organization" style="stroke:#181818;stroke-width:1.0;"/><text fill="#000000" font-family="sans-serif" font-size="13" lengthAdjust="spacing" textLength="54" x="258.5" y="506.9951">performer</text></g><!--MD5=[1f197c178a815dc5a1dfbb48fdfadc47]
link diagnosticReport to coreobservation--><g id="link_diagnosticReport_coreobservation"><path codeLine="23" d="M272.55,402.23 C306.22,424 358.86,458.05 392.51,479.81 " fill="none" id="diagnosticReport-coreobservation" style="stroke:#181818;stroke-width:1.0;"/><text fill="#000000" font-family="sans-serif" font-size="13" lengthAdjust="spacing" textLength="32" x="345.5" y="446.4951">result</text></g><!--MD5=[c1b5b919a9c1cbeb103e231fc0557f2f]
link coreobservation to organization--><g id="link_coreobservation_organization"><path codeLine="24" d="M396.43,523.05 C365.9,545.41 317.79,580.64 290.41,600.69 " fill="none" id="coreobservation-organization" style="stroke:#181818;stroke-width:1.0;"/><text fill="#000000" font-family="sans-serif" font-size="13" lengthAdjust="spacing" textLength="54" x="353.5" y="567.4951">performer</text></g><!--MD5=[7068c6a302bec6a421fbf6e526f1486a]
link messageheader to messagingOrganization--><g id="link_messageheader_messagingOrganization"><path codeLine="27" d="M376.22,281.24 C391.03,289.87 407.94,300.36 422.5,311 C442.73,325.78 463.98,344.7 479.19,358.91 " fill="none" id="messageheader-messagingOrganization" style="stroke:#181818;stroke-width:1.0;"/><text fill="#000000" font-family="sans-serif" font-size="13" lengthAdjust="spacing" textLength="44" x="446.5" y="325.4951">receiver</text></g><!--MD5=[7068c6a302bec6a421fbf6e526f1486a]
link messageheader to messagingOrganization--><g id="link_messageheader_messagingOrganization"><path codeLine="28" d="M344.68,281.24 C350.11,296.28 359.38,316.14 373.5,329 C387.63,341.86 405.43,351.62 423.19,358.97 " fill="none" id="messageheader-messagingOrganization-1" style="stroke:#181818;stroke-width:1.0;"/><text fill="#000000" font-family="sans-serif" font-size="13" lengthAdjust="spacing" textLength="39" x="374.5" y="325.4951">sender</text></g><!--MD5=[ee474bef7cfa275a4b1c1c2ca2f33f21]
@startuml HomeCareObservationMessage

hide empty members

top to bottom direction

class "MedComHomeCareMessage" as message <<MedComMessagingMessage>>
class "MedComHomeCareMessageHeader" as messageheader <<MedComMessagingMessageHeader>>
class "MedComMessagingProvenance" as provenance
class "MedComMessagingOrganization" as messagingOrganization <<MedComCoreOrganization>>
class "MedComCorePatient" as patient
class "MedComObservationProducerOrganization" as organization
' class "MedComCorePractitioner" as author
class "HomeCareReport" as diagnosticReport <<MedComCoreDiagnosticReport>>
class "HomeCareObservation" as coreobservation <<MedComCoreObservation>>

message - - messageheader : "entry"
messageheader - - diagnosticReport : "focus"
message - - provenance : "entry"
provenance - - messageheader : "target" 
provenance - - messagingOrganization : "agent.who"
diagnosticReport - - patient : "subject"
diagnosticReport - - organization: "performer"
diagnosticReport - - coreobservation : "result"
coreobservation - - organization:"performer"


messageheader - - messagingOrganization : "receiver"
messageheader - - messagingOrganization : "sender"

@enduml

@startuml HomeCareObservationMessage

hide empty members

top to bottom direction

class "MedComHomeCareMessage" as message <<MedComMessagingMessage>>
class "MedComHomeCareMessageHeader" as messageheader <<MedComMessagingMessageHeader>>
class "MedComMessagingProvenance" as provenance
class "MedComMessagingOrganization" as messagingOrganization <<MedComCoreOrganization>>
class "MedComCorePatient" as patient
class "MedComObservationProducerOrganization" as organization
class "HomeCareReport" as diagnosticReport <<MedComCoreDiagnosticReport>>
class "HomeCareObservation" as coreobservation <<MedComCoreObservation>>

message - - messageheader : "entry"
messageheader - - diagnosticReport : "focus"
message - - provenance : "entry"
provenance - - messageheader : "target" 
provenance - - messagingOrganization : "agent.who"
diagnosticReport - - patient : "subject"
diagnosticReport - - organization: "performer"
diagnosticReport - - coreobservation : "result"
coreobservation - - organization:"performer"


messageheader - - messagingOrganization : "receiver"
messageheader - - messagingOrganization : "sender"

@enduml

PlantUML version 1.2022.7(Mon Aug 22 19:01:30 CEST 2022)
(GPL source distribution)
Java Runtime: Java(TM) SE Runtime Environment
JVM: Java HotSpot(TM) 64-Bit Server VM
Default Encoding: Cp1252
Language: da
Country: DK
--></g></svg>