<?xml version="1.0" encoding="UTF-8" standalone="no"?><svg xmlns="http://www.w3.org/2000/svg" xmlns:xlink="http://www.w3.org/1999/xlink" contentStyleType="text/css" height="288px" preserveAspectRatio="none" style="width:570px;height:288px;background:#FFFFFF;" version="1.1" viewBox="0 0 570 288" width="570px" zoomAndPan="magnify"><defs/><g><!--MD5=[86fcfc7a3ddeef2443f03e9b03bcacd4]
class patient--><g id="elem_patient"><rect codeLine="4" fill="#F1F1F1" height="32" id="patient" rx="2.5" ry="2.5" style="stroke:#181818;stroke-width:0.5;" width="163" x="7" y="133.5"/><ellipse cx="22" cy="149.5" fill="#ADD1B2" rx="11" ry="11" style="stroke:#181818;stroke-width:1.0;"/><path d="M24.7656,145.375 Q24.9219,145.1563 25.1094,145.0469 Q25.2969,144.9375 25.5156,144.9375 Q25.8906,144.9375 26.125,145.2031 Q26.3594,145.4531 26.3594,146.0625 L26.3594,147.5156 Q26.3594,148.125 26.125,148.3906 Q25.8906,148.6563 25.5156,148.6563 Q25.1719,148.6563 24.9688,148.4531 Q24.7656,148.2656 24.6563,147.75 Q24.6094,147.3906 24.4219,147.2031 Q24.0938,146.8281 23.4844,146.6094 Q22.875,146.3906 22.25,146.3906 Q21.4844,146.3906 20.8438,146.7188 Q20.2188,147.0469 19.7188,147.7969 Q19.2344,148.5469 19.2344,149.5781 L19.2344,150.6719 Q19.2344,151.9063 20.125,152.7344 Q21.0156,153.5469 22.6094,153.5469 Q23.5469,153.5469 24.2031,153.2969 Q24.5938,153.1406 25.0156,152.7031 Q25.2813,152.4375 25.4219,152.3594 Q25.5781,152.2813 25.7813,152.2813 Q26.1094,152.2813 26.3594,152.5469 Q26.625,152.7969 26.625,153.1406 Q26.625,153.4844 26.2813,153.8906 Q25.7813,154.4688 24.9844,154.7969 Q23.9063,155.25 22.6094,155.25 Q21.0938,155.25 19.8906,154.625 Q18.9063,154.125 18.2188,153.0625 Q17.5313,151.9844 17.5313,150.7031 L17.5313,149.5469 Q17.5313,148.2188 18.1406,147.0781 Q18.7656,145.9219 19.8594,145.3125 Q20.9531,144.6875 22.1875,144.6875 Q22.9219,144.6875 23.5625,144.8594 Q24.2188,145.0156 24.7656,145.375 Z " fill="#000000"/><text fill="#000000" font-family="sans-serif" font-size="14" lengthAdjust="spacing" textLength="131" x="36" y="155.2285">MedComCorePatient</text></g><!--MD5=[d64d5c7357c79f774106f79272da7625]
class organization--><g id="elem_organization"><rect codeLine="5" fill="#F1F1F1" height="32" id="organization" rx="2.5" ry="2.5" style="stroke:#181818;stroke-width:0.5;" width="226" x="156.5" y="249"/><ellipse cx="171.5" cy="265" fill="#ADD1B2" rx="11" ry="11" style="stroke:#181818;stroke-width:1.0;"/><path d="M174.2656,260.875 Q174.4219,260.6563 174.6094,260.5469 Q174.7969,260.4375 175.0156,260.4375 Q175.3906,260.4375 175.625,260.7031 Q175.8594,260.9531 175.8594,261.5625 L175.8594,263.0156 Q175.8594,263.625 175.625,263.8906 Q175.3906,264.1563 175.0156,264.1563 Q174.6719,264.1563 174.4688,263.9531 Q174.2656,263.7656 174.1563,263.25 Q174.1094,262.8906 173.9219,262.7031 Q173.5938,262.3281 172.9844,262.1094 Q172.375,261.8906 171.75,261.8906 Q170.9844,261.8906 170.3438,262.2188 Q169.7188,262.5469 169.2188,263.2969 Q168.7344,264.0469 168.7344,265.0781 L168.7344,266.1719 Q168.7344,267.4063 169.625,268.2344 Q170.5156,269.0469 172.1094,269.0469 Q173.0469,269.0469 173.7031,268.7969 Q174.0938,268.6406 174.5156,268.2031 Q174.7813,267.9375 174.9219,267.8594 Q175.0781,267.7813 175.2813,267.7813 Q175.6094,267.7813 175.8594,268.0469 Q176.125,268.2969 176.125,268.6406 Q176.125,268.9844 175.7813,269.3906 Q175.2813,269.9688 174.4844,270.2969 Q173.4063,270.75 172.1094,270.75 Q170.5938,270.75 169.3906,270.125 Q168.4063,269.625 167.7188,268.5625 Q167.0313,267.4844 167.0313,266.2031 L167.0313,265.0469 Q167.0313,263.7188 167.6406,262.5781 Q168.2656,261.4219 169.3594,260.8125 Q170.4531,260.1875 171.6875,260.1875 Q172.4219,260.1875 173.0625,260.3594 Q173.7188,260.5156 174.2656,260.875 Z " fill="#000000"/><text fill="#000000" font-family="sans-serif" font-size="14" lengthAdjust="spacing" textLength="194" x="185.5" y="270.7285">MedComProducerOrganization</text></g><!--MD5=[e983e22c3f4ba1480d19570c62e75e9c]
class diagnosticReport--><g id="elem_diagnosticReport"><rect codeLine="6" fill="#F1F1F1" height="42.7031" id="diagnosticReport" rx="2.5" ry="2.5" style="stroke:#181818;stroke-width:0.5;" width="264" x="108.5" y="7"/><ellipse cx="123.5" cy="28.3516" fill="#ADD1B2" rx="11" ry="11" style="stroke:#181818;stroke-width:1.0;"/><path d="M126.2656,24.2266 Q126.4219,24.0078 126.6094,23.8984 Q126.7969,23.7891 127.0156,23.7891 Q127.3906,23.7891 127.625,24.0547 Q127.8594,24.3047 127.8594,24.9141 L127.8594,26.3672 Q127.8594,26.9766 127.625,27.2422 Q127.3906,27.5078 127.0156,27.5078 Q126.6719,27.5078 126.4688,27.3047 Q126.2656,27.1172 126.1563,26.6016 Q126.1094,26.2422 125.9219,26.0547 Q125.5938,25.6797 124.9844,25.4609 Q124.375,25.2422 123.75,25.2422 Q122.9844,25.2422 122.3438,25.5703 Q121.7188,25.8984 121.2188,26.6484 Q120.7344,27.3984 120.7344,28.4297 L120.7344,29.5234 Q120.7344,30.7578 121.625,31.5859 Q122.5156,32.3984 124.1094,32.3984 Q125.0469,32.3984 125.7031,32.1484 Q126.0938,31.9922 126.5156,31.5547 Q126.7813,31.2891 126.9219,31.2109 Q127.0781,31.1328 127.2813,31.1328 Q127.6094,31.1328 127.8594,31.3984 Q128.125,31.6484 128.125,31.9922 Q128.125,32.3359 127.7813,32.7422 Q127.2813,33.3203 126.4844,33.6484 Q125.4063,34.1016 124.1094,34.1016 Q122.5938,34.1016 121.3906,33.4766 Q120.4063,32.9766 119.7188,31.9141 Q119.0313,30.8359 119.0313,29.5547 L119.0313,28.3984 Q119.0313,27.0703 119.6406,25.9297 Q120.2656,24.7734 121.3594,24.1641 Q122.4531,23.5391 123.6875,23.5391 Q124.4219,23.5391 125.0625,23.7109 Q125.7188,23.8672 126.2656,24.2266 Z " fill="#000000"/><text fill="#000000" font-family="sans-serif" font-size="12" font-style="italic" lengthAdjust="spacing" textLength="186" x="160.5" y="24.457">«MedComCoreDiagnosticReport»</text><text fill="#000000" font-family="sans-serif" font-size="14" lengthAdjust="spacing" textLength="232" x="137.5" y="41.627">MedComHomeCareDiagnosticReport</text></g><!--MD5=[a96585abe38044d07723f840ff465c16]
class coreobservation--><g id="elem_coreobservation"><rect codeLine="7" fill="#F1F1F1" height="42.7031" id="coreobservation" rx="2.5" ry="2.5" style="stroke:#181818;stroke-width:0.5;" width="232" x="331.5" y="128"/><ellipse cx="346.5" cy="149.3516" fill="#ADD1B2" rx="11" ry="11" style="stroke:#181818;stroke-width:1.0;"/><path d="M349.2656,145.2266 Q349.4219,145.0078 349.6094,144.8984 Q349.7969,144.7891 350.0156,144.7891 Q350.3906,144.7891 350.625,145.0547 Q350.8594,145.3047 350.8594,145.9141 L350.8594,147.3672 Q350.8594,147.9766 350.625,148.2422 Q350.3906,148.5078 350.0156,148.5078 Q349.6719,148.5078 349.4688,148.3047 Q349.2656,148.1172 349.1563,147.6016 Q349.1094,147.2422 348.9219,147.0547 Q348.5938,146.6797 347.9844,146.4609 Q347.375,146.2422 346.75,146.2422 Q345.9844,146.2422 345.3438,146.5703 Q344.7188,146.8984 344.2188,147.6484 Q343.7344,148.3984 343.7344,149.4297 L343.7344,150.5234 Q343.7344,151.7578 344.625,152.5859 Q345.5156,153.3984 347.1094,153.3984 Q348.0469,153.3984 348.7031,153.1484 Q349.0938,152.9922 349.5156,152.5547 Q349.7813,152.2891 349.9219,152.2109 Q350.0781,152.1328 350.2813,152.1328 Q350.6094,152.1328 350.8594,152.3984 Q351.125,152.6484 351.125,152.9922 Q351.125,153.3359 350.7813,153.7422 Q350.2813,154.3203 349.4844,154.6484 Q348.4063,155.1016 347.1094,155.1016 Q345.5938,155.1016 344.3906,154.4766 Q343.4063,153.9766 342.7188,152.9141 Q342.0313,151.8359 342.0313,150.5547 L342.0313,149.3984 Q342.0313,148.0703 342.6406,146.9297 Q343.2656,145.7734 344.3594,145.1641 Q345.4531,144.5391 346.6875,144.5391 Q347.4219,144.5391 348.0625,144.7109 Q348.7188,144.8672 349.2656,145.2266 Z " fill="#000000"/><text fill="#000000" font-family="sans-serif" font-size="12" font-style="italic" lengthAdjust="spacing" textLength="158" x="381.5" y="145.457">«MedComCoreObservation»</text><text fill="#000000" font-family="sans-serif" font-size="14" lengthAdjust="spacing" textLength="200" x="360.5" y="162.627">MedComHomeCareObservation</text></g><!--MD5=[3693126f5e4882afa6398591cd5ccdc9]
link diagnosticReport to patient--><g id="link_diagnosticReport_patient"><path codeLine="9" d="M210.87,50.17 C198.27,59.14 183.52,69.89 170.5,80 C147.65,97.75 122.2,119.31 105.8,133.44 " fill="none" id="diagnosticReport-patient" style="stroke:#181818;stroke-width:1.0;"/><text fill="#000000" font-family="sans-serif" font-size="13" lengthAdjust="spacing" textLength="42" x="171.5" y="94.4951">subject</text></g><!--MD5=[47496e079e743b6704f8ffb47327a521]
link diagnosticReport to organization--><g id="link_diagnosticReport_organization"><path codeLine="10" d="M242.92,50.13 C246.17,77.69 252.15,128.03 257.5,171 C260.92,198.46 265.09,230.46 267.51,248.86 " fill="none" id="diagnosticReport-organization" style="stroke:#181818;stroke-width:1.0;"/><text fill="#000000" font-family="sans-serif" font-size="13" lengthAdjust="spacing" textLength="54" x="258.5" y="154.9951">performer</text></g><!--MD5=[1f197c178a815dc5a1dfbb48fdfadc47]
link diagnosticReport to coreobservation--><g id="link_diagnosticReport_coreobservation"><path codeLine="11" d="M276.56,50.23 C314.43,72 373.66,106.05 411.51,127.81 " fill="none" id="diagnosticReport-coreobservation" style="stroke:#181818;stroke-width:1.0;"/><text fill="#000000" font-family="sans-serif" font-size="13" lengthAdjust="spacing" textLength="32" x="357.5" y="94.4951">result</text></g><!--MD5=[c1b5b919a9c1cbeb103e231fc0557f2f]
link coreobservation to organization--><g id="link_coreobservation_organization"><path codeLine="12" d="M415.27,171.05 C380.1,193.48 324.64,228.84 293.24,248.86 " fill="none" id="coreobservation-organization" style="stroke:#181818;stroke-width:1.0;"/><text fill="#000000" font-family="sans-serif" font-size="13" lengthAdjust="spacing" textLength="54" x="365.5" y="215.4951">performer</text></g><!--MD5=[10a9e4ec9b397819351f9791653edd13]
@startuml HomeCareObsProfile
hide empty members
top to bottom direction

class "MedComCorePatient" as patient
class "MedComProducerOrganization" as organization 
class "MedComHomeCareDiagnosticReport" as diagnosticReport <<MedComCoreDiagnosticReport>>
class "MedComHomeCareObservation" as coreobservation <<MedComCoreObservation>>

diagnosticReport - - patient : "subject"
diagnosticReport - - organization: "performer"
diagnosticReport - - coreobservation : "result"
coreobservation - - organization:"performer"



@enduml

PlantUML version 1.2022.7(Mon Aug 22 19:01:30 CEST 2022)
(GPL source distribution)
Java Runtime: Java(TM) SE Runtime Environment
JVM: Java HotSpot(TM) 64-Bit Server VM
Default Encoding: Cp1252
Language: da
Country: DK
--></g></svg>