<?xml version="1.0" encoding="UTF-8" standalone="no"?><svg xmlns="http://www.w3.org/2000/svg" xmlns:xlink="http://www.w3.org/1999/xlink" contentStyleType="text/css" height="640px" preserveAspectRatio="none" style="width:836px;height:640px;background:#FFFFFF;" version="1.1" viewBox="0 0 836 640" width="836px" zoomAndPan="magnify"><defs/><g><!--MD5=[76410cda49e5d7b75c5bd06aa47a685f]
class message--><g id="elem_message"><rect codeLine="6" fill="#F1F1F1" height="42.7031" id="message" rx="2.5" ry="2.5" style="stroke:#181818;stroke-width:0.5;" width="212" x="412" y="7"/><ellipse cx="427" cy="28.3516" fill="#ADD1B2" rx="11" ry="11" style="stroke:#181818;stroke-width:1.0;"/><path d="M429.7656,24.2266 Q429.9219,24.0078 430.1094,23.8984 Q430.2969,23.7891 430.5156,23.7891 Q430.8906,23.7891 431.125,24.0547 Q431.3594,24.3047 431.3594,24.9141 L431.3594,26.3672 Q431.3594,26.9766 431.125,27.2422 Q430.8906,27.5078 430.5156,27.5078 Q430.1719,27.5078 429.9688,27.3047 Q429.7656,27.1172 429.6563,26.6016 Q429.6094,26.2422 429.4219,26.0547 Q429.0938,25.6797 428.4844,25.4609 Q427.875,25.2422 427.25,25.2422 Q426.4844,25.2422 425.8438,25.5703 Q425.2188,25.8984 424.7188,26.6484 Q424.2344,27.3984 424.2344,28.4297 L424.2344,29.5234 Q424.2344,30.7578 425.125,31.5859 Q426.0156,32.3984 427.6094,32.3984 Q428.5469,32.3984 429.2031,32.1484 Q429.5938,31.9922 430.0156,31.5547 Q430.2813,31.2891 430.4219,31.2109 Q430.5781,31.1328 430.7813,31.1328 Q431.1094,31.1328 431.3594,31.3984 Q431.625,31.6484 431.625,31.9922 Q431.625,32.3359 431.2813,32.7422 Q430.7813,33.3203 429.9844,33.6484 Q428.9063,34.1016 427.6094,34.1016 Q426.0938,34.1016 424.8906,33.4766 Q423.9063,32.9766 423.2188,31.9141 Q422.5313,30.8359 422.5313,29.5547 L422.5313,28.3984 Q422.5313,27.0703 423.1406,25.9297 Q423.7656,24.7734 424.8594,24.1641 Q425.9531,23.5391 427.1875,23.5391 Q427.9219,23.5391 428.5625,23.7109 Q429.2188,23.8672 429.7656,24.2266 Z " fill="#000000"/><text fill="#000000" font-family="sans-serif" font-size="12" font-style="italic" lengthAdjust="spacing" textLength="172" x="445" y="24.457">«MedComMessagingMessage»</text><text fill="#000000" font-family="sans-serif" font-size="14" lengthAdjust="spacing" textLength="180" x="441" y="41.627">MedComHomeCareMessage</text></g><!--MD5=[8450471b43f9def5175bba9f4f9f2aaf]
class messageheader--><g id="elem_messageheader"><rect codeLine="7" fill="#F1F1F1" height="42.7031" id="messageheader" rx="2.5" ry="2.5" style="stroke:#181818;stroke-width:0.5;" width="258" x="360" y="238"/><ellipse cx="375" cy="259.3516" fill="#ADD1B2" rx="11" ry="11" style="stroke:#181818;stroke-width:1.0;"/><path d="M377.7656,255.2266 Q377.9219,255.0078 378.1094,254.8984 Q378.2969,254.7891 378.5156,254.7891 Q378.8906,254.7891 379.125,255.0547 Q379.3594,255.3047 379.3594,255.9141 L379.3594,257.3672 Q379.3594,257.9766 379.125,258.2422 Q378.8906,258.5078 378.5156,258.5078 Q378.1719,258.5078 377.9688,258.3047 Q377.7656,258.1172 377.6563,257.6016 Q377.6094,257.2422 377.4219,257.0547 Q377.0938,256.6797 376.4844,256.4609 Q375.875,256.2422 375.25,256.2422 Q374.4844,256.2422 373.8438,256.5703 Q373.2188,256.8984 372.7188,257.6484 Q372.2344,258.3984 372.2344,259.4297 L372.2344,260.5234 Q372.2344,261.7578 373.125,262.5859 Q374.0156,263.3984 375.6094,263.3984 Q376.5469,263.3984 377.2031,263.1484 Q377.5938,262.9922 378.0156,262.5547 Q378.2813,262.2891 378.4219,262.2109 Q378.5781,262.1328 378.7813,262.1328 Q379.1094,262.1328 379.3594,262.3984 Q379.625,262.6484 379.625,262.9922 Q379.625,263.3359 379.2813,263.7422 Q378.7813,264.3203 377.9844,264.6484 Q376.9063,265.1016 375.6094,265.1016 Q374.0938,265.1016 372.8906,264.4766 Q371.9063,263.9766 371.2188,262.9141 Q370.5313,261.8359 370.5313,260.5547 L370.5313,259.3984 Q370.5313,258.0703 371.1406,256.9297 Q371.7656,255.7734 372.8594,255.1641 Q373.9531,254.5391 375.1875,254.5391 Q375.9219,254.5391 376.5625,254.7109 Q377.2188,254.8672 377.7656,255.2266 Z " fill="#000000"/><text fill="#000000" font-family="sans-serif" font-size="12" font-style="italic" lengthAdjust="spacing" textLength="213" x="395.5" y="255.457">«MedComMessagingMessageHeader»</text><text fill="#000000" font-family="sans-serif" font-size="14" lengthAdjust="spacing" textLength="226" x="389" y="272.627">MedComHomeCareMessageHeader</text></g><!--MD5=[134450525739527685064faa304c6b67]
class provenance--><g id="elem_provenance"><rect codeLine="8" fill="#F1F1F1" height="32" id="provenance" rx="2.5" ry="2.5" style="stroke:#181818;stroke-width:0.5;" width="232" x="555" y="128"/><ellipse cx="570" cy="144" fill="#ADD1B2" rx="11" ry="11" style="stroke:#181818;stroke-width:1.0;"/><path d="M572.7656,139.875 Q572.9219,139.6563 573.1094,139.5469 Q573.2969,139.4375 573.5156,139.4375 Q573.8906,139.4375 574.125,139.7031 Q574.3594,139.9531 574.3594,140.5625 L574.3594,142.0156 Q574.3594,142.625 574.125,142.8906 Q573.8906,143.1563 573.5156,143.1563 Q573.1719,143.1563 572.9688,142.9531 Q572.7656,142.7656 572.6563,142.25 Q572.6094,141.8906 572.4219,141.7031 Q572.0938,141.3281 571.4844,141.1094 Q570.875,140.8906 570.25,140.8906 Q569.4844,140.8906 568.8438,141.2188 Q568.2188,141.5469 567.7188,142.2969 Q567.2344,143.0469 567.2344,144.0781 L567.2344,145.1719 Q567.2344,146.4063 568.125,147.2344 Q569.0156,148.0469 570.6094,148.0469 Q571.5469,148.0469 572.2031,147.7969 Q572.5938,147.6406 573.0156,147.2031 Q573.2813,146.9375 573.4219,146.8594 Q573.5781,146.7813 573.7813,146.7813 Q574.1094,146.7813 574.3594,147.0469 Q574.625,147.2969 574.625,147.6406 Q574.625,147.9844 574.2813,148.3906 Q573.7813,148.9688 572.9844,149.2969 Q571.9063,149.75 570.6094,149.75 Q569.0938,149.75 567.8906,149.125 Q566.9063,148.625 566.2188,147.5625 Q565.5313,146.4844 565.5313,145.2031 L565.5313,144.0469 Q565.5313,142.7188 566.1406,141.5781 Q566.7656,140.4219 567.8594,139.8125 Q568.9531,139.1875 570.1875,139.1875 Q570.9219,139.1875 571.5625,139.3594 Q572.2188,139.5156 572.7656,139.875 Z " fill="#000000"/><text fill="#000000" font-family="sans-serif" font-size="14" lengthAdjust="spacing" textLength="200" x="584" y="149.7285">MedComMessagingProvenance</text></g><!--MD5=[5495acc25b34ab1dab9fd35d8e775d03]
class messagingOrganization--><g id="elem_messagingOrganization"><rect codeLine="9" fill="#F1F1F1" height="42.7031" id="messagingOrganization" rx="2.5" ry="2.5" style="stroke:#181818;stroke-width:0.5;" width="236" x="593" y="359"/><ellipse cx="608" cy="380.3516" fill="#ADD1B2" rx="11" ry="11" style="stroke:#181818;stroke-width:1.0;"/><path d="M610.7656,376.2266 Q610.9219,376.0078 611.1094,375.8984 Q611.2969,375.7891 611.5156,375.7891 Q611.8906,375.7891 612.125,376.0547 Q612.3594,376.3047 612.3594,376.9141 L612.3594,378.3672 Q612.3594,378.9766 612.125,379.2422 Q611.8906,379.5078 611.5156,379.5078 Q611.1719,379.5078 610.9688,379.3047 Q610.7656,379.1172 610.6563,378.6016 Q610.6094,378.2422 610.4219,378.0547 Q610.0938,377.6797 609.4844,377.4609 Q608.875,377.2422 608.25,377.2422 Q607.4844,377.2422 606.8438,377.5703 Q606.2188,377.8984 605.7188,378.6484 Q605.2344,379.3984 605.2344,380.4297 L605.2344,381.5234 Q605.2344,382.7578 606.125,383.5859 Q607.0156,384.3984 608.6094,384.3984 Q609.5469,384.3984 610.2031,384.1484 Q610.5938,383.9922 611.0156,383.5547 Q611.2813,383.2891 611.4219,383.2109 Q611.5781,383.1328 611.7813,383.1328 Q612.1094,383.1328 612.3594,383.3984 Q612.625,383.6484 612.625,383.9922 Q612.625,384.3359 612.2813,384.7422 Q611.7813,385.3203 610.9844,385.6484 Q609.9063,386.1016 608.6094,386.1016 Q607.0938,386.1016 605.8906,385.4766 Q604.9063,384.9766 604.2188,383.9141 Q603.5313,382.8359 603.5313,381.5547 L603.5313,380.3984 Q603.5313,379.0703 604.1406,377.9297 Q604.7656,376.7734 605.8594,376.1641 Q606.9531,375.5391 608.1875,375.5391 Q608.9219,375.5391 609.5625,375.7109 Q610.2188,375.8672 610.7656,376.2266 Z " fill="#000000"/><text fill="#000000" font-family="sans-serif" font-size="12" font-style="italic" lengthAdjust="spacing" textLength="162" x="643" y="376.457">«MedComCoreOrganization»</text><text fill="#000000" font-family="sans-serif" font-size="14" lengthAdjust="spacing" textLength="204" x="622" y="393.627">MedComMessagingOrganization</text></g><!--MD5=[d4169e35ccdaba65b2d0699c27e25023]
class observationRequester--><g id="elem_observationRequester"><rect codeLine="10" fill="#F1F1F1" height="32" id="observationRequester" rx="2.5" ry="2.5" style="stroke:#181818;stroke-width:0.5;" width="302" x="7" y="364.5"/><ellipse cx="22" cy="380.5" fill="#ADD1B2" rx="11" ry="11" style="stroke:#181818;stroke-width:1.0;"/><path d="M24.7656,376.375 Q24.9219,376.1563 25.1094,376.0469 Q25.2969,375.9375 25.5156,375.9375 Q25.8906,375.9375 26.125,376.2031 Q26.3594,376.4531 26.3594,377.0625 L26.3594,378.5156 Q26.3594,379.125 26.125,379.3906 Q25.8906,379.6563 25.5156,379.6563 Q25.1719,379.6563 24.9688,379.4531 Q24.7656,379.2656 24.6563,378.75 Q24.6094,378.3906 24.4219,378.2031 Q24.0938,377.8281 23.4844,377.6094 Q22.875,377.3906 22.25,377.3906 Q21.4844,377.3906 20.8438,377.7188 Q20.2188,378.0469 19.7188,378.7969 Q19.2344,379.5469 19.2344,380.5781 L19.2344,381.6719 Q19.2344,382.9063 20.125,383.7344 Q21.0156,384.5469 22.6094,384.5469 Q23.5469,384.5469 24.2031,384.2969 Q24.5938,384.1406 25.0156,383.7031 Q25.2813,383.4375 25.4219,383.3594 Q25.5781,383.2813 25.7813,383.2813 Q26.1094,383.2813 26.3594,383.5469 Q26.625,383.7969 26.625,384.1406 Q26.625,384.4844 26.2813,384.8906 Q25.7813,385.4688 24.9844,385.7969 Q23.9063,386.25 22.6094,386.25 Q21.0938,386.25 19.8906,385.625 Q18.9063,385.125 18.2188,384.0625 Q17.5313,382.9844 17.5313,381.7031 L17.5313,380.5469 Q17.5313,379.2188 18.1406,378.0781 Q18.7656,376.9219 19.8594,376.3125 Q20.9531,375.6875 22.1875,375.6875 Q22.9219,375.6875 23.5625,375.8594 Q24.2188,376.0156 24.7656,376.375 Z " fill="#000000"/><text fill="#000000" font-family="sans-serif" font-size="14" lengthAdjust="spacing" textLength="270" x="36" y="386.2285">MedComMessagingOrganizationRequester</text></g><!--MD5=[86fcfc7a3ddeef2443f03e9b03bcacd4]
class patient--><g id="elem_patient"><rect codeLine="11" fill="#F1F1F1" height="32" id="patient" rx="2.5" ry="2.5" style="stroke:#181818;stroke-width:0.5;" width="163" x="217.5" y="485.5"/><ellipse cx="232.5" cy="501.5" fill="#ADD1B2" rx="11" ry="11" style="stroke:#181818;stroke-width:1.0;"/><path d="M235.2656,497.375 Q235.4219,497.1563 235.6094,497.0469 Q235.7969,496.9375 236.0156,496.9375 Q236.3906,496.9375 236.625,497.2031 Q236.8594,497.4531 236.8594,498.0625 L236.8594,499.5156 Q236.8594,500.125 236.625,500.3906 Q236.3906,500.6563 236.0156,500.6563 Q235.6719,500.6563 235.4688,500.4531 Q235.2656,500.2656 235.1563,499.75 Q235.1094,499.3906 234.9219,499.2031 Q234.5938,498.8281 233.9844,498.6094 Q233.375,498.3906 232.75,498.3906 Q231.9844,498.3906 231.3438,498.7188 Q230.7188,499.0469 230.2188,499.7969 Q229.7344,500.5469 229.7344,501.5781 L229.7344,502.6719 Q229.7344,503.9063 230.625,504.7344 Q231.5156,505.5469 233.1094,505.5469 Q234.0469,505.5469 234.7031,505.2969 Q235.0938,505.1406 235.5156,504.7031 Q235.7813,504.4375 235.9219,504.3594 Q236.0781,504.2813 236.2813,504.2813 Q236.6094,504.2813 236.8594,504.5469 Q237.125,504.7969 237.125,505.1406 Q237.125,505.4844 236.7813,505.8906 Q236.2813,506.4688 235.4844,506.7969 Q234.4063,507.25 233.1094,507.25 Q231.5938,507.25 230.3906,506.625 Q229.4063,506.125 228.7188,505.0625 Q228.0313,503.9844 228.0313,502.7031 L228.0313,501.5469 Q228.0313,500.2188 228.6406,499.0781 Q229.2656,497.9219 230.3594,497.3125 Q231.4531,496.6875 232.6875,496.6875 Q233.4219,496.6875 234.0625,496.8594 Q234.7188,497.0156 235.2656,497.375 Z " fill="#000000"/><text fill="#000000" font-family="sans-serif" font-size="14" lengthAdjust="spacing" textLength="131" x="246.5" y="507.2285">MedComCorePatient</text></g><!--MD5=[d64d5c7357c79f774106f79272da7625]
class organization--><g id="elem_organization"><rect codeLine="12" fill="#F1F1F1" height="32" id="organization" rx="2.5" ry="2.5" style="stroke:#181818;stroke-width:0.5;" width="303" x="328.5" y="601"/><ellipse cx="343.5" cy="617" fill="#ADD1B2" rx="11" ry="11" style="stroke:#181818;stroke-width:1.0;"/><path d="M346.2656,612.875 Q346.4219,612.6563 346.6094,612.5469 Q346.7969,612.4375 347.0156,612.4375 Q347.3906,612.4375 347.625,612.7031 Q347.8594,612.9531 347.8594,613.5625 L347.8594,615.0156 Q347.8594,615.625 347.625,615.8906 Q347.3906,616.1563 347.0156,616.1563 Q346.6719,616.1563 346.4688,615.9531 Q346.2656,615.7656 346.1563,615.25 Q346.1094,614.8906 345.9219,614.7031 Q345.5938,614.3281 344.9844,614.1094 Q344.375,613.8906 343.75,613.8906 Q342.9844,613.8906 342.3438,614.2188 Q341.7188,614.5469 341.2188,615.2969 Q340.7344,616.0469 340.7344,617.0781 L340.7344,618.1719 Q340.7344,619.4063 341.625,620.2344 Q342.5156,621.0469 344.1094,621.0469 Q345.0469,621.0469 345.7031,620.7969 Q346.0938,620.6406 346.5156,620.2031 Q346.7813,619.9375 346.9219,619.8594 Q347.0781,619.7813 347.2813,619.7813 Q347.6094,619.7813 347.8594,620.0469 Q348.125,620.2969 348.125,620.6406 Q348.125,620.9844 347.7813,621.3906 Q347.2813,621.9688 346.4844,622.2969 Q345.4063,622.75 344.1094,622.75 Q342.5938,622.75 341.3906,622.125 Q340.4063,621.625 339.7188,620.5625 Q339.0313,619.4844 339.0313,618.2031 L339.0313,617.0469 Q339.0313,615.7188 339.6406,614.5781 Q340.2656,613.4219 341.3594,612.8125 Q342.4531,612.1875 343.6875,612.1875 Q344.4219,612.1875 345.0625,612.3594 Q345.7188,612.5156 346.2656,612.875 Z " fill="#000000"/><text fill="#000000" font-family="sans-serif" font-size="14" lengthAdjust="spacing" textLength="271" x="357.5" y="622.7285">MedComObservationProducerOrganization</text></g><!--MD5=[e983e22c3f4ba1480d19570c62e75e9c]
class diagnosticReport--><g id="elem_diagnosticReport"><rect codeLine="14" fill="#F1F1F1" height="42.7031" id="diagnosticReport" rx="2.5" ry="2.5" style="stroke:#181818;stroke-width:0.5;" width="214" x="344" y="359"/><ellipse cx="359" cy="380.3516" fill="#ADD1B2" rx="11" ry="11" style="stroke:#181818;stroke-width:1.0;"/><path d="M361.7656,376.2266 Q361.9219,376.0078 362.1094,375.8984 Q362.2969,375.7891 362.5156,375.7891 Q362.8906,375.7891 363.125,376.0547 Q363.3594,376.3047 363.3594,376.9141 L363.3594,378.3672 Q363.3594,378.9766 363.125,379.2422 Q362.8906,379.5078 362.5156,379.5078 Q362.1719,379.5078 361.9688,379.3047 Q361.7656,379.1172 361.6563,378.6016 Q361.6094,378.2422 361.4219,378.0547 Q361.0938,377.6797 360.4844,377.4609 Q359.875,377.2422 359.25,377.2422 Q358.4844,377.2422 357.8438,377.5703 Q357.2188,377.8984 356.7188,378.6484 Q356.2344,379.3984 356.2344,380.4297 L356.2344,381.5234 Q356.2344,382.7578 357.125,383.5859 Q358.0156,384.3984 359.6094,384.3984 Q360.5469,384.3984 361.2031,384.1484 Q361.5938,383.9922 362.0156,383.5547 Q362.2813,383.2891 362.4219,383.2109 Q362.5781,383.1328 362.7813,383.1328 Q363.1094,383.1328 363.3594,383.3984 Q363.625,383.6484 363.625,383.9922 Q363.625,384.3359 363.2813,384.7422 Q362.7813,385.3203 361.9844,385.6484 Q360.9063,386.1016 359.6094,386.1016 Q358.0938,386.1016 356.8906,385.4766 Q355.9063,384.9766 355.2188,383.9141 Q354.5313,382.8359 354.5313,381.5547 L354.5313,380.3984 Q354.5313,379.0703 355.1406,377.9297 Q355.7656,376.7734 356.8594,376.1641 Q357.9531,375.5391 359.1875,375.5391 Q359.9219,375.5391 360.5625,375.7109 Q361.2188,375.8672 361.7656,376.2266 Z " fill="#000000"/><text fill="#000000" font-family="sans-serif" font-size="12" font-style="italic" lengthAdjust="spacing" textLength="186" x="371" y="376.457">«MedComCoreDiagnosticReport»</text><text fill="#000000" font-family="sans-serif" font-size="14" lengthAdjust="spacing" textLength="110" x="409" y="393.627">HomeCareReport</text></g><!--MD5=[a96585abe38044d07723f840ff465c16]
class coreobservation--><g id="elem_coreobservation"><rect codeLine="15" fill="#F1F1F1" height="42.7031" id="coreobservation" rx="2.5" ry="2.5" style="stroke:#181818;stroke-width:0.5;" width="186" x="542" y="480"/><ellipse cx="557" cy="501.3516" fill="#ADD1B2" rx="11" ry="11" style="stroke:#181818;stroke-width:1.0;"/><path d="M559.7656,497.2266 Q559.9219,497.0078 560.1094,496.8984 Q560.2969,496.7891 560.5156,496.7891 Q560.8906,496.7891 561.125,497.0547 Q561.3594,497.3047 561.3594,497.9141 L561.3594,499.3672 Q561.3594,499.9766 561.125,500.2422 Q560.8906,500.5078 560.5156,500.5078 Q560.1719,500.5078 559.9688,500.3047 Q559.7656,500.1172 559.6563,499.6016 Q559.6094,499.2422 559.4219,499.0547 Q559.0938,498.6797 558.4844,498.4609 Q557.875,498.2422 557.25,498.2422 Q556.4844,498.2422 555.8438,498.5703 Q555.2188,498.8984 554.7188,499.6484 Q554.2344,500.3984 554.2344,501.4297 L554.2344,502.5234 Q554.2344,503.7578 555.125,504.5859 Q556.0156,505.3984 557.6094,505.3984 Q558.5469,505.3984 559.2031,505.1484 Q559.5938,504.9922 560.0156,504.5547 Q560.2813,504.2891 560.4219,504.2109 Q560.5781,504.1328 560.7813,504.1328 Q561.1094,504.1328 561.3594,504.3984 Q561.625,504.6484 561.625,504.9922 Q561.625,505.3359 561.2813,505.7422 Q560.7813,506.3203 559.9844,506.6484 Q558.9063,507.1016 557.6094,507.1016 Q556.0938,507.1016 554.8906,506.4766 Q553.9063,505.9766 553.2188,504.9141 Q552.5313,503.8359 552.5313,502.5547 L552.5313,501.3984 Q552.5313,500.0703 553.1406,498.9297 Q553.7656,497.7734 554.8594,497.1641 Q555.9531,496.5391 557.1875,496.5391 Q557.9219,496.5391 558.5625,496.7109 Q559.2188,496.8672 559.7656,497.2266 Z " fill="#000000"/><text fill="#000000" font-family="sans-serif" font-size="12" font-style="italic" lengthAdjust="spacing" textLength="158" x="569" y="497.457">«MedComCoreObservation»</text><text fill="#000000" font-family="sans-serif" font-size="14" lengthAdjust="spacing" textLength="144" x="576" y="514.627">HomeCareObservation</text></g><!--MD5=[81a74f5327845c2ce954842e4f46c391]
link message to messageheader--><g id="link_message_messageheader"><path codeLine="17" d="M515.38,50.23 C509.85,93.83 497.1,194.57 491.6,237.99 " fill="none" id="message-messageheader" style="stroke:#181818;stroke-width:1.0;"/><text fill="#000000" font-family="sans-serif" font-size="13" lengthAdjust="spacing" textLength="29" x="507" y="149.4951">entry</text></g><!--MD5=[e1e9985a6f350ec0650597362e14de10]
link messageheader to diagnosticReport--><g id="link_messageheader_diagnosticReport"><path codeLine="18" d="M482.38,281.23 C475.45,302.94 464.62,336.84 457.67,358.61 " fill="none" id="messageheader-diagnosticReport" style="stroke:#181818;stroke-width:1.0;"/><text fill="#000000" font-family="sans-serif" font-size="13" lengthAdjust="spacing" textLength="31" x="474" y="325.4951">focus</text></g><!--MD5=[81f298224060e516a9ea14ff98c71ca4]
link message to provenance--><g id="link_message_provenance"><path codeLine="19" d="M545.71,50.05 C575.85,72.41 623.33,107.64 650.36,127.69 " fill="none" id="message-provenance" style="stroke:#181818;stroke-width:1.0;"/><text fill="#000000" font-family="sans-serif" font-size="13" lengthAdjust="spacing" textLength="29" x="610" y="94.4951">entry</text></g><!--MD5=[1aa5b919a36df47450e1a6a7cdb64b45]
link provenance to messageheader--><g id="link_provenance_messageheader"><path codeLine="20" d="M646.83,160.07 C614.73,180.09 557.9,215.53 521.9,237.98 " fill="none" id="provenance-messageheader" style="stroke:#181818;stroke-width:1.0;"/><text fill="#000000" font-family="sans-serif" font-size="13" lengthAdjust="spacing" textLength="33" x="598" y="204.4951">target</text></g><!--MD5=[f47a36da2de5ae8806a1be3932325292]
link provenance to messagingOrganization--><g id="link_provenance_messagingOrganization"><path codeLine="21" d="M673.56,160.03 C680.48,200.56 699.53,312.23 707.46,358.74 " fill="none" id="provenance-messagingOrganization" style="stroke:#181818;stroke-width:1.0;"/><text fill="#000000" font-family="sans-serif" font-size="13" lengthAdjust="spacing" textLength="59" x="694" y="264.9951">agent.who</text></g><!--MD5=[3693126f5e4882afa6398591cd5ccdc9]
link diagnosticReport to patient--><g id="link_diagnosticReport_patient"><path codeLine="22" d="M421.37,402.17 C408.77,411.14 394.02,421.89 381,432 C358.15,449.75 332.7,471.31 316.3,485.44 " fill="none" id="diagnosticReport-patient" style="stroke:#181818;stroke-width:1.0;"/><text fill="#000000" font-family="sans-serif" font-size="13" lengthAdjust="spacing" textLength="42" x="382" y="446.4951">subject</text></g><!--MD5=[47496e079e743b6704f8ffb47327a521]
link diagnosticReport to organization--><g id="link_diagnosticReport_organization"><path codeLine="23" d="M453.42,402.13 C456.67,429.69 462.65,480.03 468,523 C471.42,550.46 475.59,582.46 478.01,600.86 " fill="none" id="diagnosticReport-organization" style="stroke:#181818;stroke-width:1.0;"/><text fill="#000000" font-family="sans-serif" font-size="13" lengthAdjust="spacing" textLength="54" x="469" y="506.9951">performer</text></g><!--MD5=[1f197c178a815dc5a1dfbb48fdfadc47]
link diagnosticReport to coreobservation--><g id="link_diagnosticReport_coreobservation"><path codeLine="24" d="M483.05,402.23 C516.72,424 569.36,458.05 603.01,479.81 " fill="none" id="diagnosticReport-coreobservation" style="stroke:#181818;stroke-width:1.0;"/><text fill="#000000" font-family="sans-serif" font-size="13" lengthAdjust="spacing" textLength="32" x="556" y="446.4951">result</text></g><!--MD5=[c1b5b919a9c1cbeb103e231fc0557f2f]
link coreobservation to organization--><g id="link_coreobservation_organization"><path codeLine="25" d="M606.93,523.05 C576.4,545.41 528.29,580.64 500.91,600.69 " fill="none" id="coreobservation-organization" style="stroke:#181818;stroke-width:1.0;"/><text fill="#000000" font-family="sans-serif" font-size="13" lengthAdjust="spacing" textLength="54" x="564" y="567.4951">performer</text></g><!--MD5=[56c2f2cfb24c8eacf57cb1d46166a77b]
link messageheader to observationRequester--><g id="link_messageheader_observationRequester"><path codeLine="28" d="M431.72,281.09 C365.67,304.84 258.65,343.32 199.91,364.43 " fill="none" id="messageheader-observationRequester" style="stroke:#181818;stroke-width:1.0;"/><text fill="#000000" font-family="sans-serif" font-size="13" lengthAdjust="spacing" textLength="44" x="345" y="325.4951">receiver</text></g><!--MD5=[7068c6a302bec6a421fbf6e526f1486a]
link messageheader to messagingOrganization--><g id="link_messageheader_messagingOrganization"><path codeLine="29" d="M527.42,281.09 C568.12,302.91 632.02,337.16 672.68,358.96 " fill="none" id="messageheader-messagingOrganization" style="stroke:#181818;stroke-width:1.0;"/><text fill="#000000" font-family="sans-serif" font-size="13" lengthAdjust="spacing" textLength="39" x="615" y="325.4951">sender</text></g><!--MD5=[cc950812ffdc2b31d848ba87df19a1f9]
@startuml HomeCareObservationMessage

hide empty members

top to bottom direction

class "MedComHomeCareMessage" as message <<MedComMessagingMessage>>
class "MedComHomeCareMessageHeader" as messageheader <<MedComMessagingMessageHeader>>
class "MedComMessagingProvenance" as provenance
class "MedComMessagingOrganization" as messagingOrganization <<MedComCoreOrganization>>
class "MedComMessagingOrganizationRequester" as observationRequester 
class "MedComCorePatient" as patient
class "MedComObservationProducerOrganization" as organization
' class "MedComCorePractitioner" as author
class "HomeCareReport" as diagnosticReport <<MedComCoreDiagnosticReport>>
class "HomeCareObservation" as coreobservation <<MedComCoreObservation>>

message - - messageheader : "entry"
messageheader - - diagnosticReport : "focus"
message - - provenance : "entry"
provenance - - messageheader : "target" 
provenance - - messagingOrganization : "agent.who"
diagnosticReport - - patient : "subject"
diagnosticReport - - organization: "performer"
diagnosticReport - - coreobservation : "result"
coreobservation - - organization:"performer"


messageheader - - observationRequester : "receiver"
messageheader - - messagingOrganization : "sender"

@enduml

@startuml HomeCareObservationMessage

hide empty members

top to bottom direction

class "MedComHomeCareMessage" as message <<MedComMessagingMessage>>
class "MedComHomeCareMessageHeader" as messageheader <<MedComMessagingMessageHeader>>
class "MedComMessagingProvenance" as provenance
class "MedComMessagingOrganization" as messagingOrganization <<MedComCoreOrganization>>
class "MedComMessagingOrganizationRequester" as observationRequester 
class "MedComCorePatient" as patient
class "MedComObservationProducerOrganization" as organization
class "HomeCareReport" as diagnosticReport <<MedComCoreDiagnosticReport>>
class "HomeCareObservation" as coreobservation <<MedComCoreObservation>>

message - - messageheader : "entry"
messageheader - - diagnosticReport : "focus"
message - - provenance : "entry"
provenance - - messageheader : "target" 
provenance - - messagingOrganization : "agent.who"
diagnosticReport - - patient : "subject"
diagnosticReport - - organization: "performer"
diagnosticReport - - coreobservation : "result"
coreobservation - - organization:"performer"


messageheader - - observationRequester : "receiver"
messageheader - - messagingOrganization : "sender"

@enduml

PlantUML version 1.2022.7(Mon Aug 22 19:01:30 CEST 2022)
(GPL source distribution)
Java Runtime: Java(TM) SE Runtime Environment
JVM: Java HotSpot(TM) 64-Bit Server VM
Default Encoding: Cp1252
Language: da
Country: DK
--></g></svg>